G75*
%MOIN*%
%OFA0B0*%
%FSLAX25Y25*%
%IPPOS*%
%LPD*%
%AMOC8*
5,1,8,0,0,1.08239X$1,22.5*
%
%ADD10C,0.00000*%
%ADD11OC8,0.06102*%
%ADD12OC8,0.15748*%
%ADD13R,0.15748X0.15748*%
%ADD14C,0.07677*%
%ADD15C,0.06000*%
%ADD16OC8,0.07000*%
%ADD17C,0.03150*%
%ADD18C,0.03575*%
%ADD19OC8,0.08500*%
%ADD20C,0.01600*%
%ADD21OC8,0.03169*%
%ADD22OC8,0.02381*%
%ADD23C,0.02381*%
%ADD24C,0.03169*%
%ADD25C,0.01200*%
%ADD26C,0.02775*%
%ADD27C,0.01969*%
%ADD28C,0.02400*%
%ADD29C,0.00394*%
%ADD30C,0.03200*%
%ADD31C,0.02362*%
%ADD32C,0.04000*%
D10*
X0026130Y0004800D02*
X0026130Y0214800D01*
X0279204Y0214800D01*
X0280785Y0214145D02*
X0285716Y0209214D01*
X0286130Y0208214D02*
X0286130Y0165912D01*
X0286132Y0165774D01*
X0286137Y0165636D01*
X0286147Y0165498D01*
X0286160Y0165361D01*
X0286177Y0165224D01*
X0286197Y0165087D01*
X0286221Y0164951D01*
X0286249Y0164816D01*
X0286281Y0164681D01*
X0286316Y0164548D01*
X0286355Y0164415D01*
X0286397Y0164284D01*
X0286443Y0164154D01*
X0286492Y0164025D01*
X0286545Y0163897D01*
X0286601Y0163771D01*
X0286661Y0163646D01*
X0286724Y0163524D01*
X0286790Y0163402D01*
X0286860Y0163283D01*
X0286933Y0163166D01*
X0287009Y0163051D01*
X0287088Y0162937D01*
X0287170Y0162826D01*
X0287255Y0162717D01*
X0287343Y0162611D01*
X0287434Y0162507D01*
X0287527Y0162405D01*
X0287623Y0162306D01*
X0287623Y0162307D02*
X0295204Y0154726D01*
X0296130Y0152490D02*
X0296130Y0025628D01*
X0295544Y0024214D02*
X0287056Y0015726D01*
X0286130Y0013490D02*
X0286130Y0005800D01*
X0286128Y0005740D01*
X0286123Y0005679D01*
X0286114Y0005620D01*
X0286101Y0005561D01*
X0286085Y0005502D01*
X0286065Y0005445D01*
X0286042Y0005390D01*
X0286015Y0005335D01*
X0285986Y0005283D01*
X0285953Y0005232D01*
X0285917Y0005183D01*
X0285879Y0005137D01*
X0285837Y0005093D01*
X0285793Y0005051D01*
X0285747Y0005013D01*
X0285698Y0004977D01*
X0285647Y0004944D01*
X0285595Y0004915D01*
X0285540Y0004888D01*
X0285485Y0004865D01*
X0285428Y0004845D01*
X0285369Y0004829D01*
X0285310Y0004816D01*
X0285251Y0004807D01*
X0285190Y0004802D01*
X0285130Y0004800D01*
X0026130Y0004800D01*
X0082193Y0014800D02*
X0082195Y0014925D01*
X0082201Y0015050D01*
X0082211Y0015174D01*
X0082225Y0015298D01*
X0082242Y0015422D01*
X0082264Y0015545D01*
X0082290Y0015667D01*
X0082319Y0015789D01*
X0082352Y0015909D01*
X0082390Y0016028D01*
X0082430Y0016147D01*
X0082475Y0016263D01*
X0082523Y0016378D01*
X0082575Y0016492D01*
X0082631Y0016604D01*
X0082690Y0016714D01*
X0082752Y0016822D01*
X0082818Y0016929D01*
X0082887Y0017033D01*
X0082960Y0017134D01*
X0083035Y0017234D01*
X0083114Y0017331D01*
X0083196Y0017425D01*
X0083281Y0017517D01*
X0083368Y0017606D01*
X0083459Y0017692D01*
X0083552Y0017775D01*
X0083648Y0017856D01*
X0083746Y0017933D01*
X0083846Y0018007D01*
X0083949Y0018078D01*
X0084054Y0018145D01*
X0084162Y0018210D01*
X0084271Y0018270D01*
X0084382Y0018328D01*
X0084495Y0018381D01*
X0084609Y0018431D01*
X0084725Y0018478D01*
X0084842Y0018520D01*
X0084961Y0018559D01*
X0085081Y0018595D01*
X0085202Y0018626D01*
X0085324Y0018654D01*
X0085446Y0018677D01*
X0085570Y0018697D01*
X0085694Y0018713D01*
X0085818Y0018725D01*
X0085943Y0018733D01*
X0086068Y0018737D01*
X0086192Y0018737D01*
X0086317Y0018733D01*
X0086442Y0018725D01*
X0086566Y0018713D01*
X0086690Y0018697D01*
X0086814Y0018677D01*
X0086936Y0018654D01*
X0087058Y0018626D01*
X0087179Y0018595D01*
X0087299Y0018559D01*
X0087418Y0018520D01*
X0087535Y0018478D01*
X0087651Y0018431D01*
X0087765Y0018381D01*
X0087878Y0018328D01*
X0087989Y0018270D01*
X0088099Y0018210D01*
X0088206Y0018145D01*
X0088311Y0018078D01*
X0088414Y0018007D01*
X0088514Y0017933D01*
X0088612Y0017856D01*
X0088708Y0017775D01*
X0088801Y0017692D01*
X0088892Y0017606D01*
X0088979Y0017517D01*
X0089064Y0017425D01*
X0089146Y0017331D01*
X0089225Y0017234D01*
X0089300Y0017134D01*
X0089373Y0017033D01*
X0089442Y0016929D01*
X0089508Y0016822D01*
X0089570Y0016714D01*
X0089629Y0016604D01*
X0089685Y0016492D01*
X0089737Y0016378D01*
X0089785Y0016263D01*
X0089830Y0016147D01*
X0089870Y0016028D01*
X0089908Y0015909D01*
X0089941Y0015789D01*
X0089970Y0015667D01*
X0089996Y0015545D01*
X0090018Y0015422D01*
X0090035Y0015298D01*
X0090049Y0015174D01*
X0090059Y0015050D01*
X0090065Y0014925D01*
X0090067Y0014800D01*
X0090065Y0014675D01*
X0090059Y0014550D01*
X0090049Y0014426D01*
X0090035Y0014302D01*
X0090018Y0014178D01*
X0089996Y0014055D01*
X0089970Y0013933D01*
X0089941Y0013811D01*
X0089908Y0013691D01*
X0089870Y0013572D01*
X0089830Y0013453D01*
X0089785Y0013337D01*
X0089737Y0013222D01*
X0089685Y0013108D01*
X0089629Y0012996D01*
X0089570Y0012886D01*
X0089508Y0012778D01*
X0089442Y0012671D01*
X0089373Y0012567D01*
X0089300Y0012466D01*
X0089225Y0012366D01*
X0089146Y0012269D01*
X0089064Y0012175D01*
X0088979Y0012083D01*
X0088892Y0011994D01*
X0088801Y0011908D01*
X0088708Y0011825D01*
X0088612Y0011744D01*
X0088514Y0011667D01*
X0088414Y0011593D01*
X0088311Y0011522D01*
X0088206Y0011455D01*
X0088098Y0011390D01*
X0087989Y0011330D01*
X0087878Y0011272D01*
X0087765Y0011219D01*
X0087651Y0011169D01*
X0087535Y0011122D01*
X0087418Y0011080D01*
X0087299Y0011041D01*
X0087179Y0011005D01*
X0087058Y0010974D01*
X0086936Y0010946D01*
X0086814Y0010923D01*
X0086690Y0010903D01*
X0086566Y0010887D01*
X0086442Y0010875D01*
X0086317Y0010867D01*
X0086192Y0010863D01*
X0086068Y0010863D01*
X0085943Y0010867D01*
X0085818Y0010875D01*
X0085694Y0010887D01*
X0085570Y0010903D01*
X0085446Y0010923D01*
X0085324Y0010946D01*
X0085202Y0010974D01*
X0085081Y0011005D01*
X0084961Y0011041D01*
X0084842Y0011080D01*
X0084725Y0011122D01*
X0084609Y0011169D01*
X0084495Y0011219D01*
X0084382Y0011272D01*
X0084271Y0011330D01*
X0084161Y0011390D01*
X0084054Y0011455D01*
X0083949Y0011522D01*
X0083846Y0011593D01*
X0083746Y0011667D01*
X0083648Y0011744D01*
X0083552Y0011825D01*
X0083459Y0011908D01*
X0083368Y0011994D01*
X0083281Y0012083D01*
X0083196Y0012175D01*
X0083114Y0012269D01*
X0083035Y0012366D01*
X0082960Y0012466D01*
X0082887Y0012567D01*
X0082818Y0012671D01*
X0082752Y0012778D01*
X0082690Y0012886D01*
X0082631Y0012996D01*
X0082575Y0013108D01*
X0082523Y0013222D01*
X0082475Y0013337D01*
X0082430Y0013453D01*
X0082390Y0013572D01*
X0082352Y0013691D01*
X0082319Y0013811D01*
X0082290Y0013933D01*
X0082264Y0014055D01*
X0082242Y0014178D01*
X0082225Y0014302D01*
X0082211Y0014426D01*
X0082201Y0014550D01*
X0082195Y0014675D01*
X0082193Y0014800D01*
X0041613Y0147438D02*
X0041615Y0147518D01*
X0041621Y0147597D01*
X0041631Y0147676D01*
X0041645Y0147755D01*
X0041662Y0147833D01*
X0041684Y0147910D01*
X0041709Y0147985D01*
X0041739Y0148059D01*
X0041771Y0148132D01*
X0041808Y0148203D01*
X0041848Y0148272D01*
X0041891Y0148339D01*
X0041938Y0148404D01*
X0041987Y0148466D01*
X0042040Y0148526D01*
X0042096Y0148583D01*
X0042154Y0148638D01*
X0042215Y0148689D01*
X0042279Y0148737D01*
X0042345Y0148782D01*
X0042413Y0148824D01*
X0042483Y0148862D01*
X0042555Y0148896D01*
X0042628Y0148927D01*
X0042703Y0148955D01*
X0042780Y0148978D01*
X0042857Y0148998D01*
X0042935Y0149014D01*
X0043014Y0149026D01*
X0043093Y0149034D01*
X0043173Y0149038D01*
X0043253Y0149038D01*
X0043333Y0149034D01*
X0043412Y0149026D01*
X0043491Y0149014D01*
X0043569Y0148998D01*
X0043646Y0148978D01*
X0043723Y0148955D01*
X0043798Y0148927D01*
X0043871Y0148896D01*
X0043943Y0148862D01*
X0044013Y0148824D01*
X0044081Y0148782D01*
X0044147Y0148737D01*
X0044211Y0148689D01*
X0044272Y0148638D01*
X0044330Y0148583D01*
X0044386Y0148526D01*
X0044439Y0148466D01*
X0044488Y0148404D01*
X0044535Y0148339D01*
X0044578Y0148272D01*
X0044618Y0148203D01*
X0044655Y0148132D01*
X0044687Y0148059D01*
X0044717Y0147985D01*
X0044742Y0147910D01*
X0044764Y0147833D01*
X0044781Y0147755D01*
X0044795Y0147676D01*
X0044805Y0147597D01*
X0044811Y0147518D01*
X0044813Y0147438D01*
X0044811Y0147358D01*
X0044805Y0147279D01*
X0044795Y0147200D01*
X0044781Y0147121D01*
X0044764Y0147043D01*
X0044742Y0146966D01*
X0044717Y0146891D01*
X0044687Y0146817D01*
X0044655Y0146744D01*
X0044618Y0146673D01*
X0044578Y0146604D01*
X0044535Y0146537D01*
X0044488Y0146472D01*
X0044439Y0146410D01*
X0044386Y0146350D01*
X0044330Y0146293D01*
X0044272Y0146238D01*
X0044211Y0146187D01*
X0044147Y0146139D01*
X0044081Y0146094D01*
X0044013Y0146052D01*
X0043943Y0146014D01*
X0043871Y0145980D01*
X0043798Y0145949D01*
X0043723Y0145921D01*
X0043646Y0145898D01*
X0043569Y0145878D01*
X0043491Y0145862D01*
X0043412Y0145850D01*
X0043333Y0145842D01*
X0043253Y0145838D01*
X0043173Y0145838D01*
X0043093Y0145842D01*
X0043014Y0145850D01*
X0042935Y0145862D01*
X0042857Y0145878D01*
X0042780Y0145898D01*
X0042703Y0145921D01*
X0042628Y0145949D01*
X0042555Y0145980D01*
X0042483Y0146014D01*
X0042413Y0146052D01*
X0042345Y0146094D01*
X0042279Y0146139D01*
X0042215Y0146187D01*
X0042154Y0146238D01*
X0042096Y0146293D01*
X0042040Y0146350D01*
X0041987Y0146410D01*
X0041938Y0146472D01*
X0041891Y0146537D01*
X0041848Y0146604D01*
X0041808Y0146673D01*
X0041771Y0146744D01*
X0041739Y0146817D01*
X0041709Y0146891D01*
X0041684Y0146966D01*
X0041662Y0147043D01*
X0041645Y0147121D01*
X0041631Y0147200D01*
X0041621Y0147279D01*
X0041615Y0147358D01*
X0041613Y0147438D01*
X0041613Y0164761D02*
X0041615Y0164841D01*
X0041621Y0164920D01*
X0041631Y0164999D01*
X0041645Y0165078D01*
X0041662Y0165156D01*
X0041684Y0165233D01*
X0041709Y0165308D01*
X0041739Y0165382D01*
X0041771Y0165455D01*
X0041808Y0165526D01*
X0041848Y0165595D01*
X0041891Y0165662D01*
X0041938Y0165727D01*
X0041987Y0165789D01*
X0042040Y0165849D01*
X0042096Y0165906D01*
X0042154Y0165961D01*
X0042215Y0166012D01*
X0042279Y0166060D01*
X0042345Y0166105D01*
X0042413Y0166147D01*
X0042483Y0166185D01*
X0042555Y0166219D01*
X0042628Y0166250D01*
X0042703Y0166278D01*
X0042780Y0166301D01*
X0042857Y0166321D01*
X0042935Y0166337D01*
X0043014Y0166349D01*
X0043093Y0166357D01*
X0043173Y0166361D01*
X0043253Y0166361D01*
X0043333Y0166357D01*
X0043412Y0166349D01*
X0043491Y0166337D01*
X0043569Y0166321D01*
X0043646Y0166301D01*
X0043723Y0166278D01*
X0043798Y0166250D01*
X0043871Y0166219D01*
X0043943Y0166185D01*
X0044013Y0166147D01*
X0044081Y0166105D01*
X0044147Y0166060D01*
X0044211Y0166012D01*
X0044272Y0165961D01*
X0044330Y0165906D01*
X0044386Y0165849D01*
X0044439Y0165789D01*
X0044488Y0165727D01*
X0044535Y0165662D01*
X0044578Y0165595D01*
X0044618Y0165526D01*
X0044655Y0165455D01*
X0044687Y0165382D01*
X0044717Y0165308D01*
X0044742Y0165233D01*
X0044764Y0165156D01*
X0044781Y0165078D01*
X0044795Y0164999D01*
X0044805Y0164920D01*
X0044811Y0164841D01*
X0044813Y0164761D01*
X0044811Y0164681D01*
X0044805Y0164602D01*
X0044795Y0164523D01*
X0044781Y0164444D01*
X0044764Y0164366D01*
X0044742Y0164289D01*
X0044717Y0164214D01*
X0044687Y0164140D01*
X0044655Y0164067D01*
X0044618Y0163996D01*
X0044578Y0163927D01*
X0044535Y0163860D01*
X0044488Y0163795D01*
X0044439Y0163733D01*
X0044386Y0163673D01*
X0044330Y0163616D01*
X0044272Y0163561D01*
X0044211Y0163510D01*
X0044147Y0163462D01*
X0044081Y0163417D01*
X0044013Y0163375D01*
X0043943Y0163337D01*
X0043871Y0163303D01*
X0043798Y0163272D01*
X0043723Y0163244D01*
X0043646Y0163221D01*
X0043569Y0163201D01*
X0043491Y0163185D01*
X0043412Y0163173D01*
X0043333Y0163165D01*
X0043253Y0163161D01*
X0043173Y0163161D01*
X0043093Y0163165D01*
X0043014Y0163173D01*
X0042935Y0163185D01*
X0042857Y0163201D01*
X0042780Y0163221D01*
X0042703Y0163244D01*
X0042628Y0163272D01*
X0042555Y0163303D01*
X0042483Y0163337D01*
X0042413Y0163375D01*
X0042345Y0163417D01*
X0042279Y0163462D01*
X0042215Y0163510D01*
X0042154Y0163561D01*
X0042096Y0163616D01*
X0042040Y0163673D01*
X0041987Y0163733D01*
X0041938Y0163795D01*
X0041891Y0163860D01*
X0041848Y0163927D01*
X0041808Y0163996D01*
X0041771Y0164067D01*
X0041739Y0164140D01*
X0041709Y0164214D01*
X0041684Y0164289D01*
X0041662Y0164366D01*
X0041645Y0164444D01*
X0041631Y0164523D01*
X0041621Y0164602D01*
X0041615Y0164681D01*
X0041613Y0164761D01*
X0100943Y0206800D02*
X0100945Y0206925D01*
X0100951Y0207050D01*
X0100961Y0207174D01*
X0100975Y0207298D01*
X0100992Y0207422D01*
X0101014Y0207545D01*
X0101040Y0207667D01*
X0101069Y0207789D01*
X0101102Y0207909D01*
X0101140Y0208028D01*
X0101180Y0208147D01*
X0101225Y0208263D01*
X0101273Y0208378D01*
X0101325Y0208492D01*
X0101381Y0208604D01*
X0101440Y0208714D01*
X0101502Y0208822D01*
X0101568Y0208929D01*
X0101637Y0209033D01*
X0101710Y0209134D01*
X0101785Y0209234D01*
X0101864Y0209331D01*
X0101946Y0209425D01*
X0102031Y0209517D01*
X0102118Y0209606D01*
X0102209Y0209692D01*
X0102302Y0209775D01*
X0102398Y0209856D01*
X0102496Y0209933D01*
X0102596Y0210007D01*
X0102699Y0210078D01*
X0102804Y0210145D01*
X0102912Y0210210D01*
X0103021Y0210270D01*
X0103132Y0210328D01*
X0103245Y0210381D01*
X0103359Y0210431D01*
X0103475Y0210478D01*
X0103592Y0210520D01*
X0103711Y0210559D01*
X0103831Y0210595D01*
X0103952Y0210626D01*
X0104074Y0210654D01*
X0104196Y0210677D01*
X0104320Y0210697D01*
X0104444Y0210713D01*
X0104568Y0210725D01*
X0104693Y0210733D01*
X0104818Y0210737D01*
X0104942Y0210737D01*
X0105067Y0210733D01*
X0105192Y0210725D01*
X0105316Y0210713D01*
X0105440Y0210697D01*
X0105564Y0210677D01*
X0105686Y0210654D01*
X0105808Y0210626D01*
X0105929Y0210595D01*
X0106049Y0210559D01*
X0106168Y0210520D01*
X0106285Y0210478D01*
X0106401Y0210431D01*
X0106515Y0210381D01*
X0106628Y0210328D01*
X0106739Y0210270D01*
X0106849Y0210210D01*
X0106956Y0210145D01*
X0107061Y0210078D01*
X0107164Y0210007D01*
X0107264Y0209933D01*
X0107362Y0209856D01*
X0107458Y0209775D01*
X0107551Y0209692D01*
X0107642Y0209606D01*
X0107729Y0209517D01*
X0107814Y0209425D01*
X0107896Y0209331D01*
X0107975Y0209234D01*
X0108050Y0209134D01*
X0108123Y0209033D01*
X0108192Y0208929D01*
X0108258Y0208822D01*
X0108320Y0208714D01*
X0108379Y0208604D01*
X0108435Y0208492D01*
X0108487Y0208378D01*
X0108535Y0208263D01*
X0108580Y0208147D01*
X0108620Y0208028D01*
X0108658Y0207909D01*
X0108691Y0207789D01*
X0108720Y0207667D01*
X0108746Y0207545D01*
X0108768Y0207422D01*
X0108785Y0207298D01*
X0108799Y0207174D01*
X0108809Y0207050D01*
X0108815Y0206925D01*
X0108817Y0206800D01*
X0108815Y0206675D01*
X0108809Y0206550D01*
X0108799Y0206426D01*
X0108785Y0206302D01*
X0108768Y0206178D01*
X0108746Y0206055D01*
X0108720Y0205933D01*
X0108691Y0205811D01*
X0108658Y0205691D01*
X0108620Y0205572D01*
X0108580Y0205453D01*
X0108535Y0205337D01*
X0108487Y0205222D01*
X0108435Y0205108D01*
X0108379Y0204996D01*
X0108320Y0204886D01*
X0108258Y0204778D01*
X0108192Y0204671D01*
X0108123Y0204567D01*
X0108050Y0204466D01*
X0107975Y0204366D01*
X0107896Y0204269D01*
X0107814Y0204175D01*
X0107729Y0204083D01*
X0107642Y0203994D01*
X0107551Y0203908D01*
X0107458Y0203825D01*
X0107362Y0203744D01*
X0107264Y0203667D01*
X0107164Y0203593D01*
X0107061Y0203522D01*
X0106956Y0203455D01*
X0106848Y0203390D01*
X0106739Y0203330D01*
X0106628Y0203272D01*
X0106515Y0203219D01*
X0106401Y0203169D01*
X0106285Y0203122D01*
X0106168Y0203080D01*
X0106049Y0203041D01*
X0105929Y0203005D01*
X0105808Y0202974D01*
X0105686Y0202946D01*
X0105564Y0202923D01*
X0105440Y0202903D01*
X0105316Y0202887D01*
X0105192Y0202875D01*
X0105067Y0202867D01*
X0104942Y0202863D01*
X0104818Y0202863D01*
X0104693Y0202867D01*
X0104568Y0202875D01*
X0104444Y0202887D01*
X0104320Y0202903D01*
X0104196Y0202923D01*
X0104074Y0202946D01*
X0103952Y0202974D01*
X0103831Y0203005D01*
X0103711Y0203041D01*
X0103592Y0203080D01*
X0103475Y0203122D01*
X0103359Y0203169D01*
X0103245Y0203219D01*
X0103132Y0203272D01*
X0103021Y0203330D01*
X0102911Y0203390D01*
X0102804Y0203455D01*
X0102699Y0203522D01*
X0102596Y0203593D01*
X0102496Y0203667D01*
X0102398Y0203744D01*
X0102302Y0203825D01*
X0102209Y0203908D01*
X0102118Y0203994D01*
X0102031Y0204083D01*
X0101946Y0204175D01*
X0101864Y0204269D01*
X0101785Y0204366D01*
X0101710Y0204466D01*
X0101637Y0204567D01*
X0101568Y0204671D01*
X0101502Y0204778D01*
X0101440Y0204886D01*
X0101381Y0204996D01*
X0101325Y0205108D01*
X0101273Y0205222D01*
X0101225Y0205337D01*
X0101180Y0205453D01*
X0101140Y0205572D01*
X0101102Y0205691D01*
X0101069Y0205811D01*
X0101040Y0205933D01*
X0101014Y0206055D01*
X0100992Y0206178D01*
X0100975Y0206302D01*
X0100961Y0206426D01*
X0100951Y0206550D01*
X0100945Y0206675D01*
X0100943Y0206800D01*
X0279204Y0214800D02*
X0279296Y0214798D01*
X0279389Y0214792D01*
X0279481Y0214783D01*
X0279572Y0214770D01*
X0279663Y0214752D01*
X0279753Y0214732D01*
X0279842Y0214707D01*
X0279930Y0214679D01*
X0280017Y0214647D01*
X0280102Y0214612D01*
X0280186Y0214573D01*
X0280268Y0214531D01*
X0280349Y0214485D01*
X0280427Y0214436D01*
X0280503Y0214384D01*
X0280577Y0214329D01*
X0280649Y0214270D01*
X0280718Y0214209D01*
X0280785Y0214145D01*
X0285716Y0209214D02*
X0285767Y0209160D01*
X0285815Y0209104D01*
X0285860Y0209045D01*
X0285902Y0208984D01*
X0285941Y0208921D01*
X0285976Y0208856D01*
X0286008Y0208789D01*
X0286036Y0208721D01*
X0286061Y0208651D01*
X0286082Y0208580D01*
X0286099Y0208508D01*
X0286113Y0208435D01*
X0286122Y0208362D01*
X0286128Y0208288D01*
X0286130Y0208214D01*
X0295204Y0154726D02*
X0295279Y0154648D01*
X0295351Y0154568D01*
X0295421Y0154485D01*
X0295487Y0154401D01*
X0295551Y0154313D01*
X0295612Y0154224D01*
X0295670Y0154133D01*
X0295724Y0154040D01*
X0295775Y0153945D01*
X0295824Y0153848D01*
X0295868Y0153750D01*
X0295910Y0153650D01*
X0295947Y0153549D01*
X0295982Y0153447D01*
X0296013Y0153343D01*
X0296040Y0153239D01*
X0296064Y0153133D01*
X0296084Y0153027D01*
X0296101Y0152921D01*
X0296113Y0152813D01*
X0296123Y0152706D01*
X0296128Y0152598D01*
X0296130Y0152490D01*
X0282193Y0150550D02*
X0282195Y0150675D01*
X0282201Y0150800D01*
X0282211Y0150924D01*
X0282225Y0151048D01*
X0282242Y0151172D01*
X0282264Y0151295D01*
X0282290Y0151417D01*
X0282319Y0151539D01*
X0282352Y0151659D01*
X0282390Y0151778D01*
X0282430Y0151897D01*
X0282475Y0152013D01*
X0282523Y0152128D01*
X0282575Y0152242D01*
X0282631Y0152354D01*
X0282690Y0152464D01*
X0282752Y0152572D01*
X0282818Y0152679D01*
X0282887Y0152783D01*
X0282960Y0152884D01*
X0283035Y0152984D01*
X0283114Y0153081D01*
X0283196Y0153175D01*
X0283281Y0153267D01*
X0283368Y0153356D01*
X0283459Y0153442D01*
X0283552Y0153525D01*
X0283648Y0153606D01*
X0283746Y0153683D01*
X0283846Y0153757D01*
X0283949Y0153828D01*
X0284054Y0153895D01*
X0284162Y0153960D01*
X0284271Y0154020D01*
X0284382Y0154078D01*
X0284495Y0154131D01*
X0284609Y0154181D01*
X0284725Y0154228D01*
X0284842Y0154270D01*
X0284961Y0154309D01*
X0285081Y0154345D01*
X0285202Y0154376D01*
X0285324Y0154404D01*
X0285446Y0154427D01*
X0285570Y0154447D01*
X0285694Y0154463D01*
X0285818Y0154475D01*
X0285943Y0154483D01*
X0286068Y0154487D01*
X0286192Y0154487D01*
X0286317Y0154483D01*
X0286442Y0154475D01*
X0286566Y0154463D01*
X0286690Y0154447D01*
X0286814Y0154427D01*
X0286936Y0154404D01*
X0287058Y0154376D01*
X0287179Y0154345D01*
X0287299Y0154309D01*
X0287418Y0154270D01*
X0287535Y0154228D01*
X0287651Y0154181D01*
X0287765Y0154131D01*
X0287878Y0154078D01*
X0287989Y0154020D01*
X0288099Y0153960D01*
X0288206Y0153895D01*
X0288311Y0153828D01*
X0288414Y0153757D01*
X0288514Y0153683D01*
X0288612Y0153606D01*
X0288708Y0153525D01*
X0288801Y0153442D01*
X0288892Y0153356D01*
X0288979Y0153267D01*
X0289064Y0153175D01*
X0289146Y0153081D01*
X0289225Y0152984D01*
X0289300Y0152884D01*
X0289373Y0152783D01*
X0289442Y0152679D01*
X0289508Y0152572D01*
X0289570Y0152464D01*
X0289629Y0152354D01*
X0289685Y0152242D01*
X0289737Y0152128D01*
X0289785Y0152013D01*
X0289830Y0151897D01*
X0289870Y0151778D01*
X0289908Y0151659D01*
X0289941Y0151539D01*
X0289970Y0151417D01*
X0289996Y0151295D01*
X0290018Y0151172D01*
X0290035Y0151048D01*
X0290049Y0150924D01*
X0290059Y0150800D01*
X0290065Y0150675D01*
X0290067Y0150550D01*
X0290065Y0150425D01*
X0290059Y0150300D01*
X0290049Y0150176D01*
X0290035Y0150052D01*
X0290018Y0149928D01*
X0289996Y0149805D01*
X0289970Y0149683D01*
X0289941Y0149561D01*
X0289908Y0149441D01*
X0289870Y0149322D01*
X0289830Y0149203D01*
X0289785Y0149087D01*
X0289737Y0148972D01*
X0289685Y0148858D01*
X0289629Y0148746D01*
X0289570Y0148636D01*
X0289508Y0148528D01*
X0289442Y0148421D01*
X0289373Y0148317D01*
X0289300Y0148216D01*
X0289225Y0148116D01*
X0289146Y0148019D01*
X0289064Y0147925D01*
X0288979Y0147833D01*
X0288892Y0147744D01*
X0288801Y0147658D01*
X0288708Y0147575D01*
X0288612Y0147494D01*
X0288514Y0147417D01*
X0288414Y0147343D01*
X0288311Y0147272D01*
X0288206Y0147205D01*
X0288098Y0147140D01*
X0287989Y0147080D01*
X0287878Y0147022D01*
X0287765Y0146969D01*
X0287651Y0146919D01*
X0287535Y0146872D01*
X0287418Y0146830D01*
X0287299Y0146791D01*
X0287179Y0146755D01*
X0287058Y0146724D01*
X0286936Y0146696D01*
X0286814Y0146673D01*
X0286690Y0146653D01*
X0286566Y0146637D01*
X0286442Y0146625D01*
X0286317Y0146617D01*
X0286192Y0146613D01*
X0286068Y0146613D01*
X0285943Y0146617D01*
X0285818Y0146625D01*
X0285694Y0146637D01*
X0285570Y0146653D01*
X0285446Y0146673D01*
X0285324Y0146696D01*
X0285202Y0146724D01*
X0285081Y0146755D01*
X0284961Y0146791D01*
X0284842Y0146830D01*
X0284725Y0146872D01*
X0284609Y0146919D01*
X0284495Y0146969D01*
X0284382Y0147022D01*
X0284271Y0147080D01*
X0284161Y0147140D01*
X0284054Y0147205D01*
X0283949Y0147272D01*
X0283846Y0147343D01*
X0283746Y0147417D01*
X0283648Y0147494D01*
X0283552Y0147575D01*
X0283459Y0147658D01*
X0283368Y0147744D01*
X0283281Y0147833D01*
X0283196Y0147925D01*
X0283114Y0148019D01*
X0283035Y0148116D01*
X0282960Y0148216D01*
X0282887Y0148317D01*
X0282818Y0148421D01*
X0282752Y0148528D01*
X0282690Y0148636D01*
X0282631Y0148746D01*
X0282575Y0148858D01*
X0282523Y0148972D01*
X0282475Y0149087D01*
X0282430Y0149203D01*
X0282390Y0149322D01*
X0282352Y0149441D01*
X0282319Y0149561D01*
X0282290Y0149683D01*
X0282264Y0149805D01*
X0282242Y0149928D01*
X0282225Y0150052D01*
X0282211Y0150176D01*
X0282201Y0150300D01*
X0282195Y0150425D01*
X0282193Y0150550D01*
X0296130Y0025628D02*
X0296128Y0025541D01*
X0296122Y0025454D01*
X0296113Y0025367D01*
X0296100Y0025281D01*
X0296083Y0025195D01*
X0296062Y0025110D01*
X0296037Y0025027D01*
X0296009Y0024944D01*
X0295978Y0024863D01*
X0295943Y0024783D01*
X0295904Y0024705D01*
X0295862Y0024628D01*
X0295817Y0024553D01*
X0295768Y0024481D01*
X0295717Y0024410D01*
X0295662Y0024342D01*
X0295605Y0024277D01*
X0295544Y0024214D01*
X0287056Y0015726D02*
X0286981Y0015648D01*
X0286909Y0015568D01*
X0286839Y0015485D01*
X0286773Y0015401D01*
X0286709Y0015313D01*
X0286648Y0015224D01*
X0286590Y0015133D01*
X0286536Y0015040D01*
X0286485Y0014945D01*
X0286436Y0014848D01*
X0286392Y0014750D01*
X0286350Y0014650D01*
X0286313Y0014549D01*
X0286278Y0014447D01*
X0286247Y0014343D01*
X0286220Y0014239D01*
X0286196Y0014133D01*
X0286176Y0014027D01*
X0286159Y0013921D01*
X0286147Y0013813D01*
X0286137Y0013706D01*
X0286132Y0013598D01*
X0286130Y0013490D01*
D11*
X0081177Y0194800D03*
X0071177Y0194800D03*
X0061177Y0194800D03*
X0061177Y0204800D03*
X0071177Y0204800D03*
X0081177Y0204800D03*
D12*
X0072630Y0039500D03*
X0060830Y0019800D03*
D13*
X0049030Y0039500D03*
D14*
X0049030Y0036500D03*
X0049030Y0042500D03*
X0072630Y0042500D03*
X0072630Y0036500D03*
X0063830Y0019800D03*
X0057830Y0019800D03*
D15*
X0061177Y0184800D03*
X0071177Y0184800D03*
X0081177Y0184800D03*
D16*
X0120130Y0204800D03*
X0130130Y0204800D03*
X0140130Y0204800D03*
X0150130Y0204800D03*
X0160130Y0204800D03*
X0170130Y0204800D03*
X0180130Y0204800D03*
X0190130Y0204800D03*
X0206130Y0204800D03*
X0216130Y0204800D03*
X0226130Y0204800D03*
X0236130Y0204800D03*
X0246130Y0204800D03*
X0256130Y0204800D03*
X0266130Y0204800D03*
X0276130Y0204800D03*
X0276130Y0014800D03*
X0266130Y0014800D03*
X0256130Y0014800D03*
X0246130Y0014800D03*
X0236130Y0014800D03*
X0226130Y0014800D03*
X0206130Y0014800D03*
X0196130Y0014800D03*
X0186130Y0014800D03*
X0176130Y0014800D03*
X0166130Y0014800D03*
X0156130Y0014800D03*
D17*
X0236947Y0073989D02*
X0241447Y0083989D01*
X0246069Y0090800D02*
X0232289Y0090800D01*
X0273947Y0075957D02*
X0278447Y0085957D01*
X0287447Y0085957D02*
X0282947Y0075957D01*
D18*
X0282947Y0075957D03*
X0273947Y0075957D03*
X0278447Y0085957D03*
X0287447Y0085957D03*
X0246069Y0090800D03*
X0241447Y0083989D03*
X0232289Y0090800D03*
X0236947Y0073989D03*
D19*
X0138680Y0031050D03*
X0113080Y0031050D03*
D20*
X0117881Y0026447D02*
X0119730Y0028295D01*
X0119730Y0033805D01*
X0115834Y0037700D01*
X0110325Y0037700D01*
X0106430Y0033805D01*
X0106430Y0028295D01*
X0108279Y0026447D01*
X0106287Y0026447D01*
X0080277Y0052457D01*
X0080277Y0079868D01*
X0080471Y0080336D01*
X0080471Y0081764D01*
X0080277Y0082232D01*
X0080277Y0108726D01*
X0080080Y0109201D01*
X0080080Y0110893D01*
X0080471Y0111836D01*
X0080471Y0112934D01*
X0083578Y0109826D01*
X0082586Y0108834D01*
X0082039Y0107514D01*
X0082039Y0106086D01*
X0082430Y0105143D01*
X0082430Y0069163D01*
X0082917Y0067987D01*
X0090667Y0060237D01*
X0091567Y0059337D01*
X0092743Y0058850D01*
X0105555Y0058850D01*
X0121446Y0042959D01*
X0121836Y0042016D01*
X0122846Y0041006D01*
X0124166Y0040459D01*
X0125594Y0040459D01*
X0126914Y0041006D01*
X0127924Y0042016D01*
X0128471Y0043336D01*
X0128471Y0044764D01*
X0127924Y0046084D01*
X0126914Y0047094D01*
X0125971Y0047484D01*
X0110002Y0063453D01*
X0152397Y0063453D01*
X0153351Y0063848D01*
X0154081Y0064579D01*
X0156081Y0066579D01*
X0156477Y0067533D01*
X0156477Y0073567D01*
X0156375Y0073812D01*
X0192741Y0037447D01*
X0152204Y0037447D01*
X0150956Y0036930D01*
X0150000Y0035974D01*
X0145330Y0031304D01*
X0145330Y0033805D01*
X0141434Y0037700D01*
X0135925Y0037700D01*
X0132030Y0033805D01*
X0132030Y0028295D01*
X0133879Y0026447D01*
X0117881Y0026447D01*
X0118209Y0026775D02*
X0133551Y0026775D01*
X0132030Y0028373D02*
X0119730Y0028373D01*
X0119730Y0029972D02*
X0132030Y0029972D01*
X0132030Y0031570D02*
X0119730Y0031570D01*
X0119730Y0033169D02*
X0132030Y0033169D01*
X0132993Y0034767D02*
X0118767Y0034767D01*
X0117169Y0036366D02*
X0134591Y0036366D01*
X0127069Y0041161D02*
X0189026Y0041161D01*
X0190625Y0039563D02*
X0093171Y0039563D01*
X0091573Y0041161D02*
X0122691Y0041161D01*
X0121528Y0042760D02*
X0089974Y0042760D01*
X0088376Y0044358D02*
X0120046Y0044358D01*
X0118448Y0045957D02*
X0086777Y0045957D01*
X0085179Y0047555D02*
X0116849Y0047555D01*
X0115251Y0049154D02*
X0083580Y0049154D01*
X0081982Y0050752D02*
X0113652Y0050752D01*
X0112054Y0052351D02*
X0080383Y0052351D01*
X0080277Y0053949D02*
X0110455Y0053949D01*
X0108857Y0055548D02*
X0080277Y0055548D01*
X0080277Y0057146D02*
X0107258Y0057146D01*
X0105660Y0058745D02*
X0080277Y0058745D01*
X0080277Y0060343D02*
X0090561Y0060343D01*
X0090667Y0060237D02*
X0090667Y0060237D01*
X0088963Y0061942D02*
X0080277Y0061942D01*
X0080277Y0063540D02*
X0087364Y0063540D01*
X0085766Y0065139D02*
X0080277Y0065139D01*
X0080277Y0066737D02*
X0084167Y0066737D01*
X0082773Y0068336D02*
X0080277Y0068336D01*
X0080277Y0069934D02*
X0082430Y0069934D01*
X0082430Y0071533D02*
X0080277Y0071533D01*
X0080277Y0073131D02*
X0082430Y0073131D01*
X0082430Y0074730D02*
X0080277Y0074730D01*
X0080277Y0076328D02*
X0082430Y0076328D01*
X0082430Y0077927D02*
X0080277Y0077927D01*
X0080277Y0079525D02*
X0082430Y0079525D01*
X0082430Y0081124D02*
X0080471Y0081124D01*
X0080277Y0082722D02*
X0082430Y0082722D01*
X0082430Y0084321D02*
X0080277Y0084321D01*
X0080277Y0085920D02*
X0082430Y0085920D01*
X0082430Y0087518D02*
X0080277Y0087518D01*
X0080277Y0089117D02*
X0082430Y0089117D01*
X0082430Y0090715D02*
X0080277Y0090715D01*
X0080277Y0092314D02*
X0082430Y0092314D01*
X0082430Y0093912D02*
X0080277Y0093912D01*
X0080277Y0095511D02*
X0082430Y0095511D01*
X0082430Y0097109D02*
X0080277Y0097109D01*
X0080277Y0098708D02*
X0082430Y0098708D01*
X0082430Y0100306D02*
X0080277Y0100306D01*
X0080277Y0101905D02*
X0082430Y0101905D01*
X0082430Y0103503D02*
X0080277Y0103503D01*
X0080277Y0105102D02*
X0082430Y0105102D01*
X0082039Y0106700D02*
X0080277Y0106700D01*
X0080277Y0108299D02*
X0082364Y0108299D01*
X0083507Y0109897D02*
X0080080Y0109897D01*
X0080330Y0111496D02*
X0081909Y0111496D01*
X0076880Y0112550D02*
X0076880Y0081050D01*
X0066483Y0081124D02*
X0028530Y0081124D01*
X0028530Y0082722D02*
X0066483Y0082722D01*
X0066483Y0084321D02*
X0028530Y0084321D01*
X0028530Y0085920D02*
X0066483Y0085920D01*
X0066483Y0087518D02*
X0028530Y0087518D01*
X0028530Y0089117D02*
X0066483Y0089117D01*
X0066483Y0090715D02*
X0028530Y0090715D01*
X0028530Y0092314D02*
X0066483Y0092314D01*
X0066483Y0092643D02*
X0066483Y0047883D01*
X0062356Y0043756D01*
X0062356Y0035244D01*
X0066665Y0030935D01*
X0067000Y0030126D01*
X0070956Y0026170D01*
X0072204Y0025653D01*
X0085473Y0025653D01*
X0100956Y0010170D01*
X0102204Y0009653D01*
X0145556Y0009653D01*
X0146804Y0010170D01*
X0147760Y0011126D01*
X0150230Y0013596D01*
X0150230Y0012356D01*
X0153686Y0008900D01*
X0158574Y0008900D01*
X0161130Y0011456D01*
X0163686Y0008900D01*
X0168574Y0008900D01*
X0171130Y0011456D01*
X0173686Y0008900D01*
X0178574Y0008900D01*
X0182030Y0012356D01*
X0182030Y0017244D01*
X0180621Y0018653D01*
X0197473Y0018653D01*
X0199483Y0016643D01*
X0199483Y0010374D01*
X0200000Y0009126D01*
X0200956Y0008170D01*
X0202204Y0007653D01*
X0212556Y0007653D01*
X0213804Y0008170D01*
X0214760Y0009126D01*
X0215277Y0010374D01*
X0215277Y0014911D01*
X0217931Y0012257D01*
X0219033Y0011800D01*
X0220786Y0011800D01*
X0223686Y0008900D01*
X0228574Y0008900D01*
X0231130Y0011456D01*
X0233686Y0008900D01*
X0238574Y0008900D01*
X0241130Y0011456D01*
X0243686Y0008900D01*
X0248574Y0008900D01*
X0251130Y0011456D01*
X0253686Y0008900D01*
X0258574Y0008900D01*
X0261130Y0011456D01*
X0263686Y0008900D01*
X0268574Y0008900D01*
X0271130Y0011456D01*
X0273686Y0008900D01*
X0278574Y0008900D01*
X0282030Y0012356D01*
X0282030Y0017244D01*
X0278574Y0020700D01*
X0274473Y0020700D01*
X0261373Y0033800D01*
X0293730Y0033800D01*
X0293730Y0025794D01*
X0293611Y0025676D01*
X0293510Y0025574D01*
X0285022Y0017086D01*
X0284577Y0016641D01*
X0283730Y0014597D01*
X0283730Y0007200D01*
X0028530Y0007200D01*
X0028530Y0212400D01*
X0101840Y0212400D01*
X0101290Y0212172D01*
X0099508Y0210390D01*
X0098543Y0208061D01*
X0098543Y0205539D01*
X0099508Y0203210D01*
X0101290Y0201428D01*
X0103619Y0200463D01*
X0106141Y0200463D01*
X0108470Y0201428D01*
X0110252Y0203210D01*
X0111217Y0205539D01*
X0111217Y0208061D01*
X0110252Y0210390D01*
X0108470Y0212172D01*
X0107920Y0212400D01*
X0279136Y0212400D01*
X0279425Y0212110D01*
X0283681Y0207855D01*
X0283681Y0207855D01*
X0283730Y0207806D01*
X0283730Y0164420D01*
X0284872Y0161664D01*
X0285589Y0160947D01*
X0286026Y0160510D01*
X0286264Y0160272D01*
X0293507Y0153029D01*
X0293602Y0152914D01*
X0293715Y0152639D01*
X0293730Y0152490D01*
X0293730Y0149800D01*
X0292467Y0149800D01*
X0292467Y0151811D01*
X0291502Y0154140D01*
X0289720Y0155922D01*
X0287391Y0156887D01*
X0284869Y0156887D01*
X0282540Y0155922D01*
X0280758Y0154140D01*
X0279793Y0151811D01*
X0279793Y0149800D01*
X0223029Y0149800D01*
X0222900Y0149841D01*
X0222436Y0149800D01*
X0221970Y0149800D01*
X0221887Y0149766D01*
X0221683Y0149792D01*
X0221360Y0149706D01*
X0221027Y0149677D01*
X0220790Y0149553D01*
X0220761Y0149545D01*
X0220493Y0149534D01*
X0220191Y0149392D01*
X0219868Y0149306D01*
X0219655Y0149143D01*
X0219628Y0149130D01*
X0219367Y0149072D01*
X0219093Y0148880D01*
X0218790Y0148739D01*
X0218609Y0148542D01*
X0218585Y0148525D01*
X0218337Y0148422D01*
X0218101Y0148186D01*
X0217827Y0147994D01*
X0217683Y0147768D01*
X0217662Y0147747D01*
X0217436Y0147603D01*
X0217244Y0147329D01*
X0217008Y0147093D01*
X0216905Y0146845D01*
X0216888Y0146821D01*
X0216691Y0146640D01*
X0216549Y0146337D01*
X0216358Y0146063D01*
X0216300Y0145802D01*
X0216287Y0145775D01*
X0216124Y0145562D01*
X0216038Y0145239D01*
X0215896Y0144937D01*
X0215885Y0144669D01*
X0215877Y0144640D01*
X0215753Y0144403D01*
X0215724Y0144070D01*
X0215638Y0143747D01*
X0215664Y0143543D01*
X0215630Y0143460D01*
X0215630Y0142994D01*
X0215589Y0142530D01*
X0215630Y0142401D01*
X0215630Y0113703D01*
X0216087Y0112601D01*
X0220630Y0108057D01*
X0220630Y0073043D01*
X0216087Y0068499D01*
X0215630Y0067397D01*
X0215630Y0041199D01*
X0215589Y0041070D01*
X0215630Y0040606D01*
X0215630Y0040140D01*
X0215664Y0040057D01*
X0215638Y0039853D01*
X0215724Y0039530D01*
X0215753Y0039197D01*
X0215877Y0038960D01*
X0215885Y0038931D01*
X0215896Y0038663D01*
X0216038Y0038361D01*
X0216120Y0038053D01*
X0179583Y0074589D01*
X0180387Y0074922D01*
X0181508Y0076043D01*
X0182108Y0077492D01*
X0185499Y0080883D01*
X0186014Y0082127D01*
X0186014Y0104473D01*
X0185499Y0105717D01*
X0184547Y0106669D01*
X0174514Y0116702D01*
X0174514Y0132973D01*
X0173999Y0134217D01*
X0173459Y0134757D01*
X0174664Y0135256D01*
X0175674Y0136266D01*
X0176221Y0137586D01*
X0176221Y0139014D01*
X0175674Y0140334D01*
X0174664Y0141344D01*
X0173721Y0141734D01*
X0173080Y0142375D01*
X0173080Y0156725D01*
X0174205Y0157850D01*
X0216724Y0157850D01*
X0216735Y0157839D01*
X0218127Y0157263D01*
X0219633Y0157263D01*
X0221025Y0157839D01*
X0222091Y0158905D01*
X0222667Y0160297D01*
X0222667Y0161416D01*
X0230228Y0161416D01*
X0234516Y0157128D01*
X0234919Y0156155D01*
X0235985Y0155089D01*
X0237377Y0154513D01*
X0238883Y0154513D01*
X0240275Y0155089D01*
X0241341Y0156155D01*
X0241917Y0157547D01*
X0241917Y0159053D01*
X0241341Y0160445D01*
X0240275Y0161511D01*
X0239577Y0161800D01*
X0240275Y0162089D01*
X0241341Y0163155D01*
X0241917Y0164547D01*
X0241917Y0166053D01*
X0241341Y0167445D01*
X0240275Y0168511D01*
X0238883Y0169087D01*
X0238868Y0169087D01*
X0233443Y0174513D01*
X0232267Y0175000D01*
X0176955Y0175000D01*
X0176330Y0175625D01*
X0176330Y0176709D01*
X0177344Y0176709D01*
X0178287Y0177100D01*
X0208767Y0177100D01*
X0209943Y0177587D01*
X0228843Y0196487D01*
X0229330Y0197663D01*
X0229330Y0199656D01*
X0231130Y0201456D01*
X0233686Y0198900D01*
X0238574Y0198900D01*
X0241130Y0201456D01*
X0243686Y0198900D01*
X0248574Y0198900D01*
X0251130Y0201456D01*
X0253686Y0198900D01*
X0258574Y0198900D01*
X0261130Y0201456D01*
X0263686Y0198900D01*
X0268574Y0198900D01*
X0271130Y0201456D01*
X0273686Y0198900D01*
X0278574Y0198900D01*
X0282030Y0202356D01*
X0282030Y0207244D01*
X0278574Y0210700D01*
X0273686Y0210700D01*
X0271130Y0208144D01*
X0268574Y0210700D01*
X0263686Y0210700D01*
X0261130Y0208144D01*
X0258574Y0210700D01*
X0253686Y0210700D01*
X0251130Y0208144D01*
X0248574Y0210700D01*
X0243686Y0210700D01*
X0241130Y0208144D01*
X0238574Y0210700D01*
X0233686Y0210700D01*
X0231130Y0208144D01*
X0228574Y0210700D01*
X0223686Y0210700D01*
X0221130Y0208144D01*
X0218574Y0210700D01*
X0213686Y0210700D01*
X0211130Y0208144D01*
X0208574Y0210700D01*
X0203686Y0210700D01*
X0200230Y0207244D01*
X0200230Y0203425D01*
X0196805Y0200000D01*
X0193674Y0200000D01*
X0196030Y0202356D01*
X0196030Y0207244D01*
X0192574Y0210700D01*
X0187686Y0210700D01*
X0185130Y0208144D01*
X0182574Y0210700D01*
X0177686Y0210700D01*
X0175130Y0208144D01*
X0172574Y0210700D01*
X0167686Y0210700D01*
X0165130Y0208144D01*
X0162574Y0210700D01*
X0157686Y0210700D01*
X0155130Y0208144D01*
X0152574Y0210700D01*
X0147686Y0210700D01*
X0145130Y0208144D01*
X0142574Y0210700D01*
X0137686Y0210700D01*
X0134230Y0207244D01*
X0134230Y0202356D01*
X0137686Y0198900D01*
X0142574Y0198900D01*
X0145130Y0201456D01*
X0147686Y0198900D01*
X0149705Y0198900D01*
X0148805Y0198000D01*
X0132493Y0198000D01*
X0131317Y0197513D01*
X0128805Y0195000D01*
X0127721Y0195000D01*
X0127721Y0195514D01*
X0127174Y0196834D01*
X0126164Y0197844D01*
X0124844Y0198391D01*
X0123416Y0198391D01*
X0122096Y0197844D01*
X0122052Y0197800D01*
X0114208Y0197800D01*
X0114164Y0197844D01*
X0112844Y0198391D01*
X0111416Y0198391D01*
X0110096Y0197844D01*
X0109086Y0196834D01*
X0108539Y0195514D01*
X0108539Y0195000D01*
X0103493Y0195000D01*
X0102317Y0194513D01*
X0098330Y0190525D01*
X0098330Y0191437D01*
X0097843Y0192613D01*
X0092943Y0197513D01*
X0091767Y0198000D01*
X0085686Y0198000D01*
X0083435Y0200251D01*
X0080252Y0200251D01*
X0077990Y0202513D01*
X0076814Y0203000D01*
X0076628Y0203000D01*
X0076628Y0207058D01*
X0073435Y0210251D01*
X0068919Y0210251D01*
X0066177Y0207509D01*
X0063435Y0210251D01*
X0058919Y0210251D01*
X0055726Y0207058D01*
X0055726Y0203000D01*
X0035565Y0203000D01*
X0035387Y0203178D01*
X0033923Y0203784D01*
X0032337Y0203784D01*
X0030873Y0203178D01*
X0029752Y0202057D01*
X0029146Y0200593D01*
X0029146Y0199007D01*
X0029752Y0197543D01*
X0030873Y0196422D01*
X0032337Y0195816D01*
X0033923Y0195816D01*
X0035387Y0196422D01*
X0035565Y0196600D01*
X0055726Y0196600D01*
X0055726Y0192542D01*
X0058664Y0189604D01*
X0058118Y0189378D01*
X0056599Y0187859D01*
X0055777Y0185874D01*
X0055777Y0183726D01*
X0056599Y0181741D01*
X0057977Y0180363D01*
X0057977Y0177116D01*
X0058464Y0175940D01*
X0072180Y0162225D01*
X0072180Y0121913D01*
X0072667Y0120737D01*
X0077264Y0116141D01*
X0076166Y0116141D01*
X0074846Y0115594D01*
X0074493Y0115241D01*
X0065118Y0124616D01*
X0070081Y0129579D01*
X0070477Y0130533D01*
X0070477Y0162567D01*
X0070081Y0163521D01*
X0069351Y0164251D01*
X0065351Y0168251D01*
X0064397Y0168647D01*
X0061363Y0168647D01*
X0060409Y0168251D01*
X0059678Y0167521D01*
X0054678Y0162521D01*
X0054283Y0161567D01*
X0054283Y0149126D01*
X0031678Y0126521D01*
X0031283Y0125567D01*
X0031283Y0121465D01*
X0031130Y0121096D01*
X0031130Y0119504D01*
X0031739Y0118034D01*
X0032864Y0116909D01*
X0034334Y0116300D01*
X0035926Y0116300D01*
X0036295Y0116453D01*
X0048483Y0116453D01*
X0048483Y0111374D01*
X0049000Y0110126D01*
X0049956Y0109170D01*
X0066483Y0092643D01*
X0065214Y0093912D02*
X0028530Y0093912D01*
X0028530Y0095511D02*
X0063616Y0095511D01*
X0062017Y0097109D02*
X0028530Y0097109D01*
X0028530Y0098708D02*
X0060419Y0098708D01*
X0058820Y0100306D02*
X0028530Y0100306D01*
X0028530Y0101905D02*
X0057221Y0101905D01*
X0055623Y0103503D02*
X0028530Y0103503D01*
X0028530Y0105102D02*
X0054024Y0105102D01*
X0052426Y0106700D02*
X0028530Y0106700D01*
X0028530Y0108299D02*
X0050827Y0108299D01*
X0049229Y0109897D02*
X0028530Y0109897D01*
X0028530Y0111496D02*
X0048483Y0111496D01*
X0048483Y0113094D02*
X0028530Y0113094D01*
X0028530Y0114693D02*
X0048483Y0114693D01*
X0048483Y0116291D02*
X0028530Y0116291D01*
X0028530Y0117890D02*
X0031883Y0117890D01*
X0031137Y0119488D02*
X0028530Y0119488D01*
X0028530Y0121087D02*
X0031130Y0121087D01*
X0031283Y0122685D02*
X0028530Y0122685D01*
X0028530Y0124284D02*
X0031283Y0124284D01*
X0031414Y0125882D02*
X0028530Y0125882D01*
X0028530Y0127481D02*
X0032638Y0127481D01*
X0034237Y0129079D02*
X0028530Y0129079D01*
X0028530Y0130678D02*
X0035835Y0130678D01*
X0037434Y0132276D02*
X0028530Y0132276D01*
X0028530Y0133875D02*
X0039032Y0133875D01*
X0040631Y0135473D02*
X0028530Y0135473D01*
X0028530Y0137072D02*
X0042229Y0137072D01*
X0043828Y0138670D02*
X0028530Y0138670D01*
X0028530Y0140269D02*
X0045426Y0140269D01*
X0047025Y0141867D02*
X0028530Y0141867D01*
X0028530Y0143466D02*
X0042349Y0143466D01*
X0042417Y0143438D02*
X0044008Y0143438D01*
X0045478Y0144047D01*
X0046604Y0145172D01*
X0047213Y0146642D01*
X0047213Y0148233D01*
X0046604Y0149704D01*
X0045478Y0150829D01*
X0044008Y0151438D01*
X0042417Y0151438D01*
X0040947Y0150829D01*
X0039822Y0149704D01*
X0039213Y0148233D01*
X0039213Y0146642D01*
X0039822Y0145172D01*
X0040947Y0144047D01*
X0042417Y0143438D01*
X0044076Y0143466D02*
X0048623Y0143466D01*
X0050222Y0145064D02*
X0046496Y0145064D01*
X0047213Y0146663D02*
X0051820Y0146663D01*
X0053419Y0148261D02*
X0047201Y0148261D01*
X0046447Y0149860D02*
X0054283Y0149860D01*
X0054283Y0151458D02*
X0028530Y0151458D01*
X0028530Y0149860D02*
X0039978Y0149860D01*
X0039224Y0148261D02*
X0028530Y0148261D01*
X0028530Y0146663D02*
X0039213Y0146663D01*
X0039929Y0145064D02*
X0028530Y0145064D01*
X0028530Y0153057D02*
X0054283Y0153057D01*
X0054283Y0154655D02*
X0028530Y0154655D01*
X0028530Y0156254D02*
X0054283Y0156254D01*
X0054283Y0157853D02*
X0028530Y0157853D01*
X0028530Y0159451D02*
X0054283Y0159451D01*
X0054283Y0161050D02*
X0044706Y0161050D01*
X0044008Y0160761D02*
X0045478Y0161370D01*
X0046604Y0162495D01*
X0047213Y0163965D01*
X0047213Y0165556D01*
X0046604Y0167026D01*
X0045478Y0168152D01*
X0044008Y0168761D01*
X0042417Y0168761D01*
X0040947Y0168152D01*
X0039822Y0167026D01*
X0039213Y0165556D01*
X0039213Y0163965D01*
X0039822Y0162495D01*
X0040947Y0161370D01*
X0042417Y0160761D01*
X0044008Y0160761D01*
X0041720Y0161050D02*
X0028530Y0161050D01*
X0028530Y0162648D02*
X0039758Y0162648D01*
X0039213Y0164247D02*
X0028530Y0164247D01*
X0028530Y0165845D02*
X0039332Y0165845D01*
X0040239Y0167444D02*
X0028530Y0167444D01*
X0028530Y0169042D02*
X0065362Y0169042D01*
X0066159Y0167444D02*
X0066961Y0167444D01*
X0067757Y0165845D02*
X0068559Y0165845D01*
X0069356Y0164247D02*
X0070158Y0164247D01*
X0070443Y0162648D02*
X0071756Y0162648D01*
X0072180Y0161050D02*
X0070477Y0161050D01*
X0070477Y0159451D02*
X0072180Y0159451D01*
X0072180Y0157853D02*
X0070477Y0157853D01*
X0070477Y0156254D02*
X0072180Y0156254D01*
X0072180Y0154655D02*
X0070477Y0154655D01*
X0070477Y0153057D02*
X0072180Y0153057D01*
X0072180Y0151458D02*
X0070477Y0151458D01*
X0070477Y0149860D02*
X0072180Y0149860D01*
X0072180Y0148261D02*
X0070477Y0148261D01*
X0070477Y0146663D02*
X0072180Y0146663D01*
X0072180Y0145064D02*
X0070477Y0145064D01*
X0070477Y0143466D02*
X0072180Y0143466D01*
X0072180Y0141867D02*
X0070477Y0141867D01*
X0070477Y0140269D02*
X0072180Y0140269D01*
X0072180Y0138670D02*
X0070477Y0138670D01*
X0070477Y0137072D02*
X0072180Y0137072D01*
X0072180Y0135473D02*
X0070477Y0135473D01*
X0070477Y0133875D02*
X0072180Y0133875D01*
X0072180Y0132276D02*
X0070477Y0132276D01*
X0070477Y0130678D02*
X0072180Y0130678D01*
X0072180Y0129079D02*
X0069582Y0129079D01*
X0067983Y0127481D02*
X0072180Y0127481D01*
X0072180Y0125882D02*
X0066385Y0125882D01*
X0065450Y0124284D02*
X0072180Y0124284D01*
X0072180Y0122685D02*
X0067049Y0122685D01*
X0068647Y0121087D02*
X0072522Y0121087D01*
X0073916Y0119488D02*
X0070246Y0119488D01*
X0071844Y0117890D02*
X0075515Y0117890D01*
X0077113Y0116291D02*
X0073443Y0116291D01*
X0075380Y0122550D02*
X0094630Y0103300D01*
X0095630Y0103300D01*
X0098938Y0101905D02*
X0116657Y0101905D01*
X0116336Y0101584D02*
X0115789Y0100264D01*
X0115789Y0098836D01*
X0116336Y0097516D01*
X0117346Y0096506D01*
X0118666Y0095959D01*
X0120094Y0095959D01*
X0121037Y0096350D01*
X0124508Y0096350D01*
X0121804Y0093647D01*
X0107287Y0093647D01*
X0107183Y0093680D01*
X0106774Y0093647D01*
X0106363Y0093647D01*
X0106262Y0093605D01*
X0106153Y0093596D01*
X0105788Y0093408D01*
X0105409Y0093251D01*
X0105332Y0093174D01*
X0105234Y0093124D01*
X0104969Y0092811D01*
X0104678Y0092521D01*
X0104637Y0092420D01*
X0104343Y0092073D01*
X0102985Y0091511D01*
X0101919Y0090445D01*
X0101343Y0089053D01*
X0101343Y0088538D01*
X0100986Y0088117D01*
X0094477Y0094626D01*
X0094477Y0099891D01*
X0094916Y0099709D01*
X0096344Y0099709D01*
X0097664Y0100256D01*
X0098674Y0101266D01*
X0099221Y0102586D01*
X0099221Y0104014D01*
X0098674Y0105334D01*
X0097664Y0106344D01*
X0097649Y0106350D01*
X0114517Y0106350D01*
X0115693Y0106837D01*
X0116593Y0107737D01*
X0122205Y0113350D01*
X0137517Y0113350D01*
X0138693Y0113837D01*
X0139593Y0114737D01*
X0142471Y0117616D01*
X0143414Y0118006D01*
X0144424Y0119016D01*
X0144971Y0120336D01*
X0144971Y0121764D01*
X0144424Y0123084D01*
X0144208Y0123300D01*
X0144424Y0123516D01*
X0144971Y0124836D01*
X0144971Y0126264D01*
X0144424Y0127584D01*
X0144048Y0127959D01*
X0145094Y0127959D01*
X0146414Y0128506D01*
X0147298Y0129390D01*
X0149630Y0127057D01*
X0149630Y0081203D01*
X0149793Y0080809D01*
X0149477Y0081126D01*
X0149477Y0101567D01*
X0149081Y0102521D01*
X0148351Y0103251D01*
X0145351Y0106251D01*
X0144397Y0106647D01*
X0140055Y0106647D01*
X0140674Y0107266D01*
X0141221Y0108586D01*
X0141221Y0110014D01*
X0140674Y0111334D01*
X0139664Y0112344D01*
X0138344Y0112891D01*
X0136916Y0112891D01*
X0135596Y0112344D01*
X0134586Y0111334D01*
X0134196Y0110391D01*
X0126555Y0102750D01*
X0121037Y0102750D01*
X0120094Y0103141D01*
X0118666Y0103141D01*
X0117346Y0102594D01*
X0116336Y0101584D01*
X0115807Y0100306D02*
X0097714Y0100306D01*
X0099221Y0103503D02*
X0127308Y0103503D01*
X0128906Y0105102D02*
X0098770Y0105102D01*
X0093380Y0109550D02*
X0083130Y0119800D01*
X0083130Y0129800D01*
X0078630Y0134300D01*
X0078630Y0165300D01*
X0066130Y0177800D01*
X0066130Y0189847D01*
X0061177Y0194800D01*
X0055726Y0194618D02*
X0028530Y0194618D01*
X0028530Y0193020D02*
X0055726Y0193020D01*
X0056847Y0191421D02*
X0028530Y0191421D01*
X0028530Y0189823D02*
X0058445Y0189823D01*
X0056965Y0188224D02*
X0028530Y0188224D01*
X0028530Y0186626D02*
X0056089Y0186626D01*
X0055777Y0185027D02*
X0028530Y0185027D01*
X0028530Y0183429D02*
X0055900Y0183429D01*
X0056562Y0181830D02*
X0028530Y0181830D01*
X0028530Y0180232D02*
X0057977Y0180232D01*
X0057977Y0178633D02*
X0028530Y0178633D01*
X0028530Y0177035D02*
X0058011Y0177035D01*
X0058968Y0175436D02*
X0028530Y0175436D01*
X0028530Y0173838D02*
X0060567Y0173838D01*
X0062165Y0172239D02*
X0028530Y0172239D01*
X0028530Y0170641D02*
X0063764Y0170641D01*
X0059601Y0167444D02*
X0046187Y0167444D01*
X0047093Y0165845D02*
X0058003Y0165845D01*
X0056404Y0164247D02*
X0047213Y0164247D01*
X0046667Y0162648D02*
X0054806Y0162648D01*
X0061177Y0177753D02*
X0075380Y0163550D01*
X0075380Y0122550D01*
X0086380Y0121050D02*
X0086380Y0132050D01*
X0085130Y0133300D01*
X0084630Y0133300D01*
X0081630Y0136300D01*
X0081630Y0167300D01*
X0071130Y0177800D01*
X0071177Y0182753D02*
X0084630Y0169300D01*
X0084630Y0138300D01*
X0089130Y0133800D01*
X0089130Y0122800D01*
X0096130Y0115800D01*
X0099130Y0115800D01*
X0094880Y0112550D02*
X0086380Y0121050D01*
X0091630Y0125800D02*
X0097630Y0119800D01*
X0099880Y0122800D02*
X0096880Y0125800D01*
X0096880Y0142550D01*
X0094380Y0145050D01*
X0094380Y0171597D01*
X0081177Y0184800D01*
X0076130Y0182800D02*
X0091130Y0167800D01*
X0091130Y0140800D01*
X0088130Y0139300D02*
X0091630Y0135800D01*
X0091630Y0125800D01*
X0099880Y0127550D02*
X0099880Y0143550D01*
X0097130Y0146300D01*
X0097130Y0172587D01*
X0095130Y0174587D01*
X0095130Y0190800D01*
X0091130Y0194800D01*
X0081177Y0194800D01*
X0076177Y0199800D01*
X0033130Y0199800D01*
X0034891Y0196217D02*
X0055726Y0196217D01*
X0055726Y0204209D02*
X0028530Y0204209D01*
X0028530Y0202611D02*
X0030306Y0202611D01*
X0029320Y0201012D02*
X0028530Y0201012D01*
X0028530Y0199414D02*
X0029146Y0199414D01*
X0029640Y0197815D02*
X0028530Y0197815D01*
X0028530Y0196217D02*
X0031369Y0196217D01*
X0028530Y0205808D02*
X0055726Y0205808D01*
X0056074Y0207406D02*
X0028530Y0207406D01*
X0028530Y0209005D02*
X0057673Y0209005D01*
X0064681Y0209005D02*
X0067673Y0209005D01*
X0074681Y0209005D02*
X0098934Y0209005D01*
X0098543Y0207406D02*
X0076280Y0207406D01*
X0076628Y0205808D02*
X0098543Y0205808D01*
X0099094Y0204209D02*
X0076628Y0204209D01*
X0077753Y0202611D02*
X0100107Y0202611D01*
X0102293Y0201012D02*
X0079490Y0201012D01*
X0084273Y0199414D02*
X0117172Y0199414D01*
X0117686Y0198900D02*
X0114230Y0202356D01*
X0114230Y0207244D01*
X0117686Y0210700D01*
X0122574Y0210700D01*
X0126030Y0207244D01*
X0126030Y0202356D01*
X0122574Y0198900D01*
X0117686Y0198900D01*
X0115574Y0201012D02*
X0107467Y0201012D01*
X0109653Y0202611D02*
X0114230Y0202611D01*
X0114230Y0204209D02*
X0110666Y0204209D01*
X0111217Y0205808D02*
X0114230Y0205808D01*
X0114393Y0207406D02*
X0111217Y0207406D01*
X0110826Y0209005D02*
X0115991Y0209005D01*
X0117590Y0210603D02*
X0110038Y0210603D01*
X0108398Y0212202D02*
X0279334Y0212202D01*
X0279425Y0212110D02*
X0279425Y0212110D01*
X0278670Y0210603D02*
X0280932Y0210603D01*
X0280269Y0209005D02*
X0282531Y0209005D01*
X0281867Y0207406D02*
X0283730Y0207406D01*
X0283730Y0205808D02*
X0282030Y0205808D01*
X0282030Y0204209D02*
X0283730Y0204209D01*
X0283730Y0202611D02*
X0282030Y0202611D01*
X0280686Y0201012D02*
X0283730Y0201012D01*
X0283730Y0199414D02*
X0279088Y0199414D01*
X0283730Y0197815D02*
X0229330Y0197815D01*
X0229330Y0199414D02*
X0233172Y0199414D01*
X0231574Y0201012D02*
X0230686Y0201012D01*
X0226130Y0198300D02*
X0208130Y0180300D01*
X0176630Y0180300D01*
X0178129Y0177035D02*
X0283730Y0177035D01*
X0283730Y0178633D02*
X0210989Y0178633D01*
X0212587Y0180232D02*
X0283730Y0180232D01*
X0283730Y0181830D02*
X0214186Y0181830D01*
X0215784Y0183429D02*
X0283730Y0183429D01*
X0283730Y0185027D02*
X0217383Y0185027D01*
X0218981Y0186626D02*
X0283730Y0186626D01*
X0283730Y0188224D02*
X0220580Y0188224D01*
X0222178Y0189823D02*
X0283730Y0189823D01*
X0283730Y0191421D02*
X0223777Y0191421D01*
X0225375Y0193020D02*
X0283730Y0193020D01*
X0283730Y0194618D02*
X0226974Y0194618D01*
X0228572Y0196217D02*
X0283730Y0196217D01*
X0273172Y0199414D02*
X0269088Y0199414D01*
X0270686Y0201012D02*
X0271574Y0201012D01*
X0271991Y0209005D02*
X0270269Y0209005D01*
X0268670Y0210603D02*
X0273590Y0210603D01*
X0263590Y0210603D02*
X0258670Y0210603D01*
X0260269Y0209005D02*
X0261991Y0209005D01*
X0253590Y0210603D02*
X0248670Y0210603D01*
X0250269Y0209005D02*
X0251991Y0209005D01*
X0251574Y0201012D02*
X0250686Y0201012D01*
X0249088Y0199414D02*
X0253172Y0199414D01*
X0259088Y0199414D02*
X0263172Y0199414D01*
X0261574Y0201012D02*
X0260686Y0201012D01*
X0243172Y0199414D02*
X0239088Y0199414D01*
X0240686Y0201012D02*
X0241574Y0201012D01*
X0241991Y0209005D02*
X0240269Y0209005D01*
X0238670Y0210603D02*
X0243590Y0210603D01*
X0233590Y0210603D02*
X0228670Y0210603D01*
X0230269Y0209005D02*
X0231991Y0209005D01*
X0226130Y0204800D02*
X0226130Y0198300D01*
X0222930Y0199625D02*
X0206805Y0183500D01*
X0178287Y0183500D01*
X0177344Y0183891D01*
X0176330Y0183891D01*
X0176330Y0186346D01*
X0176381Y0186521D01*
X0176330Y0186977D01*
X0176330Y0187437D01*
X0176260Y0187605D01*
X0176240Y0187786D01*
X0176019Y0188188D01*
X0175843Y0188613D01*
X0175714Y0188742D01*
X0175626Y0188901D01*
X0175267Y0189188D01*
X0174943Y0189513D01*
X0174774Y0189583D01*
X0172767Y0191188D01*
X0172443Y0191513D01*
X0172274Y0191583D01*
X0172132Y0191696D01*
X0171691Y0191824D01*
X0171267Y0192000D01*
X0171084Y0192000D01*
X0170909Y0192051D01*
X0170453Y0192000D01*
X0157855Y0192000D01*
X0159455Y0193600D01*
X0198767Y0193600D01*
X0199943Y0194087D01*
X0200843Y0194987D01*
X0204755Y0198900D01*
X0208574Y0198900D01*
X0211130Y0201456D01*
X0213686Y0198900D01*
X0218574Y0198900D01*
X0221130Y0201456D01*
X0222930Y0199656D01*
X0222930Y0199625D01*
X0222718Y0199414D02*
X0219088Y0199414D01*
X0220686Y0201012D02*
X0221574Y0201012D01*
X0221120Y0197815D02*
X0203671Y0197815D01*
X0202072Y0196217D02*
X0219521Y0196217D01*
X0217923Y0194618D02*
X0200474Y0194618D01*
X0198130Y0196800D02*
X0158130Y0196800D01*
X0153130Y0191800D01*
X0135130Y0191800D01*
X0132130Y0188800D01*
X0105630Y0188800D01*
X0101130Y0184300D01*
X0101130Y0177800D01*
X0103130Y0175800D01*
X0103130Y0173800D01*
X0100130Y0173800D02*
X0100130Y0147800D01*
X0103380Y0144550D01*
X0103380Y0130050D01*
X0103130Y0129800D01*
X0099880Y0127550D02*
X0101630Y0125800D01*
X0103130Y0125800D01*
X0105880Y0122800D02*
X0099880Y0122800D01*
X0105880Y0122800D02*
X0108380Y0120300D01*
X0114880Y0120300D01*
X0118380Y0123800D01*
X0126630Y0123800D01*
X0126630Y0130300D01*
X0130880Y0134550D01*
X0141880Y0134550D01*
X0144380Y0131550D02*
X0133380Y0131550D01*
X0130630Y0128800D01*
X0130630Y0123800D01*
X0135380Y0119550D02*
X0141380Y0125550D01*
X0144467Y0127481D02*
X0149207Y0127481D01*
X0149630Y0125882D02*
X0144971Y0125882D01*
X0144742Y0124284D02*
X0149630Y0124284D01*
X0149630Y0122685D02*
X0144589Y0122685D01*
X0144971Y0121087D02*
X0149630Y0121087D01*
X0149630Y0119488D02*
X0144619Y0119488D01*
X0143133Y0117890D02*
X0149630Y0117890D01*
X0149630Y0116291D02*
X0141147Y0116291D01*
X0139548Y0114693D02*
X0149630Y0114693D01*
X0149630Y0113094D02*
X0121950Y0113094D01*
X0120351Y0111496D02*
X0134748Y0111496D01*
X0133702Y0109897D02*
X0118753Y0109897D01*
X0117154Y0108299D02*
X0132103Y0108299D01*
X0130505Y0106700D02*
X0115362Y0106700D01*
X0113880Y0109550D02*
X0093380Y0109550D01*
X0094880Y0112550D02*
X0112380Y0112550D01*
X0119380Y0119550D01*
X0135380Y0119550D01*
X0136880Y0116550D02*
X0120880Y0116550D01*
X0113880Y0109550D01*
X0115843Y0098708D02*
X0094477Y0098708D01*
X0094477Y0097109D02*
X0116743Y0097109D01*
X0119380Y0099550D02*
X0127880Y0099550D01*
X0137630Y0109300D01*
X0140108Y0106700D02*
X0149630Y0106700D01*
X0149630Y0105102D02*
X0146501Y0105102D01*
X0148099Y0103503D02*
X0149630Y0103503D01*
X0149630Y0101905D02*
X0149337Y0101905D01*
X0149477Y0100306D02*
X0149630Y0100306D01*
X0149630Y0098708D02*
X0149477Y0098708D01*
X0149477Y0097109D02*
X0149630Y0097109D01*
X0149630Y0095511D02*
X0149477Y0095511D01*
X0149477Y0093912D02*
X0149630Y0093912D01*
X0149630Y0092314D02*
X0149477Y0092314D01*
X0149477Y0090715D02*
X0149630Y0090715D01*
X0149630Y0089117D02*
X0149477Y0089117D01*
X0149477Y0087518D02*
X0149630Y0087518D01*
X0149630Y0085920D02*
X0149477Y0085920D01*
X0149477Y0084321D02*
X0149630Y0084321D01*
X0149630Y0084300D02*
X0149630Y0080300D01*
X0157880Y0072050D01*
X0157880Y0068050D01*
X0156130Y0066300D01*
X0156130Y0061060D01*
X0152607Y0063540D02*
X0166647Y0063540D01*
X0168246Y0061942D02*
X0111514Y0061942D01*
X0113112Y0060343D02*
X0169844Y0060343D01*
X0171443Y0058745D02*
X0114711Y0058745D01*
X0116309Y0057146D02*
X0173041Y0057146D01*
X0174640Y0055548D02*
X0117908Y0055548D01*
X0119506Y0053949D02*
X0176238Y0053949D01*
X0177837Y0052351D02*
X0121105Y0052351D01*
X0122703Y0050752D02*
X0179435Y0050752D01*
X0181034Y0049154D02*
X0124302Y0049154D01*
X0125900Y0047555D02*
X0182632Y0047555D01*
X0184231Y0045957D02*
X0127977Y0045957D01*
X0128471Y0044358D02*
X0185829Y0044358D01*
X0187428Y0042760D02*
X0128232Y0042760D01*
X0124880Y0044050D02*
X0106880Y0062050D01*
X0093380Y0062050D01*
X0085630Y0069800D01*
X0085630Y0106800D01*
X0094477Y0095511D02*
X0123668Y0095511D01*
X0122070Y0093912D02*
X0095190Y0093912D01*
X0096789Y0092314D02*
X0104546Y0092314D01*
X0102189Y0090715D02*
X0098387Y0090715D01*
X0099986Y0089117D02*
X0101369Y0089117D01*
X0105130Y0088300D02*
X0105130Y0086300D01*
X0116630Y0074800D01*
X0110630Y0068800D01*
X0095630Y0068800D01*
X0090283Y0069672D02*
X0088830Y0071125D01*
X0088830Y0084428D01*
X0093713Y0079545D01*
X0090969Y0076311D01*
X0090678Y0076021D01*
X0090637Y0075920D01*
X0090566Y0075836D01*
X0090440Y0075446D01*
X0090283Y0075067D01*
X0090283Y0074957D01*
X0090250Y0074853D01*
X0090283Y0074444D01*
X0090283Y0069672D01*
X0090283Y0069934D02*
X0090021Y0069934D01*
X0090283Y0071533D02*
X0088830Y0071533D01*
X0088830Y0073131D02*
X0090283Y0073131D01*
X0090260Y0074730D02*
X0088830Y0074730D01*
X0088830Y0076328D02*
X0090983Y0076328D01*
X0092340Y0077927D02*
X0088830Y0077927D01*
X0088830Y0079525D02*
X0093696Y0079525D01*
X0092134Y0081124D02*
X0088830Y0081124D01*
X0088830Y0082722D02*
X0090535Y0082722D01*
X0088937Y0084321D02*
X0088830Y0084321D01*
X0066483Y0079525D02*
X0028530Y0079525D01*
X0028530Y0077927D02*
X0066483Y0077927D01*
X0066483Y0076328D02*
X0028530Y0076328D01*
X0028530Y0074730D02*
X0066483Y0074730D01*
X0066483Y0073131D02*
X0028530Y0073131D01*
X0028530Y0071533D02*
X0066483Y0071533D01*
X0066483Y0069934D02*
X0028530Y0069934D01*
X0028530Y0068336D02*
X0066483Y0068336D01*
X0066483Y0066737D02*
X0028530Y0066737D01*
X0028530Y0065139D02*
X0066483Y0065139D01*
X0066483Y0063540D02*
X0028530Y0063540D01*
X0028530Y0061942D02*
X0066483Y0061942D01*
X0066483Y0060343D02*
X0028530Y0060343D01*
X0028530Y0058745D02*
X0066483Y0058745D01*
X0066483Y0057146D02*
X0028530Y0057146D01*
X0028530Y0055548D02*
X0066483Y0055548D01*
X0066483Y0053949D02*
X0028530Y0053949D01*
X0028530Y0052351D02*
X0066483Y0052351D01*
X0066483Y0050752D02*
X0028530Y0050752D01*
X0028530Y0049154D02*
X0066483Y0049154D01*
X0066156Y0047555D02*
X0052797Y0047555D01*
X0052564Y0047789D02*
X0050271Y0048739D01*
X0047789Y0048739D01*
X0045496Y0047789D01*
X0043741Y0046034D01*
X0042791Y0043741D01*
X0042791Y0041259D01*
X0043520Y0039500D01*
X0042791Y0037741D01*
X0042791Y0035259D01*
X0043741Y0032966D01*
X0045496Y0031211D01*
X0047789Y0030261D01*
X0050271Y0030261D01*
X0052564Y0031211D01*
X0054319Y0032966D01*
X0055269Y0035259D01*
X0055269Y0037741D01*
X0054540Y0039500D01*
X0055269Y0041259D01*
X0055269Y0043741D01*
X0054319Y0046034D01*
X0052564Y0047789D01*
X0054351Y0045957D02*
X0064557Y0045957D01*
X0062959Y0044358D02*
X0055013Y0044358D01*
X0055269Y0042760D02*
X0062356Y0042760D01*
X0062356Y0041161D02*
X0055228Y0041161D01*
X0054566Y0039563D02*
X0062356Y0039563D01*
X0062356Y0037964D02*
X0055176Y0037964D01*
X0055269Y0036366D02*
X0062356Y0036366D01*
X0062833Y0034767D02*
X0055065Y0034767D01*
X0054403Y0033169D02*
X0064432Y0033169D01*
X0066030Y0031570D02*
X0052923Y0031570D01*
X0054296Y0025089D02*
X0056589Y0026039D01*
X0059071Y0026039D01*
X0060830Y0025310D01*
X0062589Y0026039D01*
X0065071Y0026039D01*
X0067364Y0025089D01*
X0069119Y0023334D01*
X0070069Y0021041D01*
X0070069Y0018559D01*
X0069119Y0016266D01*
X0067364Y0014511D01*
X0065071Y0013561D01*
X0062589Y0013561D01*
X0060830Y0014290D01*
X0059071Y0013561D01*
X0056589Y0013561D01*
X0054296Y0014511D01*
X0052541Y0016266D01*
X0051591Y0018559D01*
X0051591Y0021041D01*
X0052541Y0023334D01*
X0054296Y0025089D01*
X0054507Y0025176D02*
X0028530Y0025176D01*
X0028530Y0023578D02*
X0052785Y0023578D01*
X0051980Y0021979D02*
X0028530Y0021979D01*
X0028530Y0020381D02*
X0051591Y0020381D01*
X0051591Y0018782D02*
X0028530Y0018782D01*
X0028530Y0017184D02*
X0052161Y0017184D01*
X0053222Y0015585D02*
X0028530Y0015585D01*
X0028530Y0013987D02*
X0055563Y0013987D01*
X0060097Y0013987D02*
X0061563Y0013987D01*
X0066097Y0013987D02*
X0079793Y0013987D01*
X0079793Y0013539D02*
X0079793Y0016061D01*
X0080758Y0018390D01*
X0082540Y0020172D01*
X0084869Y0021137D01*
X0087391Y0021137D01*
X0089720Y0020172D01*
X0091502Y0018390D01*
X0092467Y0016061D01*
X0092467Y0013539D01*
X0091502Y0011210D01*
X0089720Y0009428D01*
X0087391Y0008463D01*
X0084869Y0008463D01*
X0082540Y0009428D01*
X0080758Y0011210D01*
X0079793Y0013539D01*
X0080270Y0012388D02*
X0028530Y0012388D01*
X0028530Y0010789D02*
X0081179Y0010789D01*
X0083112Y0009191D02*
X0028530Y0009191D01*
X0028530Y0007592D02*
X0283730Y0007592D01*
X0283730Y0009191D02*
X0278865Y0009191D01*
X0280463Y0010789D02*
X0283730Y0010789D01*
X0283730Y0012388D02*
X0282030Y0012388D01*
X0282030Y0013987D02*
X0283730Y0013987D01*
X0284139Y0015585D02*
X0282030Y0015585D01*
X0282030Y0017184D02*
X0285119Y0017184D01*
X0285022Y0017086D02*
X0285022Y0017086D01*
X0284577Y0016641D02*
X0284577Y0016641D01*
X0286718Y0018782D02*
X0280492Y0018782D01*
X0278893Y0020381D02*
X0288316Y0020381D01*
X0289915Y0021979D02*
X0273194Y0021979D01*
X0271595Y0023578D02*
X0291513Y0023578D01*
X0293112Y0025176D02*
X0269997Y0025176D01*
X0268398Y0026775D02*
X0293730Y0026775D01*
X0293730Y0028373D02*
X0266800Y0028373D01*
X0265201Y0029972D02*
X0293730Y0029972D01*
X0293730Y0031570D02*
X0263602Y0031570D01*
X0262004Y0033169D02*
X0293730Y0033169D01*
X0271797Y0010789D02*
X0270463Y0010789D01*
X0268865Y0009191D02*
X0273395Y0009191D01*
X0263395Y0009191D02*
X0258865Y0009191D01*
X0260463Y0010789D02*
X0261797Y0010789D01*
X0253395Y0009191D02*
X0248865Y0009191D01*
X0250463Y0010789D02*
X0251797Y0010789D01*
X0243395Y0009191D02*
X0238865Y0009191D01*
X0240463Y0010789D02*
X0241797Y0010789D01*
X0233395Y0009191D02*
X0228865Y0009191D01*
X0230463Y0010789D02*
X0231797Y0010789D01*
X0223395Y0009191D02*
X0214787Y0009191D01*
X0215277Y0010789D02*
X0221797Y0010789D01*
X0217799Y0012388D02*
X0215277Y0012388D01*
X0215277Y0013987D02*
X0216201Y0013987D01*
X0199483Y0013987D02*
X0182030Y0013987D01*
X0182030Y0015585D02*
X0199483Y0015585D01*
X0198943Y0017184D02*
X0182030Y0017184D01*
X0182030Y0012388D02*
X0199483Y0012388D01*
X0199483Y0010789D02*
X0180463Y0010789D01*
X0178865Y0009191D02*
X0199973Y0009191D01*
X0173395Y0009191D02*
X0168865Y0009191D01*
X0170463Y0010789D02*
X0171797Y0010789D01*
X0163395Y0009191D02*
X0158865Y0009191D01*
X0160463Y0010789D02*
X0161797Y0010789D01*
X0153395Y0009191D02*
X0089148Y0009191D01*
X0091081Y0010789D02*
X0100337Y0010789D01*
X0098738Y0012388D02*
X0091990Y0012388D01*
X0092467Y0013987D02*
X0097140Y0013987D01*
X0095541Y0015585D02*
X0092467Y0015585D01*
X0092002Y0017184D02*
X0093943Y0017184D01*
X0092344Y0018782D02*
X0091110Y0018782D01*
X0090746Y0020381D02*
X0089217Y0020381D01*
X0089147Y0021979D02*
X0069680Y0021979D01*
X0070069Y0020381D02*
X0083043Y0020381D01*
X0081150Y0018782D02*
X0070069Y0018782D01*
X0069499Y0017184D02*
X0080258Y0017184D01*
X0079793Y0015585D02*
X0068438Y0015585D01*
X0068875Y0023578D02*
X0087549Y0023578D01*
X0085950Y0025176D02*
X0067153Y0025176D01*
X0070352Y0026775D02*
X0028530Y0026775D01*
X0028530Y0028373D02*
X0068753Y0028373D01*
X0067155Y0029972D02*
X0028530Y0029972D01*
X0028530Y0031570D02*
X0045137Y0031570D01*
X0043657Y0033169D02*
X0028530Y0033169D01*
X0028530Y0034767D02*
X0042995Y0034767D01*
X0042791Y0036366D02*
X0028530Y0036366D01*
X0028530Y0037964D02*
X0042884Y0037964D01*
X0043494Y0039563D02*
X0028530Y0039563D01*
X0028530Y0041161D02*
X0042832Y0041161D01*
X0042791Y0042760D02*
X0028530Y0042760D01*
X0028530Y0044358D02*
X0043047Y0044358D01*
X0043709Y0045957D02*
X0028530Y0045957D01*
X0028530Y0047555D02*
X0045263Y0047555D01*
X0094770Y0037964D02*
X0192223Y0037964D01*
X0203420Y0050752D02*
X0215630Y0050752D01*
X0215630Y0049154D02*
X0205019Y0049154D01*
X0206617Y0047555D02*
X0215630Y0047555D01*
X0215630Y0045957D02*
X0208216Y0045957D01*
X0209814Y0044358D02*
X0215630Y0044358D01*
X0215630Y0042760D02*
X0211413Y0042760D01*
X0213011Y0041161D02*
X0215618Y0041161D01*
X0215715Y0039563D02*
X0214610Y0039563D01*
X0215630Y0052351D02*
X0201822Y0052351D01*
X0200223Y0053949D02*
X0215630Y0053949D01*
X0215630Y0055548D02*
X0198625Y0055548D01*
X0197026Y0057146D02*
X0215630Y0057146D01*
X0215630Y0058745D02*
X0195428Y0058745D01*
X0193829Y0060343D02*
X0215630Y0060343D01*
X0215630Y0061942D02*
X0192231Y0061942D01*
X0190632Y0063540D02*
X0215630Y0063540D01*
X0215630Y0065139D02*
X0189034Y0065139D01*
X0187435Y0066737D02*
X0215630Y0066737D01*
X0216019Y0068336D02*
X0185837Y0068336D01*
X0184238Y0069934D02*
X0217522Y0069934D01*
X0219120Y0071533D02*
X0182640Y0071533D01*
X0181041Y0073131D02*
X0220630Y0073131D01*
X0220630Y0074730D02*
X0179922Y0074730D01*
X0181626Y0076328D02*
X0220630Y0076328D01*
X0220630Y0077927D02*
X0182543Y0077927D01*
X0184142Y0079525D02*
X0220630Y0079525D01*
X0220630Y0081124D02*
X0185599Y0081124D01*
X0186014Y0082722D02*
X0220630Y0082722D01*
X0220630Y0084321D02*
X0186014Y0084321D01*
X0186014Y0085920D02*
X0220630Y0085920D01*
X0220630Y0087518D02*
X0186014Y0087518D01*
X0186014Y0089117D02*
X0220630Y0089117D01*
X0220630Y0090715D02*
X0186014Y0090715D01*
X0186014Y0092314D02*
X0220630Y0092314D01*
X0220630Y0093912D02*
X0186014Y0093912D01*
X0186014Y0095511D02*
X0220630Y0095511D01*
X0220630Y0097109D02*
X0186014Y0097109D01*
X0186014Y0098708D02*
X0220630Y0098708D01*
X0220630Y0100306D02*
X0186014Y0100306D01*
X0186014Y0101905D02*
X0220630Y0101905D01*
X0220630Y0103503D02*
X0186014Y0103503D01*
X0185754Y0105102D02*
X0220630Y0105102D01*
X0220630Y0106700D02*
X0184516Y0106700D01*
X0182917Y0108299D02*
X0220389Y0108299D01*
X0218790Y0109897D02*
X0181319Y0109897D01*
X0179720Y0111496D02*
X0217192Y0111496D01*
X0215882Y0113094D02*
X0178122Y0113094D01*
X0176523Y0114693D02*
X0215630Y0114693D01*
X0215630Y0116291D02*
X0174925Y0116291D01*
X0174514Y0117890D02*
X0215630Y0117890D01*
X0215630Y0119488D02*
X0174514Y0119488D01*
X0174514Y0121087D02*
X0215630Y0121087D01*
X0215630Y0122685D02*
X0174514Y0122685D01*
X0174514Y0124284D02*
X0215630Y0124284D01*
X0215630Y0125882D02*
X0174514Y0125882D01*
X0174514Y0127481D02*
X0215630Y0127481D01*
X0215630Y0129079D02*
X0174514Y0129079D01*
X0174514Y0130678D02*
X0215630Y0130678D01*
X0215630Y0132276D02*
X0174514Y0132276D01*
X0174141Y0133875D02*
X0215630Y0133875D01*
X0215630Y0135473D02*
X0174881Y0135473D01*
X0176008Y0137072D02*
X0215630Y0137072D01*
X0215630Y0138670D02*
X0176221Y0138670D01*
X0175701Y0140269D02*
X0215630Y0140269D01*
X0215630Y0141867D02*
X0173588Y0141867D01*
X0173080Y0143466D02*
X0215633Y0143466D01*
X0215956Y0145064D02*
X0173080Y0145064D01*
X0173080Y0146663D02*
X0216716Y0146663D01*
X0218176Y0148261D02*
X0173080Y0148261D01*
X0173080Y0149860D02*
X0279793Y0149860D01*
X0279793Y0151458D02*
X0173080Y0151458D01*
X0173080Y0153057D02*
X0280309Y0153057D01*
X0281274Y0154655D02*
X0239228Y0154655D01*
X0237032Y0154655D02*
X0173080Y0154655D01*
X0173080Y0156254D02*
X0234878Y0156254D01*
X0233791Y0157853D02*
X0221039Y0157853D01*
X0222317Y0159451D02*
X0232193Y0159451D01*
X0230594Y0161050D02*
X0222667Y0161050D01*
X0218880Y0161050D02*
X0172880Y0161050D01*
X0169880Y0158050D01*
X0169880Y0141050D01*
X0172630Y0138300D01*
X0147608Y0129079D02*
X0146987Y0129079D01*
X0141380Y0121050D02*
X0136880Y0116550D01*
X0140512Y0111496D02*
X0149630Y0111496D01*
X0149630Y0109897D02*
X0141221Y0109897D01*
X0141102Y0108299D02*
X0149630Y0108299D01*
X0140130Y0099800D02*
X0137130Y0096800D01*
X0137130Y0074800D01*
X0139630Y0074800D01*
X0150630Y0074800D01*
X0156477Y0073131D02*
X0157056Y0073131D01*
X0156477Y0071533D02*
X0158654Y0071533D01*
X0160253Y0069934D02*
X0156477Y0069934D01*
X0156477Y0068336D02*
X0161851Y0068336D01*
X0163450Y0066737D02*
X0156147Y0066737D01*
X0154641Y0065139D02*
X0165048Y0065139D01*
X0174419Y0079753D02*
X0173635Y0080537D01*
X0174164Y0080756D01*
X0175174Y0081766D01*
X0175721Y0083086D01*
X0175721Y0084514D01*
X0175311Y0085503D01*
X0176190Y0086206D01*
X0176369Y0086283D01*
X0176637Y0086560D01*
X0177148Y0086772D01*
X0178158Y0087782D01*
X0178705Y0089102D01*
X0178705Y0090530D01*
X0178158Y0091850D01*
X0177148Y0092860D01*
X0175828Y0093406D01*
X0175766Y0093406D01*
X0175630Y0093543D01*
X0175630Y0093722D01*
X0175674Y0093766D01*
X0176221Y0095086D01*
X0176221Y0096514D01*
X0175674Y0097834D01*
X0174664Y0098844D01*
X0173344Y0099391D01*
X0171916Y0099391D01*
X0170630Y0098858D01*
X0170630Y0111014D01*
X0179246Y0102398D01*
X0179246Y0084202D01*
X0177322Y0082278D01*
X0175873Y0081678D01*
X0174752Y0080557D01*
X0174419Y0079753D01*
X0174532Y0081124D02*
X0175319Y0081124D01*
X0175570Y0082722D02*
X0177766Y0082722D01*
X0179246Y0084321D02*
X0175721Y0084321D01*
X0175832Y0085920D02*
X0179246Y0085920D01*
X0179246Y0087518D02*
X0177894Y0087518D01*
X0178705Y0089117D02*
X0179246Y0089117D01*
X0179246Y0090715D02*
X0178628Y0090715D01*
X0179246Y0092314D02*
X0177694Y0092314D01*
X0179246Y0093912D02*
X0175734Y0093912D01*
X0176221Y0095511D02*
X0179246Y0095511D01*
X0179246Y0097109D02*
X0175974Y0097109D01*
X0174800Y0098708D02*
X0179246Y0098708D01*
X0179246Y0100306D02*
X0170630Y0100306D01*
X0170630Y0101905D02*
X0179246Y0101905D01*
X0178141Y0103503D02*
X0170630Y0103503D01*
X0170630Y0105102D02*
X0176542Y0105102D01*
X0174944Y0106700D02*
X0170630Y0106700D01*
X0170630Y0108299D02*
X0173345Y0108299D01*
X0171747Y0109897D02*
X0170630Y0109897D01*
X0149630Y0082722D02*
X0149477Y0082722D01*
X0149478Y0081124D02*
X0149663Y0081124D01*
X0137130Y0074800D02*
X0116630Y0074800D01*
X0108991Y0036366D02*
X0096368Y0036366D01*
X0097967Y0034767D02*
X0107393Y0034767D01*
X0106430Y0033169D02*
X0099565Y0033169D01*
X0101164Y0031570D02*
X0106430Y0031570D01*
X0106430Y0029972D02*
X0102762Y0029972D01*
X0104361Y0028373D02*
X0106430Y0028373D01*
X0105959Y0026775D02*
X0107951Y0026775D01*
X0142769Y0036366D02*
X0150392Y0036366D01*
X0148793Y0034767D02*
X0144367Y0034767D01*
X0145330Y0033169D02*
X0147195Y0033169D01*
X0145596Y0031570D02*
X0145330Y0031570D01*
X0149022Y0012388D02*
X0150230Y0012388D01*
X0151797Y0010789D02*
X0147423Y0010789D01*
X0123430Y0127000D02*
X0117743Y0127000D01*
X0116567Y0126513D01*
X0116477Y0126422D01*
X0116477Y0160974D01*
X0123956Y0168453D01*
X0142130Y0168453D01*
X0142130Y0138141D01*
X0141166Y0138141D01*
X0140223Y0137750D01*
X0130243Y0137750D01*
X0129067Y0137263D01*
X0124817Y0133013D01*
X0123917Y0132113D01*
X0123430Y0130937D01*
X0123430Y0127000D01*
X0123430Y0127481D02*
X0116477Y0127481D01*
X0116477Y0129079D02*
X0123430Y0129079D01*
X0123430Y0130678D02*
X0116477Y0130678D01*
X0116477Y0132276D02*
X0124081Y0132276D01*
X0125679Y0133875D02*
X0116477Y0133875D01*
X0116477Y0135473D02*
X0127278Y0135473D01*
X0128876Y0137072D02*
X0116477Y0137072D01*
X0116477Y0138670D02*
X0142130Y0138670D01*
X0142130Y0140269D02*
X0116477Y0140269D01*
X0116477Y0141867D02*
X0142130Y0141867D01*
X0142130Y0143466D02*
X0116477Y0143466D01*
X0116477Y0145064D02*
X0142130Y0145064D01*
X0142130Y0146663D02*
X0116477Y0146663D01*
X0116477Y0148261D02*
X0142130Y0148261D01*
X0142130Y0149860D02*
X0116477Y0149860D01*
X0116477Y0151458D02*
X0142130Y0151458D01*
X0142130Y0153057D02*
X0116477Y0153057D01*
X0116477Y0154655D02*
X0142130Y0154655D01*
X0142130Y0156254D02*
X0116477Y0156254D01*
X0116477Y0157853D02*
X0142130Y0157853D01*
X0142130Y0159451D02*
X0116477Y0159451D01*
X0116552Y0161050D02*
X0142130Y0161050D01*
X0142130Y0162648D02*
X0118151Y0162648D01*
X0119749Y0164247D02*
X0142130Y0164247D01*
X0142130Y0165845D02*
X0121348Y0165845D01*
X0122946Y0167444D02*
X0142130Y0167444D01*
X0142130Y0174800D02*
X0123630Y0174800D01*
X0112130Y0163300D01*
X0112130Y0125800D01*
X0088130Y0139300D02*
X0088130Y0166300D01*
X0098130Y0175800D02*
X0098130Y0185800D01*
X0104130Y0191800D01*
X0130130Y0191800D01*
X0133130Y0194800D01*
X0150130Y0194800D01*
X0160130Y0204800D01*
X0164269Y0209005D02*
X0165991Y0209005D01*
X0167590Y0210603D02*
X0162670Y0210603D01*
X0157590Y0210603D02*
X0152670Y0210603D01*
X0154269Y0209005D02*
X0155991Y0209005D01*
X0147590Y0210603D02*
X0142670Y0210603D01*
X0144269Y0209005D02*
X0145991Y0209005D01*
X0145574Y0201012D02*
X0144686Y0201012D01*
X0143088Y0199414D02*
X0147172Y0199414D01*
X0137172Y0199414D02*
X0123088Y0199414D01*
X0122067Y0197815D02*
X0114192Y0197815D01*
X0110067Y0197815D02*
X0092212Y0197815D01*
X0094239Y0196217D02*
X0108830Y0196217D01*
X0102572Y0194618D02*
X0095837Y0194618D01*
X0097436Y0193020D02*
X0100824Y0193020D01*
X0099226Y0191421D02*
X0098330Y0191421D01*
X0104130Y0183300D02*
X0106630Y0185800D01*
X0134130Y0185800D01*
X0137130Y0188800D01*
X0170630Y0188800D01*
X0173130Y0186800D01*
X0173130Y0174300D01*
X0175630Y0171800D01*
X0231630Y0171800D01*
X0238130Y0165300D01*
X0241793Y0164247D02*
X0283802Y0164247D01*
X0283730Y0165845D02*
X0241917Y0165845D01*
X0241342Y0167444D02*
X0283730Y0167444D01*
X0283730Y0169042D02*
X0238993Y0169042D01*
X0237315Y0170641D02*
X0283730Y0170641D01*
X0283730Y0172239D02*
X0235716Y0172239D01*
X0234118Y0173838D02*
X0283730Y0173838D01*
X0283730Y0175436D02*
X0176519Y0175436D01*
X0170130Y0172800D02*
X0170130Y0180300D01*
X0176330Y0185027D02*
X0208332Y0185027D01*
X0209930Y0186626D02*
X0176369Y0186626D01*
X0176004Y0188224D02*
X0211529Y0188224D01*
X0213127Y0189823D02*
X0174474Y0189823D01*
X0172534Y0191421D02*
X0214726Y0191421D01*
X0216324Y0193020D02*
X0158875Y0193020D01*
X0174269Y0209005D02*
X0175991Y0209005D01*
X0177590Y0210603D02*
X0172670Y0210603D01*
X0182670Y0210603D02*
X0187590Y0210603D01*
X0185991Y0209005D02*
X0184269Y0209005D01*
X0192670Y0210603D02*
X0203590Y0210603D01*
X0201991Y0209005D02*
X0194269Y0209005D01*
X0195867Y0207406D02*
X0200393Y0207406D01*
X0200230Y0205808D02*
X0196030Y0205808D01*
X0196030Y0204209D02*
X0200230Y0204209D01*
X0199415Y0202611D02*
X0196030Y0202611D01*
X0194686Y0201012D02*
X0197817Y0201012D01*
X0198130Y0196800D02*
X0206130Y0204800D01*
X0210269Y0209005D02*
X0211991Y0209005D01*
X0213590Y0210603D02*
X0208670Y0210603D01*
X0218670Y0210603D02*
X0223590Y0210603D01*
X0221991Y0209005D02*
X0220269Y0209005D01*
X0211574Y0201012D02*
X0210686Y0201012D01*
X0209088Y0199414D02*
X0213172Y0199414D01*
X0218880Y0168300D02*
X0174630Y0168300D01*
X0170130Y0172800D01*
X0135574Y0201012D02*
X0124686Y0201012D01*
X0126030Y0202611D02*
X0134230Y0202611D01*
X0134230Y0204209D02*
X0126030Y0204209D01*
X0126030Y0205808D02*
X0134230Y0205808D01*
X0134393Y0207406D02*
X0125867Y0207406D01*
X0124269Y0209005D02*
X0135991Y0209005D01*
X0137590Y0210603D02*
X0122670Y0210603D01*
X0126192Y0197815D02*
X0132048Y0197815D01*
X0130021Y0196217D02*
X0127430Y0196217D01*
X0104130Y0183300D02*
X0104130Y0179800D01*
X0106130Y0177800D01*
X0106130Y0171800D01*
X0103130Y0168800D01*
X0103130Y0150300D01*
X0104380Y0149050D01*
X0100130Y0173800D02*
X0098130Y0175800D01*
X0076130Y0182800D02*
X0076130Y0189847D01*
X0071177Y0194800D01*
X0071177Y0184800D02*
X0071177Y0182753D01*
X0061177Y0184800D02*
X0061177Y0177753D01*
X0028530Y0210603D02*
X0099722Y0210603D01*
X0101362Y0212202D02*
X0028530Y0212202D01*
X0240834Y0162648D02*
X0284464Y0162648D01*
X0284872Y0161664D02*
X0284872Y0161664D01*
X0285486Y0161050D02*
X0240737Y0161050D01*
X0241753Y0159451D02*
X0287085Y0159451D01*
X0288683Y0157853D02*
X0241917Y0157853D01*
X0241382Y0156254D02*
X0283341Y0156254D01*
X0288919Y0156254D02*
X0290282Y0156254D01*
X0290986Y0154655D02*
X0291880Y0154655D01*
X0291951Y0153057D02*
X0293479Y0153057D01*
X0293730Y0151458D02*
X0292467Y0151458D01*
X0292467Y0149860D02*
X0293730Y0149860D01*
D21*
X0281130Y0156800D03*
X0281130Y0161800D03*
X0276130Y0161800D03*
X0276130Y0156800D03*
X0271130Y0156800D03*
X0271130Y0151800D03*
X0276130Y0151800D03*
X0266130Y0151800D03*
X0266130Y0156800D03*
X0261130Y0151800D03*
X0256130Y0151800D03*
X0251130Y0151800D03*
X0246130Y0151800D03*
X0241130Y0151800D03*
X0236130Y0151800D03*
X0231130Y0151800D03*
X0226130Y0151800D03*
X0221130Y0151800D03*
X0216130Y0151800D03*
X0211130Y0151800D03*
X0211130Y0146800D03*
X0206130Y0146800D03*
X0206130Y0151800D03*
X0201130Y0146800D03*
X0201130Y0141800D03*
X0201130Y0136800D03*
X0201130Y0131800D03*
X0201130Y0126800D03*
X0201130Y0121800D03*
X0201130Y0116800D03*
X0206130Y0116800D03*
X0206130Y0121800D03*
X0206130Y0126800D03*
X0206130Y0131800D03*
X0206130Y0136800D03*
X0206130Y0141800D03*
X0211130Y0141800D03*
X0211130Y0136800D03*
X0211130Y0131800D03*
X0211130Y0126800D03*
X0211130Y0121800D03*
X0211130Y0116800D03*
X0213130Y0090800D03*
X0217630Y0090800D03*
X0211130Y0064800D03*
X0211130Y0059800D03*
X0211130Y0054800D03*
X0211130Y0049800D03*
X0211130Y0044800D03*
X0206130Y0049800D03*
X0206130Y0054800D03*
X0206130Y0059800D03*
X0206130Y0064800D03*
X0201130Y0064800D03*
X0201130Y0059800D03*
X0201130Y0054800D03*
X0183130Y0044800D03*
X0140130Y0061300D03*
X0118630Y0036800D03*
X0102630Y0036800D03*
X0100130Y0041800D03*
X0086630Y0059300D03*
X0081130Y0064300D03*
X0065130Y0076300D03*
X0066130Y0089050D03*
X0091130Y0079300D03*
X0105630Y0104800D03*
X0117630Y0148800D03*
X0122630Y0148800D03*
X0127630Y0148800D03*
X0127630Y0153800D03*
X0127630Y0158800D03*
X0122630Y0158800D03*
X0117630Y0158800D03*
X0117630Y0153800D03*
X0122630Y0153800D03*
X0176130Y0191800D03*
X0198130Y0191800D03*
X0042130Y0156800D03*
X0034130Y0156800D03*
X0031130Y0181800D03*
X0032130Y0103800D03*
X0038130Y0103800D03*
X0036130Y0051800D03*
X0046130Y0051800D03*
X0056130Y0051800D03*
X0036130Y0041800D03*
X0036130Y0031800D03*
X0036130Y0021800D03*
X0036130Y0011800D03*
X0046130Y0011800D03*
X0046130Y0021800D03*
X0096130Y0011800D03*
X0281130Y0031800D03*
X0286130Y0031800D03*
X0291130Y0031800D03*
X0291130Y0026800D03*
X0286130Y0026800D03*
D22*
X0186630Y0091300D03*
X0178630Y0092300D03*
X0171630Y0107300D03*
X0182130Y0112300D03*
X0149630Y0097300D03*
X0149630Y0090800D03*
X0149630Y0084800D03*
X0123630Y0106800D03*
X0118630Y0106800D03*
X0141630Y0114800D03*
X0096130Y0093300D03*
X0081130Y0111300D03*
X0075130Y0116300D03*
X0062630Y0171300D03*
X0098630Y0193800D03*
X0086130Y0211800D03*
X0076130Y0211800D03*
X0066130Y0211800D03*
X0056130Y0211800D03*
D23*
X0071130Y0177800D03*
X0088130Y0166300D03*
X0103130Y0173800D03*
X0108130Y0182300D03*
X0112130Y0194800D03*
X0124130Y0194800D03*
X0142130Y0180300D03*
X0146130Y0180300D03*
X0150130Y0180300D03*
X0154130Y0180300D03*
X0158130Y0180300D03*
X0162130Y0180300D03*
X0170130Y0180300D03*
X0169630Y0185300D03*
X0176630Y0180300D03*
X0142130Y0174800D03*
X0162630Y0147300D03*
X0161630Y0141300D03*
X0172630Y0138300D03*
X0144380Y0131550D03*
X0141880Y0134550D03*
X0141380Y0125550D03*
X0141380Y0121050D03*
X0130630Y0123800D03*
X0126630Y0123800D03*
X0137630Y0109300D03*
X0140130Y0099800D03*
X0119380Y0099550D03*
X0099130Y0115800D03*
X0097630Y0119800D03*
X0103130Y0125800D03*
X0103130Y0129800D03*
X0091130Y0140800D03*
X0085130Y0133300D03*
X0083130Y0129800D03*
X0076880Y0112550D03*
X0085630Y0106800D03*
X0095630Y0103300D03*
X0076880Y0081050D03*
X0124880Y0044050D03*
X0150630Y0074800D03*
X0172130Y0083800D03*
X0175114Y0089816D03*
X0172630Y0095800D03*
X0104380Y0149050D03*
D24*
X0062130Y0163800D03*
X0033130Y0199800D03*
X0035130Y0120300D03*
X0060130Y0120800D03*
X0089630Y0102800D03*
X0103380Y0078550D03*
X0095630Y0068800D03*
X0139630Y0074800D03*
X0178130Y0078300D03*
D25*
X0172130Y0083800D02*
X0172130Y0086800D01*
X0174630Y0088800D01*
X0175630Y0089831D01*
X0175114Y0089816D01*
X0172630Y0092300D01*
X0172630Y0095800D01*
X0167630Y0082300D02*
X0216130Y0033800D01*
X0257130Y0033800D01*
X0276130Y0014800D01*
X0266130Y0014800D02*
X0250130Y0030800D01*
X0216130Y0030800D01*
X0164630Y0082300D01*
X0164630Y0130300D01*
X0155130Y0139800D01*
X0155130Y0177300D01*
X0158130Y0180300D01*
X0154130Y0180300D02*
X0152630Y0178800D01*
X0152630Y0138800D01*
X0161630Y0129800D01*
X0161630Y0082300D01*
X0216130Y0027800D01*
X0243130Y0027800D01*
X0256130Y0014800D01*
X0246130Y0014800D02*
X0236130Y0024800D01*
X0216130Y0024800D01*
X0158630Y0082300D01*
X0158630Y0129300D01*
X0150130Y0137800D01*
X0150130Y0180300D01*
X0147630Y0178800D02*
X0146130Y0180300D01*
X0147630Y0178800D02*
X0147630Y0136800D01*
X0155630Y0128800D01*
X0155630Y0082300D01*
X0216130Y0021800D01*
X0229130Y0021800D01*
X0236130Y0014800D01*
X0226130Y0014800D02*
X0219630Y0014800D01*
X0152630Y0081800D01*
X0152630Y0128300D01*
X0145130Y0135800D01*
X0145130Y0177300D01*
X0142130Y0180300D01*
X0139130Y0185800D02*
X0135630Y0182300D01*
X0108130Y0182300D01*
X0112130Y0194800D02*
X0124130Y0194800D01*
X0139130Y0185800D02*
X0161630Y0185800D01*
X0164630Y0182800D01*
X0164630Y0172300D01*
X0160130Y0167800D01*
X0160130Y0142800D01*
X0161630Y0141300D01*
X0157630Y0140800D02*
X0167630Y0130800D01*
X0167630Y0082300D01*
X0157630Y0140800D02*
X0157630Y0175800D01*
X0162130Y0180300D01*
X0167130Y0182300D02*
X0169630Y0185300D01*
X0167130Y0182300D02*
X0167130Y0170800D01*
X0162630Y0166300D01*
X0162630Y0147300D01*
D26*
X0112130Y0125800D03*
X0105130Y0088300D03*
X0218880Y0161050D03*
X0218880Y0168300D03*
X0238130Y0165300D03*
X0238130Y0158300D03*
D27*
X0231630Y0164800D01*
X0170630Y0164800D01*
X0166130Y0160300D01*
X0166130Y0137300D01*
X0171130Y0132300D01*
X0171130Y0115300D01*
X0182630Y0103800D01*
X0182630Y0082800D01*
X0178130Y0078300D01*
D28*
X0103380Y0078550D02*
X0089630Y0092300D01*
X0089630Y0102800D01*
D29*
X0090606Y0103652D02*
X0088227Y0103652D01*
X0088227Y0104044D02*
X0090214Y0104044D01*
X0089822Y0104436D02*
X0088266Y0104436D01*
X0088227Y0104397D02*
X0088880Y0105050D01*
X0089208Y0105050D01*
X0091880Y0102378D01*
X0091880Y0093550D01*
X0093143Y0092287D01*
X0093143Y0092063D01*
X0094893Y0090313D01*
X0095117Y0090313D01*
X0106880Y0078550D01*
X0106880Y0075050D01*
X0101880Y0075050D01*
X0088227Y0088703D01*
X0088227Y0104397D01*
X0088658Y0104828D02*
X0089429Y0104828D01*
X0088227Y0103259D02*
X0090998Y0103259D01*
X0091390Y0102867D02*
X0088227Y0102867D01*
X0088227Y0102475D02*
X0091783Y0102475D01*
X0091880Y0102083D02*
X0088227Y0102083D01*
X0088227Y0101690D02*
X0091880Y0101690D01*
X0091880Y0101298D02*
X0088227Y0101298D01*
X0088227Y0100906D02*
X0091880Y0100906D01*
X0091880Y0100514D02*
X0088227Y0100514D01*
X0088227Y0100122D02*
X0091880Y0100122D01*
X0091880Y0099729D02*
X0088227Y0099729D01*
X0088227Y0099337D02*
X0091880Y0099337D01*
X0091880Y0098945D02*
X0088227Y0098945D01*
X0088227Y0098553D02*
X0091880Y0098553D01*
X0091880Y0098161D02*
X0088227Y0098161D01*
X0088227Y0097768D02*
X0091880Y0097768D01*
X0091880Y0097376D02*
X0088227Y0097376D01*
X0088227Y0096984D02*
X0091880Y0096984D01*
X0091880Y0096592D02*
X0088227Y0096592D01*
X0088227Y0096199D02*
X0091880Y0096199D01*
X0091880Y0095807D02*
X0088227Y0095807D01*
X0088227Y0095415D02*
X0091880Y0095415D01*
X0091880Y0095023D02*
X0088227Y0095023D01*
X0088227Y0094631D02*
X0091880Y0094631D01*
X0091880Y0094238D02*
X0088227Y0094238D01*
X0088227Y0093846D02*
X0091880Y0093846D01*
X0091976Y0093454D02*
X0088227Y0093454D01*
X0088227Y0093062D02*
X0092368Y0093062D01*
X0092760Y0092670D02*
X0088227Y0092670D01*
X0088227Y0092277D02*
X0093143Y0092277D01*
X0093320Y0091885D02*
X0088227Y0091885D01*
X0088227Y0091493D02*
X0093712Y0091493D01*
X0094104Y0091101D02*
X0088227Y0091101D01*
X0088227Y0090709D02*
X0094497Y0090709D01*
X0094889Y0090316D02*
X0088227Y0090316D01*
X0088227Y0089924D02*
X0095506Y0089924D01*
X0095898Y0089532D02*
X0088227Y0089532D01*
X0088227Y0089140D02*
X0096290Y0089140D01*
X0096683Y0088747D02*
X0088227Y0088747D01*
X0088575Y0088355D02*
X0097075Y0088355D01*
X0097467Y0087963D02*
X0088967Y0087963D01*
X0089359Y0087571D02*
X0097859Y0087571D01*
X0098251Y0087179D02*
X0089751Y0087179D01*
X0090144Y0086786D02*
X0098644Y0086786D01*
X0099036Y0086394D02*
X0090536Y0086394D01*
X0090928Y0086002D02*
X0099428Y0086002D01*
X0099820Y0085610D02*
X0091320Y0085610D01*
X0091712Y0085218D02*
X0100212Y0085218D01*
X0100605Y0084825D02*
X0092105Y0084825D01*
X0092497Y0084433D02*
X0100997Y0084433D01*
X0101389Y0084041D02*
X0092889Y0084041D01*
X0093281Y0083649D02*
X0101781Y0083649D01*
X0102174Y0083256D02*
X0093674Y0083256D01*
X0094066Y0082864D02*
X0102566Y0082864D01*
X0102958Y0082472D02*
X0094458Y0082472D01*
X0094850Y0082080D02*
X0103350Y0082080D01*
X0103742Y0081688D02*
X0095242Y0081688D01*
X0095635Y0081295D02*
X0104135Y0081295D01*
X0104527Y0080903D02*
X0096027Y0080903D01*
X0096419Y0080511D02*
X0104919Y0080511D01*
X0105311Y0080119D02*
X0096811Y0080119D01*
X0097203Y0079727D02*
X0105703Y0079727D01*
X0106096Y0079334D02*
X0097596Y0079334D01*
X0097988Y0078942D02*
X0106488Y0078942D01*
X0106880Y0078550D02*
X0098380Y0078550D01*
X0098772Y0078158D02*
X0106880Y0078158D01*
X0106880Y0077766D02*
X0099164Y0077766D01*
X0099557Y0077373D02*
X0106880Y0077373D01*
X0106880Y0076981D02*
X0099949Y0076981D01*
X0100341Y0076589D02*
X0106880Y0076589D01*
X0106880Y0076197D02*
X0100733Y0076197D01*
X0101126Y0075804D02*
X0106880Y0075804D01*
X0106880Y0075412D02*
X0101518Y0075412D01*
X0100267Y0073843D02*
X0092880Y0073843D01*
X0092880Y0073451D02*
X0100659Y0073451D01*
X0101052Y0073059D02*
X0092880Y0073059D01*
X0092880Y0072667D02*
X0153591Y0072667D01*
X0153880Y0072378D02*
X0153880Y0068050D01*
X0151880Y0066050D01*
X0093052Y0066050D01*
X0092880Y0066222D01*
X0092880Y0074550D01*
X0095946Y0078164D01*
X0101054Y0073056D01*
X0107706Y0073056D01*
X0108874Y0074224D01*
X0108874Y0079376D01*
X0107706Y0080544D01*
X0102436Y0085813D01*
X0106880Y0091050D01*
X0122880Y0091050D01*
X0129057Y0097227D01*
X0129351Y0097348D01*
X0136052Y0104050D01*
X0143880Y0104050D01*
X0146880Y0101050D01*
X0146880Y0098775D01*
X0146643Y0098537D01*
X0146643Y0096063D01*
X0146880Y0095825D01*
X0146880Y0092275D01*
X0146643Y0092037D01*
X0146643Y0089563D01*
X0146880Y0089325D01*
X0146880Y0086275D01*
X0146643Y0086037D01*
X0146643Y0083563D01*
X0146880Y0083325D01*
X0146880Y0080050D01*
X0147033Y0079897D01*
X0147033Y0079783D01*
X0147428Y0078829D01*
X0153880Y0072378D01*
X0153880Y0072275D02*
X0092880Y0072275D01*
X0092880Y0071882D02*
X0153880Y0071882D01*
X0153880Y0071490D02*
X0092880Y0071490D01*
X0092880Y0071098D02*
X0153880Y0071098D01*
X0153880Y0070706D02*
X0092880Y0070706D01*
X0092880Y0070313D02*
X0153880Y0070313D01*
X0153880Y0069921D02*
X0092880Y0069921D01*
X0092880Y0069529D02*
X0153880Y0069529D01*
X0153880Y0069137D02*
X0092880Y0069137D01*
X0092880Y0068745D02*
X0153880Y0068745D01*
X0153880Y0068352D02*
X0092880Y0068352D01*
X0092880Y0067960D02*
X0153790Y0067960D01*
X0153398Y0067568D02*
X0092880Y0067568D01*
X0092880Y0067176D02*
X0153006Y0067176D01*
X0152614Y0066784D02*
X0092880Y0066784D01*
X0092880Y0066391D02*
X0152221Y0066391D01*
X0153199Y0073059D02*
X0107708Y0073059D01*
X0108101Y0073451D02*
X0152806Y0073451D01*
X0152414Y0073843D02*
X0108493Y0073843D01*
X0108874Y0074236D02*
X0152022Y0074236D01*
X0151630Y0074628D02*
X0108874Y0074628D01*
X0108874Y0075020D02*
X0151237Y0075020D01*
X0150845Y0075412D02*
X0108874Y0075412D01*
X0108874Y0075804D02*
X0150453Y0075804D01*
X0150061Y0076197D02*
X0108874Y0076197D01*
X0108874Y0076589D02*
X0149669Y0076589D01*
X0149276Y0076981D02*
X0108874Y0076981D01*
X0108874Y0077373D02*
X0148884Y0077373D01*
X0148492Y0077766D02*
X0108874Y0077766D01*
X0108874Y0078158D02*
X0148100Y0078158D01*
X0147708Y0078550D02*
X0108874Y0078550D01*
X0108874Y0078942D02*
X0147382Y0078942D01*
X0147219Y0079334D02*
X0108874Y0079334D01*
X0108523Y0079727D02*
X0147057Y0079727D01*
X0146880Y0080119D02*
X0108131Y0080119D01*
X0107739Y0080511D02*
X0146880Y0080511D01*
X0146880Y0080903D02*
X0107346Y0080903D01*
X0106954Y0081295D02*
X0146880Y0081295D01*
X0146880Y0081688D02*
X0106562Y0081688D01*
X0106170Y0082080D02*
X0146880Y0082080D01*
X0146880Y0082472D02*
X0105777Y0082472D01*
X0105385Y0082864D02*
X0146880Y0082864D01*
X0146880Y0083256D02*
X0104993Y0083256D01*
X0104601Y0083649D02*
X0146643Y0083649D01*
X0146643Y0084041D02*
X0104209Y0084041D01*
X0103816Y0084433D02*
X0146643Y0084433D01*
X0146643Y0084825D02*
X0103424Y0084825D01*
X0103032Y0085218D02*
X0146643Y0085218D01*
X0146643Y0085610D02*
X0102640Y0085610D01*
X0102597Y0086002D02*
X0146643Y0086002D01*
X0146880Y0086394D02*
X0102930Y0086394D01*
X0103262Y0086786D02*
X0146880Y0086786D01*
X0146880Y0087179D02*
X0103595Y0087179D01*
X0103928Y0087571D02*
X0146880Y0087571D01*
X0146880Y0087963D02*
X0104261Y0087963D01*
X0104594Y0088355D02*
X0146880Y0088355D01*
X0146880Y0088747D02*
X0104926Y0088747D01*
X0105259Y0089140D02*
X0146880Y0089140D01*
X0146673Y0089532D02*
X0105592Y0089532D01*
X0105925Y0089924D02*
X0146643Y0089924D01*
X0146643Y0090316D02*
X0106257Y0090316D01*
X0106590Y0090709D02*
X0146643Y0090709D01*
X0146643Y0091101D02*
X0122931Y0091101D01*
X0123323Y0091493D02*
X0146643Y0091493D01*
X0146643Y0091885D02*
X0123715Y0091885D01*
X0124107Y0092277D02*
X0146880Y0092277D01*
X0146880Y0092670D02*
X0124500Y0092670D01*
X0124892Y0093062D02*
X0146880Y0093062D01*
X0146880Y0093454D02*
X0125284Y0093454D01*
X0125676Y0093846D02*
X0146880Y0093846D01*
X0146880Y0094238D02*
X0126068Y0094238D01*
X0126461Y0094631D02*
X0146880Y0094631D01*
X0146880Y0095023D02*
X0126853Y0095023D01*
X0127245Y0095415D02*
X0146880Y0095415D01*
X0146880Y0095807D02*
X0127637Y0095807D01*
X0128029Y0096199D02*
X0146643Y0096199D01*
X0146643Y0096592D02*
X0128422Y0096592D01*
X0128814Y0096984D02*
X0146643Y0096984D01*
X0146643Y0097376D02*
X0129379Y0097376D01*
X0129771Y0097768D02*
X0146643Y0097768D01*
X0146643Y0098161D02*
X0130163Y0098161D01*
X0130555Y0098553D02*
X0146658Y0098553D01*
X0146880Y0098945D02*
X0130947Y0098945D01*
X0131340Y0099337D02*
X0146880Y0099337D01*
X0146880Y0099729D02*
X0131732Y0099729D01*
X0132124Y0100122D02*
X0146880Y0100122D01*
X0146880Y0100514D02*
X0132516Y0100514D01*
X0132908Y0100906D02*
X0146880Y0100906D01*
X0146632Y0101298D02*
X0133301Y0101298D01*
X0133693Y0101690D02*
X0146240Y0101690D01*
X0145847Y0102083D02*
X0134085Y0102083D01*
X0134477Y0102475D02*
X0145455Y0102475D01*
X0145063Y0102867D02*
X0134870Y0102867D01*
X0135262Y0103259D02*
X0144671Y0103259D01*
X0144278Y0103652D02*
X0135654Y0103652D01*
X0136046Y0104044D02*
X0143886Y0104044D01*
X0113880Y0122972D02*
X0113804Y0122897D01*
X0109456Y0122897D01*
X0107880Y0124472D01*
X0107880Y0169878D01*
X0108331Y0170329D01*
X0108453Y0170623D01*
X0116880Y0179050D01*
X0139414Y0179050D01*
X0139597Y0178608D01*
X0140438Y0177767D01*
X0141536Y0177313D01*
X0141728Y0177313D01*
X0142733Y0176307D01*
X0142733Y0171903D01*
X0141880Y0171050D01*
X0122880Y0171050D01*
X0113880Y0162050D01*
X0113880Y0122972D01*
X0113880Y0123262D02*
X0109090Y0123262D01*
X0108698Y0123654D02*
X0113880Y0123654D01*
X0113880Y0124047D02*
X0108306Y0124047D01*
X0107914Y0124439D02*
X0113880Y0124439D01*
X0113880Y0124831D02*
X0107880Y0124831D01*
X0107880Y0125223D02*
X0113880Y0125223D01*
X0113880Y0125615D02*
X0107880Y0125615D01*
X0107880Y0126008D02*
X0113880Y0126008D01*
X0113880Y0126400D02*
X0107880Y0126400D01*
X0107880Y0126792D02*
X0113880Y0126792D01*
X0113880Y0127184D02*
X0107880Y0127184D01*
X0107880Y0127576D02*
X0113880Y0127576D01*
X0113880Y0127969D02*
X0107880Y0127969D01*
X0107880Y0128361D02*
X0113880Y0128361D01*
X0113880Y0128753D02*
X0107880Y0128753D01*
X0107880Y0129145D02*
X0113880Y0129145D01*
X0113880Y0129537D02*
X0107880Y0129537D01*
X0107880Y0129930D02*
X0113880Y0129930D01*
X0113880Y0130322D02*
X0107880Y0130322D01*
X0107880Y0130714D02*
X0113880Y0130714D01*
X0113880Y0131106D02*
X0107880Y0131106D01*
X0107880Y0131499D02*
X0113880Y0131499D01*
X0113880Y0131891D02*
X0107880Y0131891D01*
X0107880Y0132283D02*
X0113880Y0132283D01*
X0113880Y0132675D02*
X0107880Y0132675D01*
X0107880Y0133067D02*
X0113880Y0133067D01*
X0113880Y0133460D02*
X0107880Y0133460D01*
X0107880Y0133852D02*
X0113880Y0133852D01*
X0113880Y0134244D02*
X0107880Y0134244D01*
X0107880Y0134636D02*
X0113880Y0134636D01*
X0113880Y0135028D02*
X0107880Y0135028D01*
X0107880Y0135421D02*
X0113880Y0135421D01*
X0113880Y0135813D02*
X0107880Y0135813D01*
X0107880Y0136205D02*
X0113880Y0136205D01*
X0113880Y0136597D02*
X0107880Y0136597D01*
X0107880Y0136990D02*
X0113880Y0136990D01*
X0113880Y0137382D02*
X0107880Y0137382D01*
X0107880Y0137774D02*
X0113880Y0137774D01*
X0113880Y0138166D02*
X0107880Y0138166D01*
X0107880Y0138558D02*
X0113880Y0138558D01*
X0113880Y0138951D02*
X0107880Y0138951D01*
X0107880Y0139343D02*
X0113880Y0139343D01*
X0113880Y0139735D02*
X0107880Y0139735D01*
X0107880Y0140127D02*
X0113880Y0140127D01*
X0113880Y0140519D02*
X0107880Y0140519D01*
X0107880Y0140912D02*
X0113880Y0140912D01*
X0113880Y0141304D02*
X0107880Y0141304D01*
X0107880Y0141696D02*
X0113880Y0141696D01*
X0113880Y0142088D02*
X0107880Y0142088D01*
X0107880Y0142480D02*
X0113880Y0142480D01*
X0113880Y0142873D02*
X0107880Y0142873D01*
X0107880Y0143265D02*
X0113880Y0143265D01*
X0113880Y0143657D02*
X0107880Y0143657D01*
X0107880Y0144049D02*
X0113880Y0144049D01*
X0113880Y0144442D02*
X0107880Y0144442D01*
X0107880Y0144834D02*
X0113880Y0144834D01*
X0113880Y0145226D02*
X0107880Y0145226D01*
X0107880Y0145618D02*
X0113880Y0145618D01*
X0113880Y0146010D02*
X0107880Y0146010D01*
X0107880Y0146403D02*
X0113880Y0146403D01*
X0113880Y0146795D02*
X0107880Y0146795D01*
X0107880Y0147187D02*
X0113880Y0147187D01*
X0113880Y0147579D02*
X0107880Y0147579D01*
X0107880Y0147971D02*
X0113880Y0147971D01*
X0113880Y0148364D02*
X0107880Y0148364D01*
X0107880Y0148756D02*
X0113880Y0148756D01*
X0113880Y0149148D02*
X0107880Y0149148D01*
X0107880Y0149540D02*
X0113880Y0149540D01*
X0113880Y0149933D02*
X0107880Y0149933D01*
X0107880Y0150325D02*
X0113880Y0150325D01*
X0113880Y0150717D02*
X0107880Y0150717D01*
X0107880Y0151109D02*
X0113880Y0151109D01*
X0113880Y0151501D02*
X0107880Y0151501D01*
X0107880Y0151894D02*
X0113880Y0151894D01*
X0113880Y0152286D02*
X0107880Y0152286D01*
X0107880Y0152678D02*
X0113880Y0152678D01*
X0113880Y0153070D02*
X0107880Y0153070D01*
X0107880Y0153462D02*
X0113880Y0153462D01*
X0113880Y0153855D02*
X0107880Y0153855D01*
X0107880Y0154247D02*
X0113880Y0154247D01*
X0113880Y0154639D02*
X0107880Y0154639D01*
X0107880Y0155031D02*
X0113880Y0155031D01*
X0113880Y0155423D02*
X0107880Y0155423D01*
X0107880Y0155816D02*
X0113880Y0155816D01*
X0113880Y0156208D02*
X0107880Y0156208D01*
X0107880Y0156600D02*
X0113880Y0156600D01*
X0113880Y0156992D02*
X0107880Y0156992D01*
X0107880Y0157385D02*
X0113880Y0157385D01*
X0113880Y0157777D02*
X0107880Y0157777D01*
X0107880Y0158169D02*
X0113880Y0158169D01*
X0113880Y0158561D02*
X0107880Y0158561D01*
X0107880Y0158953D02*
X0113880Y0158953D01*
X0113880Y0159346D02*
X0107880Y0159346D01*
X0107880Y0159738D02*
X0113880Y0159738D01*
X0113880Y0160130D02*
X0107880Y0160130D01*
X0107880Y0160522D02*
X0113880Y0160522D01*
X0113880Y0160914D02*
X0107880Y0160914D01*
X0107880Y0161307D02*
X0113880Y0161307D01*
X0113880Y0161699D02*
X0107880Y0161699D01*
X0107880Y0162091D02*
X0113921Y0162091D01*
X0114313Y0162483D02*
X0107880Y0162483D01*
X0107880Y0162876D02*
X0114706Y0162876D01*
X0115098Y0163268D02*
X0107880Y0163268D01*
X0107880Y0163660D02*
X0115490Y0163660D01*
X0115882Y0164052D02*
X0107880Y0164052D01*
X0107880Y0164444D02*
X0116274Y0164444D01*
X0116667Y0164837D02*
X0107880Y0164837D01*
X0107880Y0165229D02*
X0117059Y0165229D01*
X0117451Y0165621D02*
X0107880Y0165621D01*
X0107880Y0166013D02*
X0117843Y0166013D01*
X0118235Y0166405D02*
X0107880Y0166405D01*
X0107880Y0166798D02*
X0118628Y0166798D01*
X0119020Y0167190D02*
X0107880Y0167190D01*
X0107880Y0167582D02*
X0119412Y0167582D01*
X0119804Y0167974D02*
X0107880Y0167974D01*
X0107880Y0168366D02*
X0120196Y0168366D01*
X0120589Y0168759D02*
X0107880Y0168759D01*
X0107880Y0169151D02*
X0120981Y0169151D01*
X0121373Y0169543D02*
X0107880Y0169543D01*
X0107938Y0169935D02*
X0121765Y0169935D01*
X0122158Y0170328D02*
X0108330Y0170328D01*
X0108550Y0170720D02*
X0122550Y0170720D01*
X0115610Y0177780D02*
X0140426Y0177780D01*
X0140033Y0178172D02*
X0116002Y0178172D01*
X0116394Y0178564D02*
X0139641Y0178564D01*
X0139453Y0178956D02*
X0116786Y0178956D01*
X0115217Y0177387D02*
X0141355Y0177387D01*
X0142045Y0176995D02*
X0114825Y0176995D01*
X0114433Y0176603D02*
X0142437Y0176603D01*
X0142733Y0176211D02*
X0114041Y0176211D01*
X0113649Y0175819D02*
X0142733Y0175819D01*
X0142733Y0175426D02*
X0113256Y0175426D01*
X0112864Y0175034D02*
X0142733Y0175034D01*
X0142733Y0174642D02*
X0112472Y0174642D01*
X0112080Y0174250D02*
X0142733Y0174250D01*
X0142733Y0173857D02*
X0111687Y0173857D01*
X0111295Y0173465D02*
X0142733Y0173465D01*
X0142733Y0173073D02*
X0110903Y0173073D01*
X0110511Y0172681D02*
X0142733Y0172681D01*
X0142733Y0172289D02*
X0110119Y0172289D01*
X0109726Y0171896D02*
X0142726Y0171896D01*
X0142334Y0171504D02*
X0109334Y0171504D01*
X0108942Y0171112D02*
X0141942Y0171112D01*
X0070689Y0114241D02*
X0051880Y0114241D01*
X0051880Y0113849D02*
X0071081Y0113849D01*
X0071473Y0113457D02*
X0051880Y0113457D01*
X0051880Y0113065D02*
X0071865Y0113065D01*
X0072258Y0112672D02*
X0051880Y0112672D01*
X0051880Y0112280D02*
X0072650Y0112280D01*
X0073042Y0111888D02*
X0052042Y0111888D01*
X0051880Y0112050D02*
X0051880Y0117050D01*
X0056880Y0122050D01*
X0062880Y0122050D01*
X0073093Y0111837D01*
X0073093Y0111797D01*
X0073483Y0110854D01*
X0073483Y0082746D01*
X0073093Y0081803D01*
X0073093Y0080297D01*
X0073669Y0078905D01*
X0074735Y0077839D01*
X0076127Y0077263D01*
X0076880Y0077263D01*
X0076880Y0051050D01*
X0104880Y0023050D01*
X0141880Y0023050D01*
X0152880Y0034050D01*
X0195859Y0034050D01*
X0211880Y0018029D01*
X0211880Y0011050D01*
X0202880Y0011050D01*
X0202880Y0018050D01*
X0198880Y0022050D01*
X0153880Y0022050D01*
X0144880Y0013050D01*
X0102880Y0013050D01*
X0086880Y0029050D01*
X0072880Y0029050D01*
X0071865Y0030065D01*
X0073910Y0030065D01*
X0076275Y0031044D01*
X0078086Y0032855D01*
X0079065Y0035220D01*
X0079065Y0037780D01*
X0078353Y0039500D01*
X0079065Y0041220D01*
X0079065Y0043780D01*
X0078086Y0046145D01*
X0076275Y0047956D01*
X0073910Y0048935D01*
X0071350Y0048935D01*
X0069880Y0048327D01*
X0069880Y0086887D01*
X0070311Y0087318D01*
X0070311Y0090782D01*
X0069880Y0091213D01*
X0069880Y0094050D01*
X0051880Y0112050D01*
X0052434Y0111496D02*
X0073217Y0111496D01*
X0073380Y0111104D02*
X0052826Y0111104D01*
X0053219Y0110711D02*
X0073483Y0110711D01*
X0073483Y0110319D02*
X0053611Y0110319D01*
X0054003Y0109927D02*
X0073483Y0109927D01*
X0073483Y0109535D02*
X0054395Y0109535D01*
X0054788Y0109142D02*
X0073483Y0109142D01*
X0073483Y0108750D02*
X0055180Y0108750D01*
X0055572Y0108358D02*
X0073483Y0108358D01*
X0073483Y0107966D02*
X0055964Y0107966D01*
X0056356Y0107574D02*
X0073483Y0107574D01*
X0073483Y0107181D02*
X0056749Y0107181D01*
X0057141Y0106789D02*
X0073483Y0106789D01*
X0073483Y0106397D02*
X0057533Y0106397D01*
X0057925Y0106005D02*
X0073483Y0106005D01*
X0073483Y0105613D02*
X0058317Y0105613D01*
X0058710Y0105220D02*
X0073483Y0105220D01*
X0073483Y0104828D02*
X0059102Y0104828D01*
X0059494Y0104436D02*
X0073483Y0104436D01*
X0073483Y0104044D02*
X0059886Y0104044D01*
X0060278Y0103652D02*
X0073483Y0103652D01*
X0073483Y0103259D02*
X0060671Y0103259D01*
X0061063Y0102867D02*
X0073483Y0102867D01*
X0073483Y0102475D02*
X0061455Y0102475D01*
X0061847Y0102083D02*
X0073483Y0102083D01*
X0073483Y0101690D02*
X0062240Y0101690D01*
X0062632Y0101298D02*
X0073483Y0101298D01*
X0073483Y0100906D02*
X0063024Y0100906D01*
X0063416Y0100514D02*
X0073483Y0100514D01*
X0073483Y0100122D02*
X0063808Y0100122D01*
X0064201Y0099729D02*
X0073483Y0099729D01*
X0073483Y0099337D02*
X0064593Y0099337D01*
X0064985Y0098945D02*
X0073483Y0098945D01*
X0073483Y0098553D02*
X0065377Y0098553D01*
X0065769Y0098161D02*
X0073483Y0098161D01*
X0073483Y0097768D02*
X0066162Y0097768D01*
X0066554Y0097376D02*
X0073483Y0097376D01*
X0073483Y0096984D02*
X0066946Y0096984D01*
X0067338Y0096592D02*
X0073483Y0096592D01*
X0073483Y0096199D02*
X0067731Y0096199D01*
X0068123Y0095807D02*
X0073483Y0095807D01*
X0073483Y0095415D02*
X0068515Y0095415D01*
X0068907Y0095023D02*
X0073483Y0095023D01*
X0073483Y0094631D02*
X0069299Y0094631D01*
X0069692Y0094238D02*
X0073483Y0094238D01*
X0073483Y0093846D02*
X0069880Y0093846D01*
X0069880Y0093454D02*
X0073483Y0093454D01*
X0073483Y0093062D02*
X0069880Y0093062D01*
X0069880Y0092670D02*
X0073483Y0092670D01*
X0073483Y0092277D02*
X0069880Y0092277D01*
X0069880Y0091885D02*
X0073483Y0091885D01*
X0073483Y0091493D02*
X0069880Y0091493D01*
X0069992Y0091101D02*
X0073483Y0091101D01*
X0073483Y0090709D02*
X0070311Y0090709D01*
X0070311Y0090316D02*
X0073483Y0090316D01*
X0073483Y0089924D02*
X0070311Y0089924D01*
X0070311Y0089532D02*
X0073483Y0089532D01*
X0073483Y0089140D02*
X0070311Y0089140D01*
X0070311Y0088747D02*
X0073483Y0088747D01*
X0073483Y0088355D02*
X0070311Y0088355D01*
X0070311Y0087963D02*
X0073483Y0087963D01*
X0073483Y0087571D02*
X0070311Y0087571D01*
X0070172Y0087179D02*
X0073483Y0087179D01*
X0073483Y0086786D02*
X0069880Y0086786D01*
X0069880Y0086394D02*
X0073483Y0086394D01*
X0073483Y0086002D02*
X0069880Y0086002D01*
X0069880Y0085610D02*
X0073483Y0085610D01*
X0073483Y0085218D02*
X0069880Y0085218D01*
X0069880Y0084825D02*
X0073483Y0084825D01*
X0073483Y0084433D02*
X0069880Y0084433D01*
X0069880Y0084041D02*
X0073483Y0084041D01*
X0073483Y0083649D02*
X0069880Y0083649D01*
X0069880Y0083256D02*
X0073483Y0083256D01*
X0073483Y0082864D02*
X0069880Y0082864D01*
X0069880Y0082472D02*
X0073370Y0082472D01*
X0073207Y0082080D02*
X0069880Y0082080D01*
X0069880Y0081688D02*
X0073093Y0081688D01*
X0073093Y0081295D02*
X0069880Y0081295D01*
X0069880Y0080903D02*
X0073093Y0080903D01*
X0073093Y0080511D02*
X0069880Y0080511D01*
X0069880Y0080119D02*
X0073166Y0080119D01*
X0073329Y0079727D02*
X0069880Y0079727D01*
X0069880Y0079334D02*
X0073491Y0079334D01*
X0073654Y0078942D02*
X0069880Y0078942D01*
X0069880Y0078550D02*
X0074024Y0078550D01*
X0074416Y0078158D02*
X0069880Y0078158D01*
X0069880Y0077766D02*
X0074913Y0077766D01*
X0075859Y0077373D02*
X0069880Y0077373D01*
X0069880Y0076981D02*
X0076880Y0076981D01*
X0076880Y0076589D02*
X0069880Y0076589D01*
X0069880Y0076197D02*
X0076880Y0076197D01*
X0076880Y0075804D02*
X0069880Y0075804D01*
X0069880Y0075412D02*
X0076880Y0075412D01*
X0076880Y0075020D02*
X0069880Y0075020D01*
X0069880Y0074628D02*
X0076880Y0074628D01*
X0076880Y0074236D02*
X0069880Y0074236D01*
X0069880Y0073843D02*
X0076880Y0073843D01*
X0076880Y0073451D02*
X0069880Y0073451D01*
X0069880Y0073059D02*
X0076880Y0073059D01*
X0076880Y0072667D02*
X0069880Y0072667D01*
X0069880Y0072275D02*
X0076880Y0072275D01*
X0076880Y0071882D02*
X0069880Y0071882D01*
X0069880Y0071490D02*
X0076880Y0071490D01*
X0076880Y0071098D02*
X0069880Y0071098D01*
X0069880Y0070706D02*
X0076880Y0070706D01*
X0076880Y0070313D02*
X0069880Y0070313D01*
X0069880Y0069921D02*
X0076880Y0069921D01*
X0076880Y0069529D02*
X0069880Y0069529D01*
X0069880Y0069137D02*
X0076880Y0069137D01*
X0076880Y0068745D02*
X0069880Y0068745D01*
X0069880Y0068352D02*
X0076880Y0068352D01*
X0076880Y0067960D02*
X0069880Y0067960D01*
X0069880Y0067568D02*
X0076880Y0067568D01*
X0076880Y0067176D02*
X0069880Y0067176D01*
X0069880Y0066784D02*
X0076880Y0066784D01*
X0076880Y0066391D02*
X0069880Y0066391D01*
X0069880Y0065999D02*
X0076880Y0065999D01*
X0076880Y0065607D02*
X0069880Y0065607D01*
X0069880Y0065215D02*
X0076880Y0065215D01*
X0076880Y0064823D02*
X0069880Y0064823D01*
X0069880Y0064430D02*
X0076880Y0064430D01*
X0076880Y0064038D02*
X0069880Y0064038D01*
X0069880Y0063646D02*
X0076880Y0063646D01*
X0076880Y0063254D02*
X0069880Y0063254D01*
X0069880Y0062861D02*
X0076880Y0062861D01*
X0076880Y0062469D02*
X0069880Y0062469D01*
X0069880Y0062077D02*
X0076880Y0062077D01*
X0076880Y0061685D02*
X0069880Y0061685D01*
X0069880Y0061293D02*
X0076880Y0061293D01*
X0076880Y0060900D02*
X0069880Y0060900D01*
X0069880Y0060508D02*
X0076880Y0060508D01*
X0076880Y0060116D02*
X0069880Y0060116D01*
X0069880Y0059724D02*
X0076880Y0059724D01*
X0076880Y0059332D02*
X0069880Y0059332D01*
X0069880Y0058939D02*
X0076880Y0058939D01*
X0076880Y0058547D02*
X0069880Y0058547D01*
X0069880Y0058155D02*
X0076880Y0058155D01*
X0076880Y0057763D02*
X0069880Y0057763D01*
X0069880Y0057370D02*
X0076880Y0057370D01*
X0076880Y0056978D02*
X0069880Y0056978D01*
X0069880Y0056586D02*
X0076880Y0056586D01*
X0076880Y0056194D02*
X0069880Y0056194D01*
X0069880Y0055802D02*
X0076880Y0055802D01*
X0076880Y0055409D02*
X0069880Y0055409D01*
X0069880Y0055017D02*
X0076880Y0055017D01*
X0076880Y0054625D02*
X0069880Y0054625D01*
X0069880Y0054233D02*
X0076880Y0054233D01*
X0076880Y0053841D02*
X0069880Y0053841D01*
X0069880Y0053448D02*
X0076880Y0053448D01*
X0076880Y0053056D02*
X0069880Y0053056D01*
X0069880Y0052664D02*
X0076880Y0052664D01*
X0076880Y0052272D02*
X0069880Y0052272D01*
X0069880Y0051880D02*
X0076880Y0051880D01*
X0076880Y0051487D02*
X0069880Y0051487D01*
X0069880Y0051095D02*
X0076880Y0051095D01*
X0077227Y0050703D02*
X0069880Y0050703D01*
X0069880Y0050311D02*
X0077619Y0050311D01*
X0078012Y0049918D02*
X0069880Y0049918D01*
X0069880Y0049526D02*
X0078404Y0049526D01*
X0078796Y0049134D02*
X0069880Y0049134D01*
X0069880Y0048742D02*
X0070882Y0048742D01*
X0069936Y0048350D02*
X0069880Y0048350D01*
X0074378Y0048742D02*
X0079188Y0048742D01*
X0079580Y0048350D02*
X0075324Y0048350D01*
X0076271Y0047957D02*
X0079973Y0047957D01*
X0080365Y0047565D02*
X0076666Y0047565D01*
X0077058Y0047173D02*
X0080757Y0047173D01*
X0081149Y0046781D02*
X0077450Y0046781D01*
X0077843Y0046389D02*
X0081541Y0046389D01*
X0081934Y0045996D02*
X0078147Y0045996D01*
X0078310Y0045604D02*
X0082326Y0045604D01*
X0082718Y0045212D02*
X0078472Y0045212D01*
X0078635Y0044820D02*
X0083110Y0044820D01*
X0083503Y0044427D02*
X0078797Y0044427D01*
X0078960Y0044035D02*
X0083895Y0044035D01*
X0084287Y0043643D02*
X0079065Y0043643D01*
X0079065Y0043251D02*
X0084679Y0043251D01*
X0085071Y0042859D02*
X0079065Y0042859D01*
X0079065Y0042466D02*
X0085464Y0042466D01*
X0085856Y0042074D02*
X0079065Y0042074D01*
X0079065Y0041682D02*
X0086248Y0041682D01*
X0086640Y0041290D02*
X0079065Y0041290D01*
X0078932Y0040898D02*
X0087032Y0040898D01*
X0087425Y0040505D02*
X0078769Y0040505D01*
X0078607Y0040113D02*
X0087817Y0040113D01*
X0088209Y0039721D02*
X0078445Y0039721D01*
X0078424Y0039329D02*
X0088601Y0039329D01*
X0088993Y0038937D02*
X0078586Y0038937D01*
X0078749Y0038544D02*
X0089386Y0038544D01*
X0089778Y0038152D02*
X0078911Y0038152D01*
X0079065Y0037760D02*
X0090170Y0037760D01*
X0090562Y0037368D02*
X0079065Y0037368D01*
X0079065Y0036975D02*
X0090955Y0036975D01*
X0091347Y0036583D02*
X0079065Y0036583D01*
X0079065Y0036191D02*
X0091739Y0036191D01*
X0092131Y0035799D02*
X0079065Y0035799D01*
X0079065Y0035407D02*
X0092523Y0035407D01*
X0092916Y0035014D02*
X0078980Y0035014D01*
X0078818Y0034622D02*
X0093308Y0034622D01*
X0093700Y0034230D02*
X0078655Y0034230D01*
X0078493Y0033838D02*
X0094092Y0033838D01*
X0094484Y0033446D02*
X0078330Y0033446D01*
X0078168Y0033053D02*
X0094877Y0033053D01*
X0095269Y0032661D02*
X0077892Y0032661D01*
X0077500Y0032269D02*
X0095661Y0032269D01*
X0096053Y0031877D02*
X0077108Y0031877D01*
X0076716Y0031484D02*
X0096446Y0031484D01*
X0096838Y0031092D02*
X0076323Y0031092D01*
X0075444Y0030700D02*
X0097230Y0030700D01*
X0097622Y0030308D02*
X0074497Y0030308D01*
X0072799Y0029131D02*
X0098799Y0029131D01*
X0099191Y0028739D02*
X0087191Y0028739D01*
X0087583Y0028347D02*
X0099583Y0028347D01*
X0099975Y0027955D02*
X0087975Y0027955D01*
X0088368Y0027562D02*
X0100368Y0027562D01*
X0100760Y0027170D02*
X0088760Y0027170D01*
X0089152Y0026778D02*
X0101152Y0026778D01*
X0101544Y0026386D02*
X0089544Y0026386D01*
X0089936Y0025994D02*
X0101936Y0025994D01*
X0102329Y0025601D02*
X0090329Y0025601D01*
X0090721Y0025209D02*
X0102721Y0025209D01*
X0103113Y0024817D02*
X0091113Y0024817D01*
X0091505Y0024425D02*
X0103505Y0024425D01*
X0103898Y0024032D02*
X0091898Y0024032D01*
X0092290Y0023640D02*
X0104290Y0023640D01*
X0104682Y0023248D02*
X0092682Y0023248D01*
X0093074Y0022856D02*
X0207053Y0022856D01*
X0206661Y0023248D02*
X0142078Y0023248D01*
X0142470Y0023640D02*
X0206269Y0023640D01*
X0205877Y0024032D02*
X0142862Y0024032D01*
X0143255Y0024425D02*
X0205484Y0024425D01*
X0205092Y0024817D02*
X0143647Y0024817D01*
X0144039Y0025209D02*
X0204700Y0025209D01*
X0204308Y0025601D02*
X0144431Y0025601D01*
X0144823Y0025994D02*
X0203915Y0025994D01*
X0203523Y0026386D02*
X0145216Y0026386D01*
X0145608Y0026778D02*
X0203131Y0026778D01*
X0202739Y0027170D02*
X0146000Y0027170D01*
X0146392Y0027562D02*
X0202347Y0027562D01*
X0201954Y0027955D02*
X0146785Y0027955D01*
X0147177Y0028347D02*
X0201562Y0028347D01*
X0201170Y0028739D02*
X0147569Y0028739D01*
X0147961Y0029131D02*
X0200778Y0029131D01*
X0200386Y0029523D02*
X0148353Y0029523D01*
X0148746Y0029916D02*
X0199993Y0029916D01*
X0199601Y0030308D02*
X0149138Y0030308D01*
X0149530Y0030700D02*
X0199209Y0030700D01*
X0198817Y0031092D02*
X0149922Y0031092D01*
X0150314Y0031484D02*
X0198424Y0031484D01*
X0198032Y0031877D02*
X0150707Y0031877D01*
X0151099Y0032269D02*
X0197640Y0032269D01*
X0197248Y0032661D02*
X0151491Y0032661D01*
X0151883Y0033053D02*
X0196856Y0033053D01*
X0196463Y0033446D02*
X0152276Y0033446D01*
X0152668Y0033838D02*
X0196071Y0033838D01*
X0199251Y0021679D02*
X0208230Y0021679D01*
X0208622Y0021287D02*
X0199643Y0021287D01*
X0200035Y0020895D02*
X0209014Y0020895D01*
X0209406Y0020503D02*
X0200427Y0020503D01*
X0200820Y0020110D02*
X0209799Y0020110D01*
X0210191Y0019718D02*
X0201212Y0019718D01*
X0201604Y0019326D02*
X0210583Y0019326D01*
X0210975Y0018934D02*
X0201996Y0018934D01*
X0202389Y0018541D02*
X0211367Y0018541D01*
X0211760Y0018149D02*
X0202781Y0018149D01*
X0202880Y0017757D02*
X0211880Y0017757D01*
X0211880Y0017365D02*
X0202880Y0017365D01*
X0202880Y0016973D02*
X0211880Y0016973D01*
X0211880Y0016580D02*
X0202880Y0016580D01*
X0202880Y0016188D02*
X0211880Y0016188D01*
X0211880Y0015796D02*
X0202880Y0015796D01*
X0202880Y0015404D02*
X0211880Y0015404D01*
X0211880Y0015012D02*
X0202880Y0015012D01*
X0202880Y0014619D02*
X0211880Y0014619D01*
X0211880Y0014227D02*
X0202880Y0014227D01*
X0202880Y0013835D02*
X0211880Y0013835D01*
X0211880Y0013443D02*
X0202880Y0013443D01*
X0202880Y0013051D02*
X0211880Y0013051D01*
X0211880Y0012658D02*
X0202880Y0012658D01*
X0202880Y0012266D02*
X0211880Y0012266D01*
X0211880Y0011874D02*
X0202880Y0011874D01*
X0202880Y0011482D02*
X0211880Y0011482D01*
X0211880Y0011089D02*
X0202880Y0011089D01*
X0207838Y0022071D02*
X0093859Y0022071D01*
X0094251Y0021679D02*
X0153509Y0021679D01*
X0153117Y0021287D02*
X0094643Y0021287D01*
X0095035Y0020895D02*
X0152725Y0020895D01*
X0152333Y0020503D02*
X0095427Y0020503D01*
X0095820Y0020110D02*
X0151940Y0020110D01*
X0151548Y0019718D02*
X0096212Y0019718D01*
X0096604Y0019326D02*
X0151156Y0019326D01*
X0150764Y0018934D02*
X0096996Y0018934D01*
X0097389Y0018541D02*
X0150371Y0018541D01*
X0149979Y0018149D02*
X0097781Y0018149D01*
X0098173Y0017757D02*
X0149587Y0017757D01*
X0149195Y0017365D02*
X0098565Y0017365D01*
X0098957Y0016973D02*
X0148803Y0016973D01*
X0148410Y0016580D02*
X0099350Y0016580D01*
X0099742Y0016188D02*
X0148018Y0016188D01*
X0147626Y0015796D02*
X0100134Y0015796D01*
X0100526Y0015404D02*
X0147234Y0015404D01*
X0146842Y0015012D02*
X0100918Y0015012D01*
X0101311Y0014619D02*
X0146449Y0014619D01*
X0146057Y0014227D02*
X0101703Y0014227D01*
X0102095Y0013835D02*
X0145665Y0013835D01*
X0145273Y0013443D02*
X0102487Y0013443D01*
X0102879Y0013051D02*
X0144880Y0013051D01*
X0098407Y0029523D02*
X0072407Y0029523D01*
X0072014Y0029916D02*
X0098014Y0029916D01*
X0093466Y0022464D02*
X0207445Y0022464D01*
X0099875Y0074236D02*
X0092880Y0074236D01*
X0092946Y0074628D02*
X0099483Y0074628D01*
X0099090Y0075020D02*
X0093279Y0075020D01*
X0093612Y0075412D02*
X0098698Y0075412D01*
X0098306Y0075804D02*
X0093944Y0075804D01*
X0094277Y0076197D02*
X0097914Y0076197D01*
X0097522Y0076589D02*
X0094610Y0076589D01*
X0094943Y0076981D02*
X0097129Y0076981D01*
X0096737Y0077373D02*
X0095276Y0077373D01*
X0095608Y0077766D02*
X0096345Y0077766D01*
X0095953Y0078158D02*
X0095941Y0078158D01*
X0070297Y0114633D02*
X0051880Y0114633D01*
X0051880Y0115026D02*
X0069904Y0115026D01*
X0069512Y0115418D02*
X0051880Y0115418D01*
X0051880Y0115810D02*
X0069120Y0115810D01*
X0068728Y0116202D02*
X0051880Y0116202D01*
X0051880Y0116595D02*
X0068335Y0116595D01*
X0067943Y0116987D02*
X0051880Y0116987D01*
X0052209Y0117379D02*
X0067551Y0117379D01*
X0067159Y0117771D02*
X0052601Y0117771D01*
X0052993Y0118163D02*
X0066767Y0118163D01*
X0066374Y0118556D02*
X0053386Y0118556D01*
X0053778Y0118948D02*
X0065982Y0118948D01*
X0065590Y0119340D02*
X0054170Y0119340D01*
X0054562Y0119732D02*
X0065198Y0119732D01*
X0064806Y0120124D02*
X0054954Y0120124D01*
X0055347Y0120517D02*
X0064413Y0120517D01*
X0064021Y0120909D02*
X0055739Y0120909D01*
X0056131Y0121301D02*
X0063629Y0121301D01*
X0063237Y0121693D02*
X0056523Y0121693D01*
X0053877Y0124047D02*
X0033880Y0124047D01*
X0033880Y0124439D02*
X0054269Y0124439D01*
X0054661Y0124831D02*
X0033880Y0124831D01*
X0033880Y0125050D02*
X0033880Y0121050D01*
X0035880Y0119050D01*
X0048880Y0119050D01*
X0054880Y0125050D01*
X0061880Y0125050D01*
X0067880Y0131050D01*
X0067880Y0162050D01*
X0063880Y0166050D01*
X0061880Y0166050D01*
X0056880Y0161050D01*
X0056880Y0148050D01*
X0033880Y0125050D01*
X0034053Y0125223D02*
X0062053Y0125223D01*
X0062445Y0125615D02*
X0034445Y0125615D01*
X0034838Y0126008D02*
X0062838Y0126008D01*
X0063230Y0126400D02*
X0035230Y0126400D01*
X0035622Y0126792D02*
X0063622Y0126792D01*
X0064014Y0127184D02*
X0036014Y0127184D01*
X0036406Y0127576D02*
X0064406Y0127576D01*
X0064799Y0127969D02*
X0036799Y0127969D01*
X0037191Y0128361D02*
X0065191Y0128361D01*
X0065583Y0128753D02*
X0037583Y0128753D01*
X0037975Y0129145D02*
X0065975Y0129145D01*
X0066367Y0129537D02*
X0038367Y0129537D01*
X0038760Y0129930D02*
X0066760Y0129930D01*
X0067152Y0130322D02*
X0039152Y0130322D01*
X0039544Y0130714D02*
X0067544Y0130714D01*
X0067880Y0131106D02*
X0039936Y0131106D01*
X0040329Y0131499D02*
X0067880Y0131499D01*
X0067880Y0131891D02*
X0040721Y0131891D01*
X0041113Y0132283D02*
X0067880Y0132283D01*
X0067880Y0132675D02*
X0041505Y0132675D01*
X0041897Y0133067D02*
X0067880Y0133067D01*
X0067880Y0133460D02*
X0042290Y0133460D01*
X0042682Y0133852D02*
X0067880Y0133852D01*
X0067880Y0134244D02*
X0043074Y0134244D01*
X0043466Y0134636D02*
X0067880Y0134636D01*
X0067880Y0135028D02*
X0043858Y0135028D01*
X0044251Y0135421D02*
X0067880Y0135421D01*
X0067880Y0135813D02*
X0044643Y0135813D01*
X0045035Y0136205D02*
X0067880Y0136205D01*
X0067880Y0136597D02*
X0045427Y0136597D01*
X0045820Y0136990D02*
X0067880Y0136990D01*
X0067880Y0137382D02*
X0046212Y0137382D01*
X0046604Y0137774D02*
X0067880Y0137774D01*
X0067880Y0138166D02*
X0046996Y0138166D01*
X0047388Y0138558D02*
X0067880Y0138558D01*
X0067880Y0138951D02*
X0047781Y0138951D01*
X0048173Y0139343D02*
X0067880Y0139343D01*
X0067880Y0139735D02*
X0048565Y0139735D01*
X0048957Y0140127D02*
X0067880Y0140127D01*
X0067880Y0140519D02*
X0049349Y0140519D01*
X0049742Y0140912D02*
X0067880Y0140912D01*
X0067880Y0141304D02*
X0050134Y0141304D01*
X0050526Y0141696D02*
X0067880Y0141696D01*
X0067880Y0142088D02*
X0050918Y0142088D01*
X0051310Y0142480D02*
X0067880Y0142480D01*
X0067880Y0142873D02*
X0051703Y0142873D01*
X0052095Y0143265D02*
X0067880Y0143265D01*
X0067880Y0143657D02*
X0052487Y0143657D01*
X0052879Y0144049D02*
X0067880Y0144049D01*
X0067880Y0144442D02*
X0053272Y0144442D01*
X0053664Y0144834D02*
X0067880Y0144834D01*
X0067880Y0145226D02*
X0054056Y0145226D01*
X0054448Y0145618D02*
X0067880Y0145618D01*
X0067880Y0146010D02*
X0054840Y0146010D01*
X0055233Y0146403D02*
X0067880Y0146403D01*
X0067880Y0146795D02*
X0055625Y0146795D01*
X0056017Y0147187D02*
X0067880Y0147187D01*
X0067880Y0147579D02*
X0056409Y0147579D01*
X0056801Y0147971D02*
X0067880Y0147971D01*
X0067880Y0148364D02*
X0056880Y0148364D01*
X0056880Y0148756D02*
X0067880Y0148756D01*
X0067880Y0149148D02*
X0056880Y0149148D01*
X0056880Y0149540D02*
X0067880Y0149540D01*
X0067880Y0149933D02*
X0056880Y0149933D01*
X0056880Y0150325D02*
X0067880Y0150325D01*
X0067880Y0150717D02*
X0056880Y0150717D01*
X0056880Y0151109D02*
X0067880Y0151109D01*
X0067880Y0151501D02*
X0056880Y0151501D01*
X0056880Y0151894D02*
X0067880Y0151894D01*
X0067880Y0152286D02*
X0056880Y0152286D01*
X0056880Y0152678D02*
X0067880Y0152678D01*
X0067880Y0153070D02*
X0056880Y0153070D01*
X0056880Y0153462D02*
X0067880Y0153462D01*
X0067880Y0153855D02*
X0056880Y0153855D01*
X0056880Y0154247D02*
X0067880Y0154247D01*
X0067880Y0154639D02*
X0056880Y0154639D01*
X0056880Y0155031D02*
X0067880Y0155031D01*
X0067880Y0155423D02*
X0056880Y0155423D01*
X0056880Y0155816D02*
X0067880Y0155816D01*
X0067880Y0156208D02*
X0056880Y0156208D01*
X0056880Y0156600D02*
X0067880Y0156600D01*
X0067880Y0156992D02*
X0056880Y0156992D01*
X0056880Y0157385D02*
X0067880Y0157385D01*
X0067880Y0157777D02*
X0056880Y0157777D01*
X0056880Y0158169D02*
X0067880Y0158169D01*
X0067880Y0158561D02*
X0056880Y0158561D01*
X0056880Y0158953D02*
X0067880Y0158953D01*
X0067880Y0159346D02*
X0056880Y0159346D01*
X0056880Y0159738D02*
X0067880Y0159738D01*
X0067880Y0160130D02*
X0056880Y0160130D01*
X0056880Y0160522D02*
X0067880Y0160522D01*
X0067880Y0160914D02*
X0056880Y0160914D01*
X0057137Y0161307D02*
X0067880Y0161307D01*
X0067880Y0161699D02*
X0057529Y0161699D01*
X0057921Y0162091D02*
X0067839Y0162091D01*
X0067447Y0162483D02*
X0058313Y0162483D01*
X0058706Y0162876D02*
X0067054Y0162876D01*
X0066662Y0163268D02*
X0059098Y0163268D01*
X0059490Y0163660D02*
X0066270Y0163660D01*
X0065878Y0164052D02*
X0059882Y0164052D01*
X0060274Y0164444D02*
X0065486Y0164444D01*
X0065093Y0164837D02*
X0060667Y0164837D01*
X0061059Y0165229D02*
X0064701Y0165229D01*
X0064309Y0165621D02*
X0061451Y0165621D01*
X0061843Y0166013D02*
X0063917Y0166013D01*
X0053484Y0123654D02*
X0033880Y0123654D01*
X0033880Y0123262D02*
X0053092Y0123262D01*
X0052700Y0122870D02*
X0033880Y0122870D01*
X0033880Y0122478D02*
X0052308Y0122478D01*
X0051915Y0122085D02*
X0033880Y0122085D01*
X0033880Y0121693D02*
X0051523Y0121693D01*
X0051131Y0121301D02*
X0033880Y0121301D01*
X0034021Y0120909D02*
X0050739Y0120909D01*
X0050347Y0120517D02*
X0034413Y0120517D01*
X0034806Y0120124D02*
X0049954Y0120124D01*
X0049562Y0119732D02*
X0035198Y0119732D01*
X0035590Y0119340D02*
X0049170Y0119340D01*
D30*
X0051880Y0127050D02*
X0041880Y0127050D01*
X0035130Y0120300D01*
X0051880Y0127050D02*
X0062130Y0137300D01*
X0062130Y0163800D01*
D31*
X0060130Y0120800D02*
X0072630Y0108300D01*
X0072630Y0039500D01*
D32*
X0082430Y0039500D01*
X0104880Y0017050D01*
X0142880Y0017050D01*
X0151880Y0026050D01*
X0198880Y0026050D01*
X0205880Y0019050D01*
X0205880Y0015050D01*
X0206130Y0014800D01*
M02*
