%
M48
M72
T01C0.01181
T02C0.01575
T03C0.01969
T04C0.03200
T05C0.03600
T06C0.03740
T07C0.04000
T08C0.05118
T09C0.07874
%
T01
X76880Y81050
X96130Y93300
X95630Y103300
X85630Y106800
X81130Y111300
X76880Y112550
X75130Y116300
X83130Y129800
X85130Y133300
X91130Y140800
X104380Y149050
X88130Y166300
X103130Y173800
X108130Y182300
X112130Y194800
X124130Y194800
X142130Y180300
X146130Y180300
X150130Y180300
X154130Y180300
X158130Y180300
X162130Y180300
X170130Y180300
X169630Y185300
X176630Y180300
X142130Y174800
X162630Y147300
X161630Y141300
X172630Y138300
X144380Y131550
X141880Y134550
X141380Y125550
X141380Y121050
X141630Y114800
X137630Y109300
X140130Y99800
X149630Y97300
X149630Y90800
X149630Y84800
X150630Y74800
X172130Y83800
X175114Y89816
X178630Y92300
X172630Y95800
X186630Y91300
X171630Y107300
X182130Y112300
X130630Y123800
X126630Y123800
X123630Y106800
X118630Y106800
X119380Y99550
X99130Y115800
X97630Y119800
X103130Y125800
X103130Y129800
X62630Y171300
X71130Y177800
X98630Y193800
X86130Y211800
X76130Y211800
X66130Y211800
X56130Y211800
X124880Y44050
T02
X105130Y88300
X112130Y125800
X218880Y161050
X218880Y168300
X238130Y165300
X238130Y158300
X232289Y90800
X241447Y83989
X246069Y90800
X236947Y73989
X273947Y75957
X282947Y75957
X287447Y85957
X278447Y85957
T03
X36130Y11800
X36130Y21800
X36130Y31800
X36130Y41800
X36130Y51800
X46130Y51800
X56130Y51800
X81130Y64300
X86630Y59300
X95630Y68800
X103380Y78550
X91130Y79300
X65130Y76300
X66130Y89050
X89630Y102800
X105630Y104800
X139630Y74800
X140130Y61300
X118630Y36800
X102630Y36800
X100130Y41800
X96130Y11800
X46130Y11800
X46130Y21800
X38130Y103800
X32130Y103800
X35130Y120300
X60130Y120800
X42130Y156800
X34130Y156800
X62130Y163800
X31130Y181800
X33130Y199800
X117630Y158800
X122630Y158800
X122630Y153800
X117630Y153800
X117630Y148800
X122630Y148800
X127630Y148800
X127630Y153800
X127630Y158800
X176130Y191800
X198130Y191800
X206130Y151800
X206130Y146800
X201130Y146800
X201130Y141800
X201130Y136800
X201130Y131800
X201130Y126800
X201130Y121800
X201130Y116800
X206130Y116800
X206130Y121800
X206130Y126800
X206130Y131800
X206130Y136800
X206130Y141800
X211130Y141800
X211130Y136800
X211130Y131800
X211130Y126800
X211130Y121800
X211130Y116800
X213130Y90800
X217630Y90800
X211130Y64800
X211130Y59800
X211130Y54800
X211130Y49800
X211130Y44800
X206130Y49800
X206130Y54800
X206130Y59800
X206130Y64800
X201130Y64800
X201130Y59800
X201130Y54800
X183130Y44800
X178130Y78300
X211130Y146800
X211130Y151800
X216130Y151800
X221130Y151800
X226130Y151800
X231130Y151800
X236130Y151800
X241130Y151800
X246130Y151800
X251130Y151800
X256130Y151800
X261130Y151800
X266130Y151800
X266130Y156800
X271130Y156800
X276130Y156800
X276130Y151800
X271130Y151800
X281130Y156800
X281130Y161800
X276130Y161800
X281130Y31800
X286130Y31800
X291130Y31800
X291130Y26800
X286130Y26800
T04
X43213Y147438
X43213Y164761
T05
X113080Y31050
X138680Y31050
T06
X81177Y194800
X71177Y194800
X61177Y194800
X61177Y204800
X71177Y204800
X81177Y204800
T07
X81177Y184800
X71177Y184800
X61177Y184800
X120130Y204800
X130130Y204800
X140130Y204800
X150130Y204800
X160130Y204800
X170130Y204800
X180130Y204800
X190130Y204800
X206130Y204800
X216130Y204800
X226130Y204800
X236130Y204800
X246130Y204800
X256130Y204800
X266130Y204800
X276130Y204800
X276130Y14800
X266130Y14800
X256130Y14800
X246130Y14800
X236130Y14800
X226130Y14800
X206130Y14800
X196130Y14800
X186130Y14800
X176130Y14800
X166130Y14800
X156130Y14800
T08
X72630Y36500
X72630Y39500
X72630Y42500
X49030Y42500
X49030Y39500
X49030Y36500
X57830Y19800
X60830Y19800
X63830Y19800
T09
X86130Y14800
X286130Y150550
X104880Y206800
M30
