G75*
%MOIN*%
%OFA0B0*%
%FSLAX25Y25*%
%IPPOS*%
%LPD*%
%AMOC8*
5,1,8,0,0,1.08239X$1,22.5*
%
%ADD10C,0.00000*%
%ADD11R,0.03937X0.03937*%
%ADD12R,0.02362X0.00984*%
%ADD13R,0.00984X0.02362*%
%ADD14R,0.05118X0.05906*%
%ADD15R,0.05512X0.04724*%
%ADD16R,0.04331X0.03937*%
%ADD17R,0.03937X0.04331*%
%ADD18R,0.08661X0.04134*%
%ADD19R,0.03150X0.03937*%
%ADD20R,0.05906X0.05118*%
%ADD21R,0.03937X0.07087*%
%ADD22C,0.05000*%
%ADD23C,0.00866*%
%ADD24R,0.10000X0.02000*%
%ADD25R,0.07000X0.09000*%
%ADD26R,0.03937X0.04724*%
%ADD27R,0.05118X0.04134*%
%ADD28R,0.07087X0.05512*%
%ADD29R,0.09449X0.09449*%
%ADD30R,0.08800X0.04800*%
%ADD31R,0.08661X0.14173*%
%ADD32R,0.06299X0.09449*%
%ADD33R,0.04724X0.02165*%
%ADD34R,0.03500X0.03100*%
%ADD35R,0.07800X0.04000*%
%ADD36R,0.03900X0.01200*%
%ADD37C,0.01417*%
%ADD38C,0.03937*%
%ADD39R,0.03150X0.03150*%
%ADD40R,0.04000X0.02000*%
D10*
X0026130Y0004800D02*
X0026130Y0214800D01*
X0279204Y0214800D01*
X0280785Y0214145D02*
X0285716Y0209214D01*
X0286130Y0208214D02*
X0286130Y0165912D01*
X0286132Y0165774D01*
X0286137Y0165636D01*
X0286147Y0165498D01*
X0286160Y0165361D01*
X0286177Y0165224D01*
X0286197Y0165087D01*
X0286221Y0164951D01*
X0286249Y0164816D01*
X0286281Y0164681D01*
X0286316Y0164548D01*
X0286355Y0164415D01*
X0286397Y0164284D01*
X0286443Y0164154D01*
X0286492Y0164025D01*
X0286545Y0163897D01*
X0286601Y0163771D01*
X0286661Y0163646D01*
X0286724Y0163524D01*
X0286790Y0163402D01*
X0286860Y0163283D01*
X0286933Y0163166D01*
X0287009Y0163051D01*
X0287088Y0162937D01*
X0287170Y0162826D01*
X0287255Y0162717D01*
X0287343Y0162611D01*
X0287434Y0162507D01*
X0287527Y0162405D01*
X0287623Y0162306D01*
X0287623Y0162307D02*
X0295204Y0154726D01*
X0296130Y0152490D02*
X0296130Y0025628D01*
X0295544Y0024214D02*
X0287056Y0015726D01*
X0286130Y0013490D02*
X0286130Y0005800D01*
X0286128Y0005740D01*
X0286123Y0005679D01*
X0286114Y0005620D01*
X0286101Y0005561D01*
X0286085Y0005502D01*
X0286065Y0005445D01*
X0286042Y0005390D01*
X0286015Y0005335D01*
X0285986Y0005283D01*
X0285953Y0005232D01*
X0285917Y0005183D01*
X0285879Y0005137D01*
X0285837Y0005093D01*
X0285793Y0005051D01*
X0285747Y0005013D01*
X0285698Y0004977D01*
X0285647Y0004944D01*
X0285595Y0004915D01*
X0285540Y0004888D01*
X0285485Y0004865D01*
X0285428Y0004845D01*
X0285369Y0004829D01*
X0285310Y0004816D01*
X0285251Y0004807D01*
X0285190Y0004802D01*
X0285130Y0004800D01*
X0026130Y0004800D01*
X0082193Y0014800D02*
X0082195Y0014925D01*
X0082201Y0015050D01*
X0082211Y0015174D01*
X0082225Y0015298D01*
X0082242Y0015422D01*
X0082264Y0015545D01*
X0082290Y0015667D01*
X0082319Y0015789D01*
X0082352Y0015909D01*
X0082390Y0016028D01*
X0082430Y0016147D01*
X0082475Y0016263D01*
X0082523Y0016378D01*
X0082575Y0016492D01*
X0082631Y0016604D01*
X0082690Y0016714D01*
X0082752Y0016822D01*
X0082818Y0016929D01*
X0082887Y0017033D01*
X0082960Y0017134D01*
X0083035Y0017234D01*
X0083114Y0017331D01*
X0083196Y0017425D01*
X0083281Y0017517D01*
X0083368Y0017606D01*
X0083459Y0017692D01*
X0083552Y0017775D01*
X0083648Y0017856D01*
X0083746Y0017933D01*
X0083846Y0018007D01*
X0083949Y0018078D01*
X0084054Y0018145D01*
X0084162Y0018210D01*
X0084271Y0018270D01*
X0084382Y0018328D01*
X0084495Y0018381D01*
X0084609Y0018431D01*
X0084725Y0018478D01*
X0084842Y0018520D01*
X0084961Y0018559D01*
X0085081Y0018595D01*
X0085202Y0018626D01*
X0085324Y0018654D01*
X0085446Y0018677D01*
X0085570Y0018697D01*
X0085694Y0018713D01*
X0085818Y0018725D01*
X0085943Y0018733D01*
X0086068Y0018737D01*
X0086192Y0018737D01*
X0086317Y0018733D01*
X0086442Y0018725D01*
X0086566Y0018713D01*
X0086690Y0018697D01*
X0086814Y0018677D01*
X0086936Y0018654D01*
X0087058Y0018626D01*
X0087179Y0018595D01*
X0087299Y0018559D01*
X0087418Y0018520D01*
X0087535Y0018478D01*
X0087651Y0018431D01*
X0087765Y0018381D01*
X0087878Y0018328D01*
X0087989Y0018270D01*
X0088099Y0018210D01*
X0088206Y0018145D01*
X0088311Y0018078D01*
X0088414Y0018007D01*
X0088514Y0017933D01*
X0088612Y0017856D01*
X0088708Y0017775D01*
X0088801Y0017692D01*
X0088892Y0017606D01*
X0088979Y0017517D01*
X0089064Y0017425D01*
X0089146Y0017331D01*
X0089225Y0017234D01*
X0089300Y0017134D01*
X0089373Y0017033D01*
X0089442Y0016929D01*
X0089508Y0016822D01*
X0089570Y0016714D01*
X0089629Y0016604D01*
X0089685Y0016492D01*
X0089737Y0016378D01*
X0089785Y0016263D01*
X0089830Y0016147D01*
X0089870Y0016028D01*
X0089908Y0015909D01*
X0089941Y0015789D01*
X0089970Y0015667D01*
X0089996Y0015545D01*
X0090018Y0015422D01*
X0090035Y0015298D01*
X0090049Y0015174D01*
X0090059Y0015050D01*
X0090065Y0014925D01*
X0090067Y0014800D01*
X0090065Y0014675D01*
X0090059Y0014550D01*
X0090049Y0014426D01*
X0090035Y0014302D01*
X0090018Y0014178D01*
X0089996Y0014055D01*
X0089970Y0013933D01*
X0089941Y0013811D01*
X0089908Y0013691D01*
X0089870Y0013572D01*
X0089830Y0013453D01*
X0089785Y0013337D01*
X0089737Y0013222D01*
X0089685Y0013108D01*
X0089629Y0012996D01*
X0089570Y0012886D01*
X0089508Y0012778D01*
X0089442Y0012671D01*
X0089373Y0012567D01*
X0089300Y0012466D01*
X0089225Y0012366D01*
X0089146Y0012269D01*
X0089064Y0012175D01*
X0088979Y0012083D01*
X0088892Y0011994D01*
X0088801Y0011908D01*
X0088708Y0011825D01*
X0088612Y0011744D01*
X0088514Y0011667D01*
X0088414Y0011593D01*
X0088311Y0011522D01*
X0088206Y0011455D01*
X0088098Y0011390D01*
X0087989Y0011330D01*
X0087878Y0011272D01*
X0087765Y0011219D01*
X0087651Y0011169D01*
X0087535Y0011122D01*
X0087418Y0011080D01*
X0087299Y0011041D01*
X0087179Y0011005D01*
X0087058Y0010974D01*
X0086936Y0010946D01*
X0086814Y0010923D01*
X0086690Y0010903D01*
X0086566Y0010887D01*
X0086442Y0010875D01*
X0086317Y0010867D01*
X0086192Y0010863D01*
X0086068Y0010863D01*
X0085943Y0010867D01*
X0085818Y0010875D01*
X0085694Y0010887D01*
X0085570Y0010903D01*
X0085446Y0010923D01*
X0085324Y0010946D01*
X0085202Y0010974D01*
X0085081Y0011005D01*
X0084961Y0011041D01*
X0084842Y0011080D01*
X0084725Y0011122D01*
X0084609Y0011169D01*
X0084495Y0011219D01*
X0084382Y0011272D01*
X0084271Y0011330D01*
X0084161Y0011390D01*
X0084054Y0011455D01*
X0083949Y0011522D01*
X0083846Y0011593D01*
X0083746Y0011667D01*
X0083648Y0011744D01*
X0083552Y0011825D01*
X0083459Y0011908D01*
X0083368Y0011994D01*
X0083281Y0012083D01*
X0083196Y0012175D01*
X0083114Y0012269D01*
X0083035Y0012366D01*
X0082960Y0012466D01*
X0082887Y0012567D01*
X0082818Y0012671D01*
X0082752Y0012778D01*
X0082690Y0012886D01*
X0082631Y0012996D01*
X0082575Y0013108D01*
X0082523Y0013222D01*
X0082475Y0013337D01*
X0082430Y0013453D01*
X0082390Y0013572D01*
X0082352Y0013691D01*
X0082319Y0013811D01*
X0082290Y0013933D01*
X0082264Y0014055D01*
X0082242Y0014178D01*
X0082225Y0014302D01*
X0082211Y0014426D01*
X0082201Y0014550D01*
X0082195Y0014675D01*
X0082193Y0014800D01*
X0041613Y0147438D02*
X0041615Y0147518D01*
X0041621Y0147597D01*
X0041631Y0147676D01*
X0041645Y0147755D01*
X0041662Y0147833D01*
X0041684Y0147910D01*
X0041709Y0147985D01*
X0041739Y0148059D01*
X0041771Y0148132D01*
X0041808Y0148203D01*
X0041848Y0148272D01*
X0041891Y0148339D01*
X0041938Y0148404D01*
X0041987Y0148466D01*
X0042040Y0148526D01*
X0042096Y0148583D01*
X0042154Y0148638D01*
X0042215Y0148689D01*
X0042279Y0148737D01*
X0042345Y0148782D01*
X0042413Y0148824D01*
X0042483Y0148862D01*
X0042555Y0148896D01*
X0042628Y0148927D01*
X0042703Y0148955D01*
X0042780Y0148978D01*
X0042857Y0148998D01*
X0042935Y0149014D01*
X0043014Y0149026D01*
X0043093Y0149034D01*
X0043173Y0149038D01*
X0043253Y0149038D01*
X0043333Y0149034D01*
X0043412Y0149026D01*
X0043491Y0149014D01*
X0043569Y0148998D01*
X0043646Y0148978D01*
X0043723Y0148955D01*
X0043798Y0148927D01*
X0043871Y0148896D01*
X0043943Y0148862D01*
X0044013Y0148824D01*
X0044081Y0148782D01*
X0044147Y0148737D01*
X0044211Y0148689D01*
X0044272Y0148638D01*
X0044330Y0148583D01*
X0044386Y0148526D01*
X0044439Y0148466D01*
X0044488Y0148404D01*
X0044535Y0148339D01*
X0044578Y0148272D01*
X0044618Y0148203D01*
X0044655Y0148132D01*
X0044687Y0148059D01*
X0044717Y0147985D01*
X0044742Y0147910D01*
X0044764Y0147833D01*
X0044781Y0147755D01*
X0044795Y0147676D01*
X0044805Y0147597D01*
X0044811Y0147518D01*
X0044813Y0147438D01*
X0044811Y0147358D01*
X0044805Y0147279D01*
X0044795Y0147200D01*
X0044781Y0147121D01*
X0044764Y0147043D01*
X0044742Y0146966D01*
X0044717Y0146891D01*
X0044687Y0146817D01*
X0044655Y0146744D01*
X0044618Y0146673D01*
X0044578Y0146604D01*
X0044535Y0146537D01*
X0044488Y0146472D01*
X0044439Y0146410D01*
X0044386Y0146350D01*
X0044330Y0146293D01*
X0044272Y0146238D01*
X0044211Y0146187D01*
X0044147Y0146139D01*
X0044081Y0146094D01*
X0044013Y0146052D01*
X0043943Y0146014D01*
X0043871Y0145980D01*
X0043798Y0145949D01*
X0043723Y0145921D01*
X0043646Y0145898D01*
X0043569Y0145878D01*
X0043491Y0145862D01*
X0043412Y0145850D01*
X0043333Y0145842D01*
X0043253Y0145838D01*
X0043173Y0145838D01*
X0043093Y0145842D01*
X0043014Y0145850D01*
X0042935Y0145862D01*
X0042857Y0145878D01*
X0042780Y0145898D01*
X0042703Y0145921D01*
X0042628Y0145949D01*
X0042555Y0145980D01*
X0042483Y0146014D01*
X0042413Y0146052D01*
X0042345Y0146094D01*
X0042279Y0146139D01*
X0042215Y0146187D01*
X0042154Y0146238D01*
X0042096Y0146293D01*
X0042040Y0146350D01*
X0041987Y0146410D01*
X0041938Y0146472D01*
X0041891Y0146537D01*
X0041848Y0146604D01*
X0041808Y0146673D01*
X0041771Y0146744D01*
X0041739Y0146817D01*
X0041709Y0146891D01*
X0041684Y0146966D01*
X0041662Y0147043D01*
X0041645Y0147121D01*
X0041631Y0147200D01*
X0041621Y0147279D01*
X0041615Y0147358D01*
X0041613Y0147438D01*
X0041613Y0164761D02*
X0041615Y0164841D01*
X0041621Y0164920D01*
X0041631Y0164999D01*
X0041645Y0165078D01*
X0041662Y0165156D01*
X0041684Y0165233D01*
X0041709Y0165308D01*
X0041739Y0165382D01*
X0041771Y0165455D01*
X0041808Y0165526D01*
X0041848Y0165595D01*
X0041891Y0165662D01*
X0041938Y0165727D01*
X0041987Y0165789D01*
X0042040Y0165849D01*
X0042096Y0165906D01*
X0042154Y0165961D01*
X0042215Y0166012D01*
X0042279Y0166060D01*
X0042345Y0166105D01*
X0042413Y0166147D01*
X0042483Y0166185D01*
X0042555Y0166219D01*
X0042628Y0166250D01*
X0042703Y0166278D01*
X0042780Y0166301D01*
X0042857Y0166321D01*
X0042935Y0166337D01*
X0043014Y0166349D01*
X0043093Y0166357D01*
X0043173Y0166361D01*
X0043253Y0166361D01*
X0043333Y0166357D01*
X0043412Y0166349D01*
X0043491Y0166337D01*
X0043569Y0166321D01*
X0043646Y0166301D01*
X0043723Y0166278D01*
X0043798Y0166250D01*
X0043871Y0166219D01*
X0043943Y0166185D01*
X0044013Y0166147D01*
X0044081Y0166105D01*
X0044147Y0166060D01*
X0044211Y0166012D01*
X0044272Y0165961D01*
X0044330Y0165906D01*
X0044386Y0165849D01*
X0044439Y0165789D01*
X0044488Y0165727D01*
X0044535Y0165662D01*
X0044578Y0165595D01*
X0044618Y0165526D01*
X0044655Y0165455D01*
X0044687Y0165382D01*
X0044717Y0165308D01*
X0044742Y0165233D01*
X0044764Y0165156D01*
X0044781Y0165078D01*
X0044795Y0164999D01*
X0044805Y0164920D01*
X0044811Y0164841D01*
X0044813Y0164761D01*
X0044811Y0164681D01*
X0044805Y0164602D01*
X0044795Y0164523D01*
X0044781Y0164444D01*
X0044764Y0164366D01*
X0044742Y0164289D01*
X0044717Y0164214D01*
X0044687Y0164140D01*
X0044655Y0164067D01*
X0044618Y0163996D01*
X0044578Y0163927D01*
X0044535Y0163860D01*
X0044488Y0163795D01*
X0044439Y0163733D01*
X0044386Y0163673D01*
X0044330Y0163616D01*
X0044272Y0163561D01*
X0044211Y0163510D01*
X0044147Y0163462D01*
X0044081Y0163417D01*
X0044013Y0163375D01*
X0043943Y0163337D01*
X0043871Y0163303D01*
X0043798Y0163272D01*
X0043723Y0163244D01*
X0043646Y0163221D01*
X0043569Y0163201D01*
X0043491Y0163185D01*
X0043412Y0163173D01*
X0043333Y0163165D01*
X0043253Y0163161D01*
X0043173Y0163161D01*
X0043093Y0163165D01*
X0043014Y0163173D01*
X0042935Y0163185D01*
X0042857Y0163201D01*
X0042780Y0163221D01*
X0042703Y0163244D01*
X0042628Y0163272D01*
X0042555Y0163303D01*
X0042483Y0163337D01*
X0042413Y0163375D01*
X0042345Y0163417D01*
X0042279Y0163462D01*
X0042215Y0163510D01*
X0042154Y0163561D01*
X0042096Y0163616D01*
X0042040Y0163673D01*
X0041987Y0163733D01*
X0041938Y0163795D01*
X0041891Y0163860D01*
X0041848Y0163927D01*
X0041808Y0163996D01*
X0041771Y0164067D01*
X0041739Y0164140D01*
X0041709Y0164214D01*
X0041684Y0164289D01*
X0041662Y0164366D01*
X0041645Y0164444D01*
X0041631Y0164523D01*
X0041621Y0164602D01*
X0041615Y0164681D01*
X0041613Y0164761D01*
X0100943Y0206800D02*
X0100945Y0206925D01*
X0100951Y0207050D01*
X0100961Y0207174D01*
X0100975Y0207298D01*
X0100992Y0207422D01*
X0101014Y0207545D01*
X0101040Y0207667D01*
X0101069Y0207789D01*
X0101102Y0207909D01*
X0101140Y0208028D01*
X0101180Y0208147D01*
X0101225Y0208263D01*
X0101273Y0208378D01*
X0101325Y0208492D01*
X0101381Y0208604D01*
X0101440Y0208714D01*
X0101502Y0208822D01*
X0101568Y0208929D01*
X0101637Y0209033D01*
X0101710Y0209134D01*
X0101785Y0209234D01*
X0101864Y0209331D01*
X0101946Y0209425D01*
X0102031Y0209517D01*
X0102118Y0209606D01*
X0102209Y0209692D01*
X0102302Y0209775D01*
X0102398Y0209856D01*
X0102496Y0209933D01*
X0102596Y0210007D01*
X0102699Y0210078D01*
X0102804Y0210145D01*
X0102912Y0210210D01*
X0103021Y0210270D01*
X0103132Y0210328D01*
X0103245Y0210381D01*
X0103359Y0210431D01*
X0103475Y0210478D01*
X0103592Y0210520D01*
X0103711Y0210559D01*
X0103831Y0210595D01*
X0103952Y0210626D01*
X0104074Y0210654D01*
X0104196Y0210677D01*
X0104320Y0210697D01*
X0104444Y0210713D01*
X0104568Y0210725D01*
X0104693Y0210733D01*
X0104818Y0210737D01*
X0104942Y0210737D01*
X0105067Y0210733D01*
X0105192Y0210725D01*
X0105316Y0210713D01*
X0105440Y0210697D01*
X0105564Y0210677D01*
X0105686Y0210654D01*
X0105808Y0210626D01*
X0105929Y0210595D01*
X0106049Y0210559D01*
X0106168Y0210520D01*
X0106285Y0210478D01*
X0106401Y0210431D01*
X0106515Y0210381D01*
X0106628Y0210328D01*
X0106739Y0210270D01*
X0106849Y0210210D01*
X0106956Y0210145D01*
X0107061Y0210078D01*
X0107164Y0210007D01*
X0107264Y0209933D01*
X0107362Y0209856D01*
X0107458Y0209775D01*
X0107551Y0209692D01*
X0107642Y0209606D01*
X0107729Y0209517D01*
X0107814Y0209425D01*
X0107896Y0209331D01*
X0107975Y0209234D01*
X0108050Y0209134D01*
X0108123Y0209033D01*
X0108192Y0208929D01*
X0108258Y0208822D01*
X0108320Y0208714D01*
X0108379Y0208604D01*
X0108435Y0208492D01*
X0108487Y0208378D01*
X0108535Y0208263D01*
X0108580Y0208147D01*
X0108620Y0208028D01*
X0108658Y0207909D01*
X0108691Y0207789D01*
X0108720Y0207667D01*
X0108746Y0207545D01*
X0108768Y0207422D01*
X0108785Y0207298D01*
X0108799Y0207174D01*
X0108809Y0207050D01*
X0108815Y0206925D01*
X0108817Y0206800D01*
X0108815Y0206675D01*
X0108809Y0206550D01*
X0108799Y0206426D01*
X0108785Y0206302D01*
X0108768Y0206178D01*
X0108746Y0206055D01*
X0108720Y0205933D01*
X0108691Y0205811D01*
X0108658Y0205691D01*
X0108620Y0205572D01*
X0108580Y0205453D01*
X0108535Y0205337D01*
X0108487Y0205222D01*
X0108435Y0205108D01*
X0108379Y0204996D01*
X0108320Y0204886D01*
X0108258Y0204778D01*
X0108192Y0204671D01*
X0108123Y0204567D01*
X0108050Y0204466D01*
X0107975Y0204366D01*
X0107896Y0204269D01*
X0107814Y0204175D01*
X0107729Y0204083D01*
X0107642Y0203994D01*
X0107551Y0203908D01*
X0107458Y0203825D01*
X0107362Y0203744D01*
X0107264Y0203667D01*
X0107164Y0203593D01*
X0107061Y0203522D01*
X0106956Y0203455D01*
X0106848Y0203390D01*
X0106739Y0203330D01*
X0106628Y0203272D01*
X0106515Y0203219D01*
X0106401Y0203169D01*
X0106285Y0203122D01*
X0106168Y0203080D01*
X0106049Y0203041D01*
X0105929Y0203005D01*
X0105808Y0202974D01*
X0105686Y0202946D01*
X0105564Y0202923D01*
X0105440Y0202903D01*
X0105316Y0202887D01*
X0105192Y0202875D01*
X0105067Y0202867D01*
X0104942Y0202863D01*
X0104818Y0202863D01*
X0104693Y0202867D01*
X0104568Y0202875D01*
X0104444Y0202887D01*
X0104320Y0202903D01*
X0104196Y0202923D01*
X0104074Y0202946D01*
X0103952Y0202974D01*
X0103831Y0203005D01*
X0103711Y0203041D01*
X0103592Y0203080D01*
X0103475Y0203122D01*
X0103359Y0203169D01*
X0103245Y0203219D01*
X0103132Y0203272D01*
X0103021Y0203330D01*
X0102911Y0203390D01*
X0102804Y0203455D01*
X0102699Y0203522D01*
X0102596Y0203593D01*
X0102496Y0203667D01*
X0102398Y0203744D01*
X0102302Y0203825D01*
X0102209Y0203908D01*
X0102118Y0203994D01*
X0102031Y0204083D01*
X0101946Y0204175D01*
X0101864Y0204269D01*
X0101785Y0204366D01*
X0101710Y0204466D01*
X0101637Y0204567D01*
X0101568Y0204671D01*
X0101502Y0204778D01*
X0101440Y0204886D01*
X0101381Y0204996D01*
X0101325Y0205108D01*
X0101273Y0205222D01*
X0101225Y0205337D01*
X0101180Y0205453D01*
X0101140Y0205572D01*
X0101102Y0205691D01*
X0101069Y0205811D01*
X0101040Y0205933D01*
X0101014Y0206055D01*
X0100992Y0206178D01*
X0100975Y0206302D01*
X0100961Y0206426D01*
X0100951Y0206550D01*
X0100945Y0206675D01*
X0100943Y0206800D01*
X0279204Y0214800D02*
X0279296Y0214798D01*
X0279389Y0214792D01*
X0279481Y0214783D01*
X0279572Y0214770D01*
X0279663Y0214752D01*
X0279753Y0214732D01*
X0279842Y0214707D01*
X0279930Y0214679D01*
X0280017Y0214647D01*
X0280102Y0214612D01*
X0280186Y0214573D01*
X0280268Y0214531D01*
X0280349Y0214485D01*
X0280427Y0214436D01*
X0280503Y0214384D01*
X0280577Y0214329D01*
X0280649Y0214270D01*
X0280718Y0214209D01*
X0280785Y0214145D01*
X0285716Y0209214D02*
X0285767Y0209160D01*
X0285815Y0209104D01*
X0285860Y0209045D01*
X0285902Y0208984D01*
X0285941Y0208921D01*
X0285976Y0208856D01*
X0286008Y0208789D01*
X0286036Y0208721D01*
X0286061Y0208651D01*
X0286082Y0208580D01*
X0286099Y0208508D01*
X0286113Y0208435D01*
X0286122Y0208362D01*
X0286128Y0208288D01*
X0286130Y0208214D01*
X0295204Y0154726D02*
X0295279Y0154648D01*
X0295351Y0154568D01*
X0295421Y0154485D01*
X0295487Y0154401D01*
X0295551Y0154313D01*
X0295612Y0154224D01*
X0295670Y0154133D01*
X0295724Y0154040D01*
X0295775Y0153945D01*
X0295824Y0153848D01*
X0295868Y0153750D01*
X0295910Y0153650D01*
X0295947Y0153549D01*
X0295982Y0153447D01*
X0296013Y0153343D01*
X0296040Y0153239D01*
X0296064Y0153133D01*
X0296084Y0153027D01*
X0296101Y0152921D01*
X0296113Y0152813D01*
X0296123Y0152706D01*
X0296128Y0152598D01*
X0296130Y0152490D01*
X0282193Y0150550D02*
X0282195Y0150675D01*
X0282201Y0150800D01*
X0282211Y0150924D01*
X0282225Y0151048D01*
X0282242Y0151172D01*
X0282264Y0151295D01*
X0282290Y0151417D01*
X0282319Y0151539D01*
X0282352Y0151659D01*
X0282390Y0151778D01*
X0282430Y0151897D01*
X0282475Y0152013D01*
X0282523Y0152128D01*
X0282575Y0152242D01*
X0282631Y0152354D01*
X0282690Y0152464D01*
X0282752Y0152572D01*
X0282818Y0152679D01*
X0282887Y0152783D01*
X0282960Y0152884D01*
X0283035Y0152984D01*
X0283114Y0153081D01*
X0283196Y0153175D01*
X0283281Y0153267D01*
X0283368Y0153356D01*
X0283459Y0153442D01*
X0283552Y0153525D01*
X0283648Y0153606D01*
X0283746Y0153683D01*
X0283846Y0153757D01*
X0283949Y0153828D01*
X0284054Y0153895D01*
X0284162Y0153960D01*
X0284271Y0154020D01*
X0284382Y0154078D01*
X0284495Y0154131D01*
X0284609Y0154181D01*
X0284725Y0154228D01*
X0284842Y0154270D01*
X0284961Y0154309D01*
X0285081Y0154345D01*
X0285202Y0154376D01*
X0285324Y0154404D01*
X0285446Y0154427D01*
X0285570Y0154447D01*
X0285694Y0154463D01*
X0285818Y0154475D01*
X0285943Y0154483D01*
X0286068Y0154487D01*
X0286192Y0154487D01*
X0286317Y0154483D01*
X0286442Y0154475D01*
X0286566Y0154463D01*
X0286690Y0154447D01*
X0286814Y0154427D01*
X0286936Y0154404D01*
X0287058Y0154376D01*
X0287179Y0154345D01*
X0287299Y0154309D01*
X0287418Y0154270D01*
X0287535Y0154228D01*
X0287651Y0154181D01*
X0287765Y0154131D01*
X0287878Y0154078D01*
X0287989Y0154020D01*
X0288099Y0153960D01*
X0288206Y0153895D01*
X0288311Y0153828D01*
X0288414Y0153757D01*
X0288514Y0153683D01*
X0288612Y0153606D01*
X0288708Y0153525D01*
X0288801Y0153442D01*
X0288892Y0153356D01*
X0288979Y0153267D01*
X0289064Y0153175D01*
X0289146Y0153081D01*
X0289225Y0152984D01*
X0289300Y0152884D01*
X0289373Y0152783D01*
X0289442Y0152679D01*
X0289508Y0152572D01*
X0289570Y0152464D01*
X0289629Y0152354D01*
X0289685Y0152242D01*
X0289737Y0152128D01*
X0289785Y0152013D01*
X0289830Y0151897D01*
X0289870Y0151778D01*
X0289908Y0151659D01*
X0289941Y0151539D01*
X0289970Y0151417D01*
X0289996Y0151295D01*
X0290018Y0151172D01*
X0290035Y0151048D01*
X0290049Y0150924D01*
X0290059Y0150800D01*
X0290065Y0150675D01*
X0290067Y0150550D01*
X0290065Y0150425D01*
X0290059Y0150300D01*
X0290049Y0150176D01*
X0290035Y0150052D01*
X0290018Y0149928D01*
X0289996Y0149805D01*
X0289970Y0149683D01*
X0289941Y0149561D01*
X0289908Y0149441D01*
X0289870Y0149322D01*
X0289830Y0149203D01*
X0289785Y0149087D01*
X0289737Y0148972D01*
X0289685Y0148858D01*
X0289629Y0148746D01*
X0289570Y0148636D01*
X0289508Y0148528D01*
X0289442Y0148421D01*
X0289373Y0148317D01*
X0289300Y0148216D01*
X0289225Y0148116D01*
X0289146Y0148019D01*
X0289064Y0147925D01*
X0288979Y0147833D01*
X0288892Y0147744D01*
X0288801Y0147658D01*
X0288708Y0147575D01*
X0288612Y0147494D01*
X0288514Y0147417D01*
X0288414Y0147343D01*
X0288311Y0147272D01*
X0288206Y0147205D01*
X0288098Y0147140D01*
X0287989Y0147080D01*
X0287878Y0147022D01*
X0287765Y0146969D01*
X0287651Y0146919D01*
X0287535Y0146872D01*
X0287418Y0146830D01*
X0287299Y0146791D01*
X0287179Y0146755D01*
X0287058Y0146724D01*
X0286936Y0146696D01*
X0286814Y0146673D01*
X0286690Y0146653D01*
X0286566Y0146637D01*
X0286442Y0146625D01*
X0286317Y0146617D01*
X0286192Y0146613D01*
X0286068Y0146613D01*
X0285943Y0146617D01*
X0285818Y0146625D01*
X0285694Y0146637D01*
X0285570Y0146653D01*
X0285446Y0146673D01*
X0285324Y0146696D01*
X0285202Y0146724D01*
X0285081Y0146755D01*
X0284961Y0146791D01*
X0284842Y0146830D01*
X0284725Y0146872D01*
X0284609Y0146919D01*
X0284495Y0146969D01*
X0284382Y0147022D01*
X0284271Y0147080D01*
X0284161Y0147140D01*
X0284054Y0147205D01*
X0283949Y0147272D01*
X0283846Y0147343D01*
X0283746Y0147417D01*
X0283648Y0147494D01*
X0283552Y0147575D01*
X0283459Y0147658D01*
X0283368Y0147744D01*
X0283281Y0147833D01*
X0283196Y0147925D01*
X0283114Y0148019D01*
X0283035Y0148116D01*
X0282960Y0148216D01*
X0282887Y0148317D01*
X0282818Y0148421D01*
X0282752Y0148528D01*
X0282690Y0148636D01*
X0282631Y0148746D01*
X0282575Y0148858D01*
X0282523Y0148972D01*
X0282475Y0149087D01*
X0282430Y0149203D01*
X0282390Y0149322D01*
X0282352Y0149441D01*
X0282319Y0149561D01*
X0282290Y0149683D01*
X0282264Y0149805D01*
X0282242Y0149928D01*
X0282225Y0150052D01*
X0282211Y0150176D01*
X0282201Y0150300D01*
X0282195Y0150425D01*
X0282193Y0150550D01*
X0296130Y0025628D02*
X0296128Y0025541D01*
X0296122Y0025454D01*
X0296113Y0025367D01*
X0296100Y0025281D01*
X0296083Y0025195D01*
X0296062Y0025110D01*
X0296037Y0025027D01*
X0296009Y0024944D01*
X0295978Y0024863D01*
X0295943Y0024783D01*
X0295904Y0024705D01*
X0295862Y0024628D01*
X0295817Y0024553D01*
X0295768Y0024481D01*
X0295717Y0024410D01*
X0295662Y0024342D01*
X0295605Y0024277D01*
X0295544Y0024214D01*
X0287056Y0015726D02*
X0286981Y0015648D01*
X0286909Y0015568D01*
X0286839Y0015485D01*
X0286773Y0015401D01*
X0286709Y0015313D01*
X0286648Y0015224D01*
X0286590Y0015133D01*
X0286536Y0015040D01*
X0286485Y0014945D01*
X0286436Y0014848D01*
X0286392Y0014750D01*
X0286350Y0014650D01*
X0286313Y0014549D01*
X0286278Y0014447D01*
X0286247Y0014343D01*
X0286220Y0014239D01*
X0286196Y0014133D01*
X0286176Y0014027D01*
X0286159Y0013921D01*
X0286147Y0013813D01*
X0286137Y0013706D01*
X0286132Y0013598D01*
X0286130Y0013490D01*
D11*
X0161232Y0085682D03*
X0156114Y0085682D03*
X0150996Y0085682D03*
X0150996Y0090800D03*
X0156114Y0090800D03*
X0156114Y0095918D03*
X0150996Y0095918D03*
X0161232Y0095918D03*
X0161232Y0090800D03*
D12*
X0167925Y0089816D03*
X0167925Y0091784D03*
X0167925Y0093753D03*
X0167925Y0095721D03*
X0167925Y0097690D03*
X0167925Y0099658D03*
X0167925Y0087847D03*
X0167925Y0085879D03*
X0167925Y0083910D03*
X0167925Y0081942D03*
X0144303Y0081942D03*
X0144303Y0083910D03*
X0144303Y0085879D03*
X0144303Y0087847D03*
X0144303Y0089816D03*
X0144303Y0091784D03*
X0144303Y0093753D03*
X0144303Y0095721D03*
X0144303Y0097690D03*
X0144303Y0099658D03*
D13*
X0147256Y0102611D03*
X0149224Y0102611D03*
X0151193Y0102611D03*
X0153161Y0102611D03*
X0155130Y0102611D03*
X0157098Y0102611D03*
X0159067Y0102611D03*
X0161036Y0102611D03*
X0163004Y0102611D03*
X0164973Y0102611D03*
X0164973Y0078989D03*
X0163004Y0078989D03*
X0161036Y0078989D03*
X0159067Y0078989D03*
X0157098Y0078989D03*
X0155130Y0078989D03*
X0153161Y0078989D03*
X0151193Y0078989D03*
X0149224Y0078989D03*
X0147256Y0078989D03*
D14*
X0182890Y0083300D03*
X0190370Y0083300D03*
X0190370Y0098800D03*
X0182890Y0098800D03*
X0045170Y0184100D03*
X0037690Y0184100D03*
D15*
X0153799Y0118450D03*
X0153799Y0112150D03*
X0162461Y0112150D03*
X0162461Y0118450D03*
D16*
X0185630Y0126454D03*
X0185630Y0133146D03*
X0193130Y0121146D03*
X0193130Y0114454D03*
X0191476Y0107800D03*
X0184784Y0107800D03*
X0201784Y0107800D03*
X0208476Y0107800D03*
X0208476Y0073800D03*
X0201784Y0073800D03*
X0191476Y0073800D03*
X0184784Y0073800D03*
X0125976Y0062050D03*
X0119284Y0062050D03*
X0079380Y0070454D03*
X0072380Y0070454D03*
X0072380Y0077146D03*
X0079380Y0077146D03*
X0074976Y0137800D03*
X0068284Y0137800D03*
X0068284Y0145800D03*
X0074976Y0145800D03*
X0074976Y0172300D03*
X0068284Y0172300D03*
X0091433Y0184572D03*
X0091433Y0191265D03*
X0051230Y0196454D03*
X0051230Y0203146D03*
D17*
X0091465Y0204111D03*
X0091465Y0197418D03*
X0074976Y0161800D03*
X0068284Y0161800D03*
X0068284Y0153800D03*
X0074976Y0153800D03*
X0106630Y0118646D03*
X0106630Y0111954D03*
X0128630Y0111954D03*
X0128630Y0118646D03*
X0146130Y0118646D03*
X0146130Y0111954D03*
X0170130Y0111954D03*
X0170130Y0118646D03*
X0185630Y0121146D03*
X0185630Y0114454D03*
X0193130Y0126454D03*
X0193130Y0133146D03*
X0212130Y0101146D03*
X0212130Y0094454D03*
X0212130Y0087146D03*
X0212130Y0080454D03*
X0133630Y0068146D03*
X0133630Y0061454D03*
X0125976Y0069300D03*
X0119284Y0069300D03*
X0111630Y0068146D03*
X0105630Y0068146D03*
X0105630Y0061454D03*
X0111630Y0061454D03*
X0079630Y0100454D03*
X0072380Y0100454D03*
X0072380Y0107146D03*
X0079630Y0107146D03*
D18*
X0202130Y0096213D03*
X0202130Y0085387D03*
D19*
X0196126Y0090800D03*
D20*
X0165130Y0068540D03*
X0165130Y0061060D03*
X0156130Y0061060D03*
X0156130Y0068540D03*
X0147130Y0068540D03*
X0147130Y0061060D03*
D21*
X0046392Y0127300D03*
X0035368Y0127300D03*
D22*
X0120130Y0153800D02*
X0120132Y0153899D01*
X0120138Y0153999D01*
X0120148Y0154098D01*
X0120162Y0154196D01*
X0120179Y0154294D01*
X0120201Y0154391D01*
X0120226Y0154487D01*
X0120255Y0154582D01*
X0120288Y0154676D01*
X0120325Y0154768D01*
X0120365Y0154859D01*
X0120409Y0154948D01*
X0120457Y0155036D01*
X0120508Y0155121D01*
X0120562Y0155204D01*
X0120619Y0155286D01*
X0120680Y0155364D01*
X0120744Y0155441D01*
X0120810Y0155514D01*
X0120880Y0155585D01*
X0120952Y0155653D01*
X0121027Y0155719D01*
X0121105Y0155781D01*
X0121185Y0155840D01*
X0121267Y0155896D01*
X0121351Y0155948D01*
X0121438Y0155997D01*
X0121526Y0156043D01*
X0121616Y0156085D01*
X0121708Y0156124D01*
X0121801Y0156159D01*
X0121895Y0156190D01*
X0121991Y0156217D01*
X0122088Y0156240D01*
X0122185Y0156260D01*
X0122283Y0156276D01*
X0122382Y0156288D01*
X0122481Y0156296D01*
X0122580Y0156300D01*
X0122680Y0156300D01*
X0122779Y0156296D01*
X0122878Y0156288D01*
X0122977Y0156276D01*
X0123075Y0156260D01*
X0123172Y0156240D01*
X0123269Y0156217D01*
X0123365Y0156190D01*
X0123459Y0156159D01*
X0123552Y0156124D01*
X0123644Y0156085D01*
X0123734Y0156043D01*
X0123822Y0155997D01*
X0123909Y0155948D01*
X0123993Y0155896D01*
X0124075Y0155840D01*
X0124155Y0155781D01*
X0124233Y0155719D01*
X0124308Y0155653D01*
X0124380Y0155585D01*
X0124450Y0155514D01*
X0124516Y0155441D01*
X0124580Y0155364D01*
X0124641Y0155286D01*
X0124698Y0155204D01*
X0124752Y0155121D01*
X0124803Y0155036D01*
X0124851Y0154948D01*
X0124895Y0154859D01*
X0124935Y0154768D01*
X0124972Y0154676D01*
X0125005Y0154582D01*
X0125034Y0154487D01*
X0125059Y0154391D01*
X0125081Y0154294D01*
X0125098Y0154196D01*
X0125112Y0154098D01*
X0125122Y0153999D01*
X0125128Y0153899D01*
X0125130Y0153800D01*
X0125128Y0153701D01*
X0125122Y0153601D01*
X0125112Y0153502D01*
X0125098Y0153404D01*
X0125081Y0153306D01*
X0125059Y0153209D01*
X0125034Y0153113D01*
X0125005Y0153018D01*
X0124972Y0152924D01*
X0124935Y0152832D01*
X0124895Y0152741D01*
X0124851Y0152652D01*
X0124803Y0152564D01*
X0124752Y0152479D01*
X0124698Y0152396D01*
X0124641Y0152314D01*
X0124580Y0152236D01*
X0124516Y0152159D01*
X0124450Y0152086D01*
X0124380Y0152015D01*
X0124308Y0151947D01*
X0124233Y0151881D01*
X0124155Y0151819D01*
X0124075Y0151760D01*
X0123993Y0151704D01*
X0123909Y0151652D01*
X0123822Y0151603D01*
X0123734Y0151557D01*
X0123644Y0151515D01*
X0123552Y0151476D01*
X0123459Y0151441D01*
X0123365Y0151410D01*
X0123269Y0151383D01*
X0123172Y0151360D01*
X0123075Y0151340D01*
X0122977Y0151324D01*
X0122878Y0151312D01*
X0122779Y0151304D01*
X0122680Y0151300D01*
X0122580Y0151300D01*
X0122481Y0151304D01*
X0122382Y0151312D01*
X0122283Y0151324D01*
X0122185Y0151340D01*
X0122088Y0151360D01*
X0121991Y0151383D01*
X0121895Y0151410D01*
X0121801Y0151441D01*
X0121708Y0151476D01*
X0121616Y0151515D01*
X0121526Y0151557D01*
X0121438Y0151603D01*
X0121351Y0151652D01*
X0121267Y0151704D01*
X0121185Y0151760D01*
X0121105Y0151819D01*
X0121027Y0151881D01*
X0120952Y0151947D01*
X0120880Y0152015D01*
X0120810Y0152086D01*
X0120744Y0152159D01*
X0120680Y0152236D01*
X0120619Y0152314D01*
X0120562Y0152396D01*
X0120508Y0152479D01*
X0120457Y0152564D01*
X0120409Y0152652D01*
X0120365Y0152741D01*
X0120325Y0152832D01*
X0120288Y0152924D01*
X0120255Y0153018D01*
X0120226Y0153113D01*
X0120201Y0153209D01*
X0120179Y0153306D01*
X0120162Y0153404D01*
X0120148Y0153502D01*
X0120138Y0153601D01*
X0120132Y0153701D01*
X0120130Y0153800D01*
D23*
X0110779Y0153692D02*
X0108693Y0153692D01*
X0108693Y0153908D01*
X0110779Y0153908D01*
X0110779Y0153692D01*
X0110779Y0151723D02*
X0108693Y0151723D01*
X0108693Y0151939D01*
X0110779Y0151939D01*
X0110779Y0151723D01*
X0110779Y0149755D02*
X0108693Y0149755D01*
X0108693Y0149971D01*
X0110779Y0149971D01*
X0110779Y0149755D01*
X0110779Y0147786D02*
X0108693Y0147786D01*
X0108693Y0148002D01*
X0110779Y0148002D01*
X0110779Y0147786D01*
X0110779Y0145818D02*
X0108693Y0145818D01*
X0108693Y0146034D01*
X0110779Y0146034D01*
X0110779Y0145818D01*
X0110779Y0143849D02*
X0108693Y0143849D01*
X0108693Y0144065D01*
X0110779Y0144065D01*
X0110779Y0143849D01*
X0112895Y0141949D02*
X0112895Y0139863D01*
X0112679Y0139863D01*
X0112679Y0141949D01*
X0112895Y0141949D01*
X0112895Y0140728D02*
X0112679Y0140728D01*
X0112679Y0141593D02*
X0112895Y0141593D01*
X0114864Y0141949D02*
X0114864Y0139863D01*
X0114648Y0139863D01*
X0114648Y0141949D01*
X0114864Y0141949D01*
X0114864Y0140728D02*
X0114648Y0140728D01*
X0114648Y0141593D02*
X0114864Y0141593D01*
X0116832Y0141949D02*
X0116832Y0139863D01*
X0116616Y0139863D01*
X0116616Y0141949D01*
X0116832Y0141949D01*
X0116832Y0140728D02*
X0116616Y0140728D01*
X0116616Y0141593D02*
X0116832Y0141593D01*
X0118801Y0141949D02*
X0118801Y0139863D01*
X0118585Y0139863D01*
X0118585Y0141949D01*
X0118801Y0141949D01*
X0118801Y0140728D02*
X0118585Y0140728D01*
X0118585Y0141593D02*
X0118801Y0141593D01*
X0120769Y0141949D02*
X0120769Y0139863D01*
X0120553Y0139863D01*
X0120553Y0141949D01*
X0120769Y0141949D01*
X0120769Y0140728D02*
X0120553Y0140728D01*
X0120553Y0141593D02*
X0120769Y0141593D01*
X0122738Y0141949D02*
X0122738Y0139863D01*
X0122522Y0139863D01*
X0122522Y0141949D01*
X0122738Y0141949D01*
X0122738Y0140728D02*
X0122522Y0140728D01*
X0122522Y0141593D02*
X0122738Y0141593D01*
X0124706Y0141949D02*
X0124706Y0139863D01*
X0124490Y0139863D01*
X0124490Y0141949D01*
X0124706Y0141949D01*
X0124706Y0140728D02*
X0124490Y0140728D01*
X0124490Y0141593D02*
X0124706Y0141593D01*
X0126675Y0141949D02*
X0126675Y0139863D01*
X0126459Y0139863D01*
X0126459Y0141949D01*
X0126675Y0141949D01*
X0126675Y0140728D02*
X0126459Y0140728D01*
X0126459Y0141593D02*
X0126675Y0141593D01*
X0128644Y0141949D02*
X0128644Y0139863D01*
X0128428Y0139863D01*
X0128428Y0141949D01*
X0128644Y0141949D01*
X0128644Y0140728D02*
X0128428Y0140728D01*
X0128428Y0141593D02*
X0128644Y0141593D01*
X0130612Y0141949D02*
X0130612Y0139863D01*
X0130396Y0139863D01*
X0130396Y0141949D01*
X0130612Y0141949D01*
X0130612Y0140728D02*
X0130396Y0140728D01*
X0130396Y0141593D02*
X0130612Y0141593D01*
X0132581Y0141949D02*
X0132581Y0139863D01*
X0132365Y0139863D01*
X0132365Y0141949D01*
X0132581Y0141949D01*
X0132581Y0140728D02*
X0132365Y0140728D01*
X0132365Y0141593D02*
X0132581Y0141593D01*
X0134481Y0144065D02*
X0136567Y0144065D01*
X0136567Y0143849D01*
X0134481Y0143849D01*
X0134481Y0144065D01*
X0134481Y0146034D02*
X0136567Y0146034D01*
X0136567Y0145818D01*
X0134481Y0145818D01*
X0134481Y0146034D01*
X0134481Y0148002D02*
X0136567Y0148002D01*
X0136567Y0147786D01*
X0134481Y0147786D01*
X0134481Y0148002D01*
X0134481Y0149971D02*
X0136567Y0149971D01*
X0136567Y0149755D01*
X0134481Y0149755D01*
X0134481Y0149971D01*
X0134481Y0151939D02*
X0136567Y0151939D01*
X0136567Y0151723D01*
X0134481Y0151723D01*
X0134481Y0151939D01*
X0134481Y0153908D02*
X0136567Y0153908D01*
X0136567Y0153692D01*
X0134481Y0153692D01*
X0134481Y0153908D01*
X0134481Y0155877D02*
X0136567Y0155877D01*
X0136567Y0155661D01*
X0134481Y0155661D01*
X0134481Y0155877D01*
X0134481Y0157845D02*
X0136567Y0157845D01*
X0136567Y0157629D01*
X0134481Y0157629D01*
X0134481Y0157845D01*
X0134481Y0159814D02*
X0136567Y0159814D01*
X0136567Y0159598D01*
X0134481Y0159598D01*
X0134481Y0159814D01*
X0134481Y0161782D02*
X0136567Y0161782D01*
X0136567Y0161566D01*
X0134481Y0161566D01*
X0134481Y0161782D01*
X0134481Y0163751D02*
X0136567Y0163751D01*
X0136567Y0163535D01*
X0134481Y0163535D01*
X0134481Y0163751D01*
X0132365Y0165651D02*
X0132365Y0167737D01*
X0132581Y0167737D01*
X0132581Y0165651D01*
X0132365Y0165651D01*
X0132365Y0166516D02*
X0132581Y0166516D01*
X0132581Y0167381D02*
X0132365Y0167381D01*
X0130396Y0167737D02*
X0130396Y0165651D01*
X0130396Y0167737D02*
X0130612Y0167737D01*
X0130612Y0165651D01*
X0130396Y0165651D01*
X0130396Y0166516D02*
X0130612Y0166516D01*
X0130612Y0167381D02*
X0130396Y0167381D01*
X0128428Y0167737D02*
X0128428Y0165651D01*
X0128428Y0167737D02*
X0128644Y0167737D01*
X0128644Y0165651D01*
X0128428Y0165651D01*
X0128428Y0166516D02*
X0128644Y0166516D01*
X0128644Y0167381D02*
X0128428Y0167381D01*
X0126459Y0167737D02*
X0126459Y0165651D01*
X0126459Y0167737D02*
X0126675Y0167737D01*
X0126675Y0165651D01*
X0126459Y0165651D01*
X0126459Y0166516D02*
X0126675Y0166516D01*
X0126675Y0167381D02*
X0126459Y0167381D01*
X0124490Y0167737D02*
X0124490Y0165651D01*
X0124490Y0167737D02*
X0124706Y0167737D01*
X0124706Y0165651D01*
X0124490Y0165651D01*
X0124490Y0166516D02*
X0124706Y0166516D01*
X0124706Y0167381D02*
X0124490Y0167381D01*
X0122522Y0167737D02*
X0122522Y0165651D01*
X0122522Y0167737D02*
X0122738Y0167737D01*
X0122738Y0165651D01*
X0122522Y0165651D01*
X0122522Y0166516D02*
X0122738Y0166516D01*
X0122738Y0167381D02*
X0122522Y0167381D01*
X0120553Y0167737D02*
X0120553Y0165651D01*
X0120553Y0167737D02*
X0120769Y0167737D01*
X0120769Y0165651D01*
X0120553Y0165651D01*
X0120553Y0166516D02*
X0120769Y0166516D01*
X0120769Y0167381D02*
X0120553Y0167381D01*
X0118585Y0167737D02*
X0118585Y0165651D01*
X0118585Y0167737D02*
X0118801Y0167737D01*
X0118801Y0165651D01*
X0118585Y0165651D01*
X0118585Y0166516D02*
X0118801Y0166516D01*
X0118801Y0167381D02*
X0118585Y0167381D01*
X0116616Y0167737D02*
X0116616Y0165651D01*
X0116616Y0167737D02*
X0116832Y0167737D01*
X0116832Y0165651D01*
X0116616Y0165651D01*
X0116616Y0166516D02*
X0116832Y0166516D01*
X0116832Y0167381D02*
X0116616Y0167381D01*
X0114648Y0167737D02*
X0114648Y0165651D01*
X0114648Y0167737D02*
X0114864Y0167737D01*
X0114864Y0165651D01*
X0114648Y0165651D01*
X0114648Y0166516D02*
X0114864Y0166516D01*
X0114864Y0167381D02*
X0114648Y0167381D01*
X0112679Y0167737D02*
X0112679Y0165651D01*
X0112679Y0167737D02*
X0112895Y0167737D01*
X0112895Y0165651D01*
X0112679Y0165651D01*
X0112679Y0166516D02*
X0112895Y0166516D01*
X0112895Y0167381D02*
X0112679Y0167381D01*
X0110779Y0163535D02*
X0108693Y0163535D01*
X0108693Y0163751D01*
X0110779Y0163751D01*
X0110779Y0163535D01*
X0110779Y0161566D02*
X0108693Y0161566D01*
X0108693Y0161782D01*
X0110779Y0161782D01*
X0110779Y0161566D01*
X0110779Y0159598D02*
X0108693Y0159598D01*
X0108693Y0159814D01*
X0110779Y0159814D01*
X0110779Y0159598D01*
X0110779Y0157629D02*
X0108693Y0157629D01*
X0108693Y0157845D01*
X0110779Y0157845D01*
X0110779Y0157629D01*
X0110779Y0155661D02*
X0108693Y0155661D01*
X0108693Y0155877D01*
X0110779Y0155877D01*
X0110779Y0155661D01*
D24*
X0054630Y0156099D03*
X0054630Y0159249D03*
X0054630Y0162398D03*
X0054630Y0152950D03*
X0054630Y0149800D03*
D25*
X0053213Y0139101D03*
X0031213Y0139101D03*
X0031213Y0173101D03*
X0053213Y0173101D03*
D26*
X0091630Y0177381D03*
X0091630Y0168719D03*
D27*
X0113102Y0118942D03*
X0113102Y0111658D03*
X0122158Y0111658D03*
X0122158Y0118942D03*
D28*
X0043130Y0193107D03*
X0043130Y0206493D03*
D29*
X0090130Y0043711D03*
X0090130Y0026389D03*
D30*
X0034430Y0079700D03*
X0034430Y0088800D03*
X0034430Y0097900D03*
D31*
X0058831Y0088800D03*
D32*
X0046786Y0111300D03*
X0034974Y0111300D03*
X0034974Y0066300D03*
X0046786Y0066300D03*
D33*
X0071512Y0085310D03*
X0071512Y0089050D03*
X0071512Y0092790D03*
X0081748Y0092790D03*
X0081748Y0085310D03*
D34*
X0091130Y0085350D03*
X0099130Y0089150D03*
X0091130Y0092950D03*
X0063870Y0111450D03*
X0055870Y0107650D03*
X0055870Y0115250D03*
X0055880Y0070200D03*
X0063880Y0066400D03*
X0055880Y0062600D03*
D35*
X0032830Y0192050D03*
X0032830Y0207800D03*
D36*
X0111143Y0102316D03*
X0111143Y0099757D03*
X0111143Y0097198D03*
X0111143Y0094639D03*
X0111143Y0092080D03*
X0111143Y0089520D03*
X0111143Y0086961D03*
X0111143Y0084402D03*
X0111143Y0081843D03*
X0111143Y0079284D03*
X0134117Y0079284D03*
X0134117Y0081843D03*
X0134117Y0084402D03*
X0134117Y0086961D03*
X0134117Y0089520D03*
X0134117Y0092080D03*
X0134117Y0094639D03*
X0134117Y0097198D03*
X0134117Y0099757D03*
X0134117Y0102316D03*
D37*
X0135050Y0128917D02*
X0135406Y0128917D01*
X0135050Y0128917D02*
X0135050Y0133013D01*
X0135406Y0133013D01*
X0135406Y0128917D01*
X0135406Y0130333D02*
X0135050Y0130333D01*
X0135050Y0131749D02*
X0135406Y0131749D01*
X0138200Y0128917D02*
X0138556Y0128917D01*
X0138200Y0128917D02*
X0138200Y0133013D01*
X0138556Y0133013D01*
X0138556Y0128917D01*
X0138556Y0130333D02*
X0138200Y0130333D01*
X0138200Y0131749D02*
X0138556Y0131749D01*
X0132257Y0128917D02*
X0131901Y0128917D01*
X0131901Y0133013D01*
X0132257Y0133013D01*
X0132257Y0128917D01*
X0132257Y0130333D02*
X0131901Y0130333D01*
X0131901Y0131749D02*
X0132257Y0131749D01*
X0129107Y0128917D02*
X0128751Y0128917D01*
X0128751Y0133013D01*
X0129107Y0133013D01*
X0129107Y0128917D01*
X0129107Y0130333D02*
X0128751Y0130333D01*
X0128751Y0131749D02*
X0129107Y0131749D01*
X0125958Y0128917D02*
X0125602Y0128917D01*
X0125602Y0133013D01*
X0125958Y0133013D01*
X0125958Y0128917D01*
X0125958Y0130333D02*
X0125602Y0130333D01*
X0125602Y0131749D02*
X0125958Y0131749D01*
X0122808Y0128917D02*
X0122452Y0128917D01*
X0122452Y0133013D01*
X0122808Y0133013D01*
X0122808Y0128917D01*
X0122808Y0130333D02*
X0122452Y0130333D01*
X0122452Y0131749D02*
X0122808Y0131749D01*
X0119658Y0128917D02*
X0119302Y0128917D01*
X0119302Y0133013D01*
X0119658Y0133013D01*
X0119658Y0128917D01*
X0119658Y0130333D02*
X0119302Y0130333D01*
X0119302Y0131749D02*
X0119658Y0131749D01*
X0116509Y0128917D02*
X0116153Y0128917D01*
X0116153Y0133013D01*
X0116509Y0133013D01*
X0116509Y0128917D01*
X0116509Y0130333D02*
X0116153Y0130333D01*
X0116153Y0131749D02*
X0116509Y0131749D01*
X0113359Y0128917D02*
X0113003Y0128917D01*
X0113003Y0133013D01*
X0113359Y0133013D01*
X0113359Y0128917D01*
X0113359Y0130333D02*
X0113003Y0130333D01*
X0113003Y0131749D02*
X0113359Y0131749D01*
X0110210Y0128917D02*
X0109854Y0128917D01*
X0109854Y0133013D01*
X0110210Y0133013D01*
X0110210Y0128917D01*
X0110210Y0130333D02*
X0109854Y0130333D01*
X0109854Y0131749D02*
X0110210Y0131749D01*
X0107060Y0128917D02*
X0106704Y0128917D01*
X0106704Y0133013D01*
X0107060Y0133013D01*
X0107060Y0128917D01*
X0107060Y0130333D02*
X0106704Y0130333D01*
X0106704Y0131749D02*
X0107060Y0131749D01*
X0101843Y0137874D02*
X0097747Y0137874D01*
X0097747Y0138230D01*
X0101843Y0138230D01*
X0101843Y0137874D01*
X0101843Y0141024D02*
X0097747Y0141024D01*
X0097747Y0141380D01*
X0101843Y0141380D01*
X0101843Y0141024D01*
X0101843Y0144173D02*
X0097747Y0144173D01*
X0097747Y0144529D01*
X0101843Y0144529D01*
X0101843Y0144173D01*
X0101843Y0147323D02*
X0097747Y0147323D01*
X0097747Y0147679D01*
X0101843Y0147679D01*
X0101843Y0147323D01*
X0101843Y0150472D02*
X0097747Y0150472D01*
X0097747Y0150828D01*
X0101843Y0150828D01*
X0101843Y0150472D01*
X0101843Y0153622D02*
X0097747Y0153622D01*
X0097747Y0153978D01*
X0101843Y0153978D01*
X0101843Y0153622D01*
X0101843Y0156772D02*
X0097747Y0156772D01*
X0097747Y0157128D01*
X0101843Y0157128D01*
X0101843Y0156772D01*
X0101843Y0159921D02*
X0097747Y0159921D01*
X0097747Y0160277D01*
X0101843Y0160277D01*
X0101843Y0159921D01*
X0101843Y0163071D02*
X0097747Y0163071D01*
X0097747Y0163427D01*
X0101843Y0163427D01*
X0101843Y0163071D01*
X0101843Y0166220D02*
X0097747Y0166220D01*
X0097747Y0166576D01*
X0101843Y0166576D01*
X0101843Y0166220D01*
X0101843Y0169370D02*
X0097747Y0169370D01*
X0097747Y0169726D01*
X0101843Y0169726D01*
X0101843Y0169370D01*
X0106704Y0174587D02*
X0107060Y0174587D01*
X0106704Y0174587D02*
X0106704Y0178683D01*
X0107060Y0178683D01*
X0107060Y0174587D01*
X0107060Y0176003D02*
X0106704Y0176003D01*
X0106704Y0177419D02*
X0107060Y0177419D01*
X0109854Y0174587D02*
X0110210Y0174587D01*
X0109854Y0174587D02*
X0109854Y0178683D01*
X0110210Y0178683D01*
X0110210Y0174587D01*
X0110210Y0176003D02*
X0109854Y0176003D01*
X0109854Y0177419D02*
X0110210Y0177419D01*
X0113003Y0174587D02*
X0113359Y0174587D01*
X0113003Y0174587D02*
X0113003Y0178683D01*
X0113359Y0178683D01*
X0113359Y0174587D01*
X0113359Y0176003D02*
X0113003Y0176003D01*
X0113003Y0177419D02*
X0113359Y0177419D01*
X0116153Y0174587D02*
X0116509Y0174587D01*
X0116153Y0174587D02*
X0116153Y0178683D01*
X0116509Y0178683D01*
X0116509Y0174587D01*
X0116509Y0176003D02*
X0116153Y0176003D01*
X0116153Y0177419D02*
X0116509Y0177419D01*
X0119302Y0174587D02*
X0119658Y0174587D01*
X0119302Y0174587D02*
X0119302Y0178683D01*
X0119658Y0178683D01*
X0119658Y0174587D01*
X0119658Y0176003D02*
X0119302Y0176003D01*
X0119302Y0177419D02*
X0119658Y0177419D01*
X0122452Y0174587D02*
X0122808Y0174587D01*
X0122452Y0174587D02*
X0122452Y0178683D01*
X0122808Y0178683D01*
X0122808Y0174587D01*
X0122808Y0176003D02*
X0122452Y0176003D01*
X0122452Y0177419D02*
X0122808Y0177419D01*
X0125602Y0174587D02*
X0125958Y0174587D01*
X0125602Y0174587D02*
X0125602Y0178683D01*
X0125958Y0178683D01*
X0125958Y0174587D01*
X0125958Y0176003D02*
X0125602Y0176003D01*
X0125602Y0177419D02*
X0125958Y0177419D01*
X0128751Y0174587D02*
X0129107Y0174587D01*
X0128751Y0174587D02*
X0128751Y0178683D01*
X0129107Y0178683D01*
X0129107Y0174587D01*
X0129107Y0176003D02*
X0128751Y0176003D01*
X0128751Y0177419D02*
X0129107Y0177419D01*
X0131901Y0174587D02*
X0132257Y0174587D01*
X0131901Y0174587D02*
X0131901Y0178683D01*
X0132257Y0178683D01*
X0132257Y0174587D01*
X0132257Y0176003D02*
X0131901Y0176003D01*
X0131901Y0177419D02*
X0132257Y0177419D01*
X0135050Y0174587D02*
X0135406Y0174587D01*
X0135050Y0174587D02*
X0135050Y0178683D01*
X0135406Y0178683D01*
X0135406Y0174587D01*
X0135406Y0176003D02*
X0135050Y0176003D01*
X0135050Y0177419D02*
X0135406Y0177419D01*
X0138200Y0174587D02*
X0138556Y0174587D01*
X0138200Y0174587D02*
X0138200Y0178683D01*
X0138556Y0178683D01*
X0138556Y0174587D01*
X0138556Y0176003D02*
X0138200Y0176003D01*
X0138200Y0177419D02*
X0138556Y0177419D01*
X0143417Y0169370D02*
X0147513Y0169370D01*
X0143417Y0169370D02*
X0143417Y0169726D01*
X0147513Y0169726D01*
X0147513Y0169370D01*
X0147513Y0166220D02*
X0143417Y0166220D01*
X0143417Y0166576D01*
X0147513Y0166576D01*
X0147513Y0166220D01*
X0147513Y0163071D02*
X0143417Y0163071D01*
X0143417Y0163427D01*
X0147513Y0163427D01*
X0147513Y0163071D01*
X0147513Y0159921D02*
X0143417Y0159921D01*
X0143417Y0160277D01*
X0147513Y0160277D01*
X0147513Y0159921D01*
X0147513Y0156772D02*
X0143417Y0156772D01*
X0143417Y0157128D01*
X0147513Y0157128D01*
X0147513Y0156772D01*
X0147513Y0153622D02*
X0143417Y0153622D01*
X0143417Y0153978D01*
X0147513Y0153978D01*
X0147513Y0153622D01*
X0147513Y0150472D02*
X0143417Y0150472D01*
X0143417Y0150828D01*
X0147513Y0150828D01*
X0147513Y0150472D01*
X0147513Y0147323D02*
X0143417Y0147323D01*
X0143417Y0147679D01*
X0147513Y0147679D01*
X0147513Y0147323D01*
X0147513Y0144173D02*
X0143417Y0144173D01*
X0143417Y0144529D01*
X0147513Y0144529D01*
X0147513Y0144173D01*
X0147513Y0141024D02*
X0143417Y0141024D01*
X0143417Y0141380D01*
X0147513Y0141380D01*
X0147513Y0141024D01*
X0147513Y0137874D02*
X0143417Y0137874D01*
X0143417Y0138230D01*
X0147513Y0138230D01*
X0147513Y0137874D01*
D38*
X0122630Y0153800D03*
D39*
X0255677Y0161050D03*
X0261583Y0161050D03*
X0261583Y0167050D03*
X0255677Y0167050D03*
X0255677Y0172550D03*
X0255677Y0178050D03*
X0261583Y0178050D03*
X0261583Y0172550D03*
D40*
X0249380Y0171400D03*
X0249380Y0168250D03*
X0249380Y0165100D03*
X0242880Y0165100D03*
X0242880Y0168250D03*
X0242880Y0171400D03*
X0242880Y0174550D03*
X0249380Y0174550D03*
M02*
